{"glyphs":{"0":{"ha":739,"x_min":73,"x_max":665,"o":"m 377 819 q 279 767 321 819 q 215 628 237 715 q 193 434 193 541 q 214 240 193 328 q 275 99 235 151 q 363 46 315 46 q 464 101 422 46 q 526 244 506 156 q 545 441 545 332 q 524 633 545 547 q 465 769 503 719 q 377 819 426 819 m 369 869 q 529 809 460 869 q 631 651 597 749 q 665 433 665 553 q 630 215 665 313 q 528 56 596 117 q 369 -4 460 -4 q 211 56 279 -4 q 108 215 143 117 q 73 433 73 313 q 107 650 73 552 q 210 809 142 749 q 369 869 278 869 z "},"1":{"ha":739,"x_min":198,"x_max":541,"o":"m 335 157 l 335 705 q 328 745 335 734 q 307 757 321 757 q 212 730 284 757 q 198 753 198 741 q 201 761 198 760 q 308 810 248 782 q 401 855 368 839 q 437 871 435 871 l 439 871 q 453 849 449 871 q 442 718 442 800 l 442 157 q 449 57 442 79 q 484 41 452 47 q 536 35 516 35 q 540 16 540 30 q 536 -4 541 1 q 385 3 397 3 q 240 -4 379 3 q 236 16 235 1 q 240 35 236 30 q 292 41 260 35 q 327 57 324 47 q 335 157 335 83 z "},"2":{"ha":739,"x_min":92,"x_max":648,"o":"m 648 203 q 575 0 618 131 q 106 0 575 0 q 97 8 102 2 q 92 19 92 15 q 415 415 307 257 q 467 517 454 472 q 480 618 480 563 q 438 736 480 689 q 331 783 396 783 q 258 769 293 783 q 199 734 223 755 q 160 696 174 713 q 137 666 145 680 q 120 674 130 666 q 111 688 111 683 q 135 731 115 703 q 185 791 155 759 q 264 847 216 824 q 361 871 311 871 q 526 802 456 871 q 595 644 595 732 q 518 439 595 534 q 222 99 414 312 l 491 99 q 556 124 530 99 q 605 203 583 149 q 621 212 608 212 q 648 203 637 212 z "},"3":{"ha":739,"x_min":114,"x_max":624,"o":"m 382 871 q 440 859 410 871 q 497 826 470 847 q 542 771 524 805 q 560 697 560 736 q 548 636 560 666 q 514 583 535 606 q 474 543 494 559 q 434 514 454 526 q 496 494 465 510 q 557 451 528 477 q 605 384 587 425 q 624 296 624 343 q 594 171 624 229 q 515 74 564 113 q 405 15 467 36 q 279 -7 343 -7 q 141 24 203 -7 q 123 46 133 30 q 114 76 114 62 q 131 123 114 104 q 171 141 148 141 q 201 132 188 141 q 228 105 214 123 q 247 81 242 86 q 347 47 281 47 q 403 59 376 47 q 454 94 430 71 q 493 160 478 117 q 507 258 507 202 q 455 394 507 338 q 334 449 403 449 q 306 446 321 449 q 272 437 290 443 q 252 431 254 432 q 244 458 244 441 q 247 472 244 468 q 326 497 290 481 q 393 537 362 513 q 441 596 424 562 q 458 673 458 631 q 421 763 458 727 q 326 799 383 799 q 268 786 296 799 q 222 758 239 772 q 191 727 206 744 q 174 709 175 710 q 162 720 168 709 q 157 739 157 730 q 252 832 195 794 q 382 871 310 871 z "},"4":{"ha":739,"x_min":68,"x_max":670,"o":"m 551 873 q 566 866 560 873 q 571 849 571 859 l 571 313 l 651 313 q 664 296 657 313 q 670 258 670 278 q 665 236 670 244 l 571 236 l 571 -1 q 513 -8 566 -8 q 464 3 464 -8 l 464 236 l 81 236 q 68 262 68 243 l 510 840 q 531 862 518 850 q 551 873 543 873 m 464 711 l 160 313 l 464 313 l 464 711 z "},"5":{"ha":739,"x_min":114,"x_max":624,"o":"m 369 536 q 476 514 427 536 q 557 459 525 493 q 606 382 589 425 q 624 296 624 339 q 594 171 624 229 q 515 74 564 113 q 405 15 467 36 q 279 -7 343 -7 q 141 24 203 -7 q 123 46 133 30 q 114 76 114 62 q 131 123 114 104 q 171 141 148 141 q 201 132 188 141 q 228 105 214 123 q 247 81 242 86 q 347 47 281 47 q 403 59 376 47 q 454 93 430 70 q 493 159 478 117 q 507 258 507 201 q 500 311 507 284 q 476 365 493 338 q 435 413 459 392 q 373 447 410 434 q 290 460 336 460 q 230 453 267 460 q 176 439 192 447 q 169 446 172 439 q 165 458 165 452 q 244 861 239 833 l 445 861 q 500 864 469 861 q 551 871 532 868 l 570 873 q 575 870 572 872 q 581 866 579 867 q 584 863 583 865 q 586 859 586 861 q 573 814 586 848 q 545 762 561 781 q 388 754 469 754 l 274 754 q 259 676 269 727 q 241 585 249 625 q 225 510 233 544 q 296 528 252 521 q 369 536 340 536 z "},"6":{"ha":739,"x_min":99,"x_max":640,"o":"m 221 415 q 216 323 216 377 q 226 227 216 275 q 255 134 236 178 q 305 64 273 91 q 376 37 337 37 q 483 97 440 37 q 525 250 525 158 q 508 358 525 310 q 452 438 492 406 q 354 469 412 469 q 221 415 271 469 m 392 536 q 490 518 446 536 q 562 472 534 500 q 607 409 589 445 q 633 340 625 374 q 640 275 640 307 q 560 76 640 160 q 365 -8 479 -8 q 255 19 306 -8 q 170 90 203 46 q 118 189 137 134 q 99 298 99 243 q 132 495 99 403 q 229 658 165 588 q 400 794 298 734 q 593 878 503 854 q 605 863 601 878 q 609 838 609 848 q 232 475 299 739 q 311 519 266 503 q 392 536 355 536 z "},"7":{"ha":739,"x_min":84,"x_max":654,"o":"m 553 859 q 610 861 574 859 q 646 863 645 863 q 654 850 654 863 q 650 833 654 844 q 642 813 646 823 q 629 786 637 804 q 616 760 621 769 l 258 -3 q 244 -7 254 -7 q 206 1 227 -7 q 184 18 184 9 q 343 297 247 112 q 505 621 439 483 l 570 760 l 225 760 q 164 735 186 760 q 127 655 143 711 q 111 647 126 647 q 84 655 95 647 q 141 859 125 785 l 553 859 z "},"8":{"ha":739,"x_min":114,"x_max":625,"o":"m 369 37 q 476 77 436 37 q 515 187 515 118 q 498 252 515 219 q 460 308 481 285 q 410 353 439 330 q 368 385 381 376 q 342 400 354 393 q 334 403 336 403 q 328 401 330 403 q 247 321 272 366 q 221 213 221 277 q 266 85 221 134 q 369 37 311 37 m 369 825 q 286 781 320 825 q 252 675 252 736 q 265 611 252 640 q 301 559 277 581 q 343 525 326 536 q 387 497 361 513 q 393 494 391 495 q 401 491 399 491 q 410 494 406 491 q 502 659 502 555 q 465 773 502 722 q 369 825 427 825 m 377 872 q 535 818 471 872 q 600 673 600 764 q 586 603 600 635 q 546 544 572 570 q 499 502 519 517 q 448 467 478 486 q 448 458 439 465 q 572 356 519 418 q 625 227 625 294 q 548 57 625 127 q 366 -12 470 -12 q 184 49 254 -12 q 114 209 114 111 q 118 243 114 227 q 127 274 122 260 q 142 303 132 288 q 160 329 153 319 q 183 353 168 339 q 205 373 198 366 q 229 391 212 379 q 251 406 246 403 q 273 420 256 410 q 290 431 290 431 q 290 439 297 436 q 195 527 237 471 q 152 651 152 583 q 220 805 152 738 q 377 872 288 872 z "},"9":{"ha":739,"x_min":100,"x_max":640,"o":"m 518 454 q 524 547 524 492 q 513 643 524 594 q 485 735 503 692 q 434 806 466 779 q 363 833 402 833 q 258 772 300 833 q 216 620 216 711 q 232 511 216 559 q 288 432 248 463 q 385 400 327 400 q 518 454 469 400 m 130 31 q 507 395 440 131 q 429 350 473 366 q 347 334 384 334 q 249 352 293 334 q 178 397 205 370 q 133 460 151 425 q 107 529 115 496 q 100 594 100 562 q 180 793 100 709 q 374 878 260 878 q 485 850 433 878 q 569 779 536 823 q 621 681 602 735 q 640 571 640 627 q 607 374 640 467 q 510 212 574 281 q 339 76 441 136 q 146 -8 237 16 q 134 6 138 -8 q 130 31 130 21 z "}," ":{"ha":407,"x_min":0,"x_max":0,"o":""},"!":{"ha":327,"x_min":-53,"x_max":232,"o":"m 110 8 q 96 19 110 8 q 77 61 83 31 q 91 113 72 92 q 140 134 110 134 q 196 113 171 134 q 227 61 221 92 q 215 8 232 31 q 167 -15 197 -15 q 110 8 136 -15 m -38 901 q 6 925 -24 925 q 56 901 36 925 q 80 846 75 876 q 140 233 106 701 q 122 216 135 217 q 102 231 109 221 q -47 846 -22 699 q -38 901 -53 876 z "},"\"":{"ha":380,"x_min":53,"x_max":321,"o":"m 286 948 q 321 930 307 948 q 315 810 321 901 q 302 667 309 720 q 275 642 294 651 q 263 650 267 642 q 216 853 216 812 q 236 917 216 885 q 286 948 256 948 m 123 948 q 159 930 144 948 q 152 810 159 901 q 140 667 146 720 q 113 642 132 651 q 100 650 104 642 q 53 853 53 812 q 73 917 53 885 q 123 948 94 948 z "},"#":{"ha":651,"x_min":68,"x_max":581,"o":"m 561 500 q 115 500 561 500 q 107 516 107 500 q 113 548 106 532 q 127 567 119 564 l 569 567 q 579 552 578 567 q 575 521 581 537 q 561 500 569 505 m 523 241 l 77 241 q 69 257 69 243 q 75 288 68 271 q 90 308 82 305 l 532 308 q 542 293 541 308 q 537 262 543 278 q 523 241 531 245 m 507 716 l 409 104 q 399 93 408 99 q 376 87 390 87 q 367 88 370 87 q 362 91 363 90 l 361 92 l 459 703 q 462 711 461 709 q 466 715 463 712 q 474 720 469 719 q 489 720 479 720 q 507 716 500 720 m 288 716 l 189 104 q 180 93 188 99 q 158 87 172 87 q 148 88 152 87 q 144 91 144 90 l 143 92 l 241 703 q 243 711 243 709 q 247 715 244 712 q 256 720 250 719 q 271 720 261 720 q 288 716 282 720 z "},"$":{"ha":675,"x_min":69,"x_max":608,"o":"m 327 509 l 378 817 q 340 822 361 822 q 271 809 300 822 q 226 773 241 795 q 204 727 211 751 q 198 678 198 704 q 208 624 198 648 q 238 578 218 599 q 277 543 258 557 q 327 509 296 528 m 352 359 l 298 35 q 338 33 315 33 q 448 75 402 33 q 494 190 494 117 q 491 220 494 205 q 485 245 488 234 q 473 268 482 256 q 460 286 465 279 q 442 303 456 293 q 423 318 429 314 q 400 333 418 322 q 377 346 382 343 q 352 359 372 349 m 396 926 q 444 917 444 926 l 434 858 q 485 845 450 854 q 545 830 520 836 q 554 775 551 806 q 559 727 558 745 q 561 678 560 709 q 562 646 562 648 q 537 640 553 640 q 518 647 525 640 q 488 727 513 684 q 424 796 463 770 l 372 482 q 376 479 373 481 q 381 476 380 477 q 415 455 391 469 q 453 432 439 441 q 490 407 467 423 q 527 378 513 391 q 558 347 541 366 q 585 311 575 328 q 601 271 594 293 q 608 225 608 249 q 568 100 608 156 q 467 16 529 45 q 335 -14 406 -14 q 290 -12 313 -14 l 281 -71 q 250 -67 267 -71 q 233 -58 233 -64 l 242 -5 q 100 24 229 -3 q 79 144 90 77 q 69 224 69 211 q 84 231 73 228 q 103 235 96 235 q 118 228 115 235 q 129 191 122 210 q 149 143 135 172 q 190 88 163 113 q 251 49 216 63 l 307 385 q 256 415 275 404 q 209 448 237 427 q 163 486 180 468 q 127 528 145 505 q 102 579 110 552 q 94 637 94 607 q 130 758 94 704 q 225 839 167 811 q 349 867 283 867 q 386 865 363 867 l 396 926 z "},"%":{"ha":905,"x_min":54,"x_max":848,"o":"m 252 842 q 188 816 214 842 q 152 752 162 789 q 141 673 141 715 q 179 537 141 600 q 266 475 216 475 q 315 490 294 475 q 347 531 336 505 q 362 585 357 557 q 368 646 368 614 q 354 737 368 692 q 313 812 340 781 q 252 842 286 842 m 258 875 q 401 811 345 875 q 457 656 457 747 q 434 553 457 602 q 363 472 410 504 q 258 441 317 441 q 114 504 173 441 q 54 656 54 567 q 112 812 54 749 q 258 875 169 875 m 644 392 q 580 366 606 392 q 543 302 553 339 q 532 222 532 265 q 570 87 532 150 q 658 24 608 24 q 706 40 686 24 q 738 81 727 55 q 753 135 749 106 q 758 195 758 163 q 745 287 758 242 q 705 361 732 331 q 644 392 678 392 m 650 425 q 792 361 736 425 q 848 206 848 297 q 793 55 848 120 q 648 -9 738 -9 q 504 54 564 -9 q 445 206 445 117 q 503 361 445 298 q 650 425 560 425 m 811 846 l 156 0 q 137 -11 152 -5 q 111 -16 123 -16 q 87 -1 94 -16 l 741 846 q 768 863 754 863 q 789 862 782 863 q 799 860 797 861 q 805 854 802 859 q 811 846 808 849 z "},"&":{"ha":1059,"x_min":-9,"x_max":1057,"o":"m 567 727 q 647 693 614 727 q 681 613 681 660 q 661 532 681 571 q 611 466 641 494 q 537 412 582 438 q 456 371 493 387 q 372 340 419 355 q 302 320 325 326 q 300 319 301 319 q 366 115 306 186 q 556 37 432 37 q 677 66 618 37 q 772 147 735 95 q 810 260 810 199 q 803 296 810 277 q 789 323 796 316 q 719 294 751 311 q 660 251 686 277 q 635 197 635 224 q 640 167 635 176 q 627 166 637 164 q 613 174 618 168 q 593 205 602 183 q 585 251 585 227 q 623 329 585 295 q 741 397 661 363 q 1000 735 1014 515 q 1027 724 1015 736 q 1057 597 1057 665 q 1009 457 1057 519 q 887 358 962 395 q 895 309 895 342 q 842 156 895 229 q 699 38 788 83 q 513 -7 610 -7 q 387 10 444 -7 q 284 63 330 27 q 214 160 239 98 q 189 293 191 217 q 107 267 131 277 q 58 209 58 243 q 60 196 58 202 q 65 186 62 191 q 71 179 68 182 q 79 172 73 176 q 85 167 84 168 q 111 122 111 144 q 94 79 111 94 q 52 64 77 64 q 18 71 30 64 q -2 104 5 81 q -9 145 -9 127 q 29 256 -9 209 q 138 323 67 302 q 175 333 142 324 q 190 337 183 335 q 217 454 195 395 q 294 590 245 529 q 415 689 343 650 q 567 727 487 727 m 300 371 q 331 382 319 377 q 386 405 352 391 q 439 433 419 420 q 484 465 460 446 q 522 502 509 484 q 545 543 536 520 q 555 590 555 566 q 486 670 555 670 q 357 576 413 670 q 300 371 305 492 z "},"'":{"ha":217,"x_min":53,"x_max":159,"o":"m 123 948 q 159 930 144 948 q 152 810 159 901 q 140 667 146 720 q 113 642 132 651 q 100 650 104 642 q 53 853 53 812 q 73 917 53 885 q 123 948 94 948 z "},"(":{"ha":637,"x_min":203,"x_max":576,"o":"m 306 231 q 393 -241 306 -18 q 576 -513 461 -413 q 556 -536 576 -513 q 253 -94 341 -367 q 203 231 203 59 q 408 849 203 596 q 556 996 475 931 l 576 966 q 356 592 430 850 q 306 231 306 416 z "},")":{"ha":637,"x_min":61,"x_max":433,"o":"m 331 231 q 281 592 331 416 q 61 966 207 850 l 81 996 q 229 849 162 931 q 433 231 433 596 q 384 -94 433 59 q 81 -536 296 -367 l 61 -513 q 243 -241 176 -413 q 331 231 331 -18 z "},"*":{"ha":601,"x_min":44,"x_max":545,"o":"m 409 831 q 448 857 427 852 q 485 848 469 862 q 499 810 501 831 q 477 772 496 789 q 408 726 452 749 q 345 685 363 703 q 343 681 345 684 q 340 674 342 679 q 338 666 338 669 q 352 652 340 657 q 420 634 374 642 q 497 612 466 626 q 533 582 522 601 q 536 545 545 564 q 505 521 526 525 q 462 529 484 517 q 396 580 432 545 q 338 627 360 615 q 335 628 337 627 q 327 631 333 629 q 319 631 321 633 q 315 627 317 629 q 313 623 313 625 q 312 618 313 621 q 311 613 311 614 q 314 543 309 589 q 317 463 320 496 q 299 419 313 436 q 265 406 286 403 q 232 427 243 408 q 227 471 222 445 q 256 550 233 504 q 283 620 278 595 q 279 637 284 632 q 261 642 274 644 q 196 616 238 637 q 119 589 153 596 q 72 591 93 583 q 48 620 51 600 q 59 657 44 642 q 100 677 74 673 q 183 674 134 681 q 257 670 232 667 q 272 681 269 674 q 269 700 275 690 q 225 755 257 721 q 176 819 193 789 q 164 863 163 841 q 184 895 166 886 q 223 897 204 905 q 253 864 241 888 q 276 784 267 833 q 295 712 284 735 q 309 697 302 699 q 326 705 317 696 q 365 765 343 724 q 409 831 387 806 z "},"+":{"ha":735,"x_min":42,"x_max":693,"o":"m 328 643 q 387 658 368 658 q 397 656 393 658 q 403 652 401 654 l 404 650 l 404 372 l 681 372 q 689 367 686 372 q 693 355 693 363 q 687 322 693 339 q 671 296 680 304 l 404 296 l 404 22 q 346 7 385 7 q 334 11 339 7 q 328 19 328 15 l 328 296 l 50 296 q 42 309 42 296 q 48 341 42 318 q 62 372 54 365 l 328 372 l 328 643 z "},",":{"ha":271,"x_min":-38,"x_max":148,"o":"m -38 -121 q 21 -76 -12 -109 q 54 -3 54 -43 q 43 60 54 33 q 31 107 31 87 q 53 156 31 138 q 106 175 75 175 q 144 161 133 175 q 148 129 148 151 q 99 -38 148 42 q 39 -110 73 -80 q -19 -148 4 -139 q -31 -138 -23 -148 q -38 -121 -38 -128 z "},"-":{"ha":503,"x_min":72,"x_max":416,"o":"m 100 354 l 408 370 q 416 354 416 370 q 406 312 416 339 q 385 285 395 286 l 79 270 q 72 290 72 270 q 81 329 72 304 q 100 354 90 353 z "},".":{"ha":282,"x_min":11,"x_max":160,"o":"m 11 45 q 39 110 11 81 q 102 138 68 138 q 144 121 128 138 q 160 77 160 104 q 132 11 160 40 q 71 -19 104 -19 q 27 -1 44 -19 q 11 45 11 17 z "},"/":{"ha":479,"x_min":21,"x_max":437,"o":"m 419 975 q 437 963 433 975 l 98 -227 q 80 -248 96 -236 q 45 -258 66 -259 q 31 -256 37 -258 q 23 -251 24 -254 l 21 -249 l 365 955 q 372 962 366 958 q 391 971 378 966 q 419 975 404 975 z "},":":{"ha":307,"x_min":79,"x_max":228,"o":"m 101 8 q 90 19 101 8 q 79 61 79 31 q 101 113 79 92 q 155 134 124 134 q 207 113 185 134 q 228 61 228 92 q 207 8 228 31 q 155 -15 185 -15 q 101 8 124 -15 m 101 458 q 90 469 101 458 q 79 511 79 481 q 101 563 79 542 q 155 585 124 585 q 207 563 185 585 q 228 511 228 542 q 207 458 228 481 q 155 435 185 435 q 101 458 124 435 z "},";":{"ha":315,"x_min":52,"x_max":232,"o":"m 172 167 q 208 157 191 167 q 232 62 232 115 q 178 -77 232 5 q 72 -189 125 -159 q 58 -178 65 -189 q 52 -160 52 -167 q 77 -139 67 -149 q 104 -111 87 -130 q 129 -66 120 -92 q 137 -9 137 -40 q 115 43 137 12 q 92 100 92 73 q 115 145 92 124 q 172 167 138 167 m 105 458 q 94 469 105 458 q 83 511 83 481 q 105 563 83 542 q 159 585 128 585 q 211 563 189 585 q 232 511 232 542 q 211 458 232 481 q 159 435 189 435 q 105 458 128 435 z "},"<":{"ha":667,"x_min":41,"x_max":602,"o":"m 602 47 q 594 9 602 38 q 581 -20 586 -20 q 574 -18 579 -20 l 65 240 q 41 294 41 253 q 65 327 41 315 l 566 581 q 572 583 571 583 q 595 519 583 583 q 595 513 596 516 q 593 509 594 510 l 591 507 l 149 283 l 598 56 q 602 47 602 54 z "},"=":{"ha":766,"x_min":92,"x_max":675,"o":"m 649 163 q 98 163 649 163 q 93 181 92 165 q 102 215 94 196 q 120 237 111 234 l 667 237 q 674 220 675 235 q 666 186 674 205 q 649 163 658 168 m 649 358 l 98 358 q 93 376 92 361 q 102 410 94 391 q 120 433 111 429 l 667 433 q 674 415 675 430 q 666 382 674 401 q 649 358 658 363 z "},">":{"ha":669,"x_min":65,"x_max":627,"o":"m 65 47 q 66 52 65 50 q 68 55 66 54 l 69 56 l 518 283 l 77 507 q 73 518 73 509 q 82 559 73 535 q 95 583 90 583 q 102 581 96 583 l 604 327 q 627 294 627 315 q 604 240 627 252 l 95 -18 q 88 -20 90 -20 q 74 8 83 -20 q 65 47 65 37 z "},"?":{"ha":483,"x_min":76,"x_max":420,"o":"m 108 8 q 97 19 108 8 q 85 61 85 31 q 108 113 85 92 q 161 134 131 134 q 213 113 192 134 q 235 61 235 92 q 213 8 235 31 q 161 -15 192 -15 q 108 8 131 -15 m 136 743 q 97 762 117 743 q 76 811 76 781 q 88 861 76 844 q 153 871 107 871 q 216 860 181 871 q 286 828 250 850 q 352 777 322 806 q 401 707 382 748 q 420 620 420 665 q 390 503 420 550 q 283 412 359 456 q 219 367 255 395 q 178 328 184 339 q 172 308 174 321 q 169 285 170 294 q 169 257 169 276 q 170 233 170 238 q 148 216 161 217 q 130 231 135 221 q 119 354 119 276 q 126 405 119 381 q 142 443 134 428 q 168 473 151 458 q 195 496 184 489 q 225 516 205 504 q 235 522 232 520 q 274 547 262 540 q 304 570 285 555 q 331 596 323 585 q 346 625 339 608 q 353 661 353 642 q 323 742 353 711 q 252 772 293 772 q 180 758 212 772 q 136 743 149 743 z "},"@":{"ha":1015,"x_min":66,"x_max":966,"o":"m 567 784 q 710 761 644 784 q 822 698 776 738 q 902 605 869 658 q 950 491 935 551 q 966 366 966 431 q 929 178 966 264 q 829 41 893 92 q 686 -9 764 -9 q 604 19 634 -9 q 574 107 574 47 q 583 170 574 144 q 553 120 572 148 q 508 63 534 93 q 451 13 482 33 q 392 -7 420 -7 q 297 47 332 -7 q 263 176 263 100 q 298 324 263 249 q 387 458 333 399 q 512 553 441 516 q 651 590 583 590 q 750 572 702 590 l 667 144 q 663 110 663 127 q 681 64 663 79 q 728 49 699 49 q 793 74 760 49 q 852 141 826 100 q 895 242 878 183 q 911 362 911 300 q 899 471 911 418 q 858 571 886 524 q 790 653 830 618 q 693 709 751 688 q 567 730 635 730 q 414 701 486 730 q 290 622 342 671 q 198 508 237 572 q 140 373 159 444 q 121 231 121 302 q 172 28 121 117 q 301 -106 223 -60 q 403 -144 353 -136 q 385 -160 403 -151 q 354 -168 367 -168 q 301 -160 322 -168 q 135 -16 203 -124 q 66 231 66 92 q 88 390 66 311 q 152 540 109 469 q 254 666 195 611 q 394 752 313 720 q 567 784 475 784 m 594 528 q 514 499 556 528 q 439 425 473 470 q 385 321 406 380 q 363 205 363 262 q 433 72 363 72 q 506 120 465 72 q 578 237 546 168 q 623 372 610 307 l 650 510 q 594 528 634 528 z "},"A":{"ha":795,"x_min":-77,"x_max":750,"o":"m 463 35 q 519 46 499 35 q 540 77 540 57 q 536 144 540 118 l 505 347 l 236 347 q 139 170 168 223 q 100 68 100 94 q 112 51 100 58 q 139 41 123 43 q 166 37 155 38 q 184 35 178 35 q 184 17 186 33 q 178 -4 182 2 q 139 -1 160 -3 q 100 2 119 1 q 58 3 82 3 q 13 2 32 3 q -30 -1 -7 1 q -75 -4 -54 -3 q -74 13 -77 -1 q -67 35 -71 28 q -26 42 -52 35 q 10 61 -1 50 q 94 189 43 96 l 469 860 q 495 887 477 875 q 523 899 513 899 q 530 895 528 899 l 646 171 q 662 79 660 88 q 677 56 665 65 q 705 42 689 46 q 731 37 720 38 q 747 35 741 35 q 748 14 750 27 q 743 -4 746 0 q 595 3 618 3 q 548 2 569 3 q 501 -1 527 1 q 454 -4 475 -3 q 453 16 450 1 q 463 35 456 30 m 260 392 l 498 392 l 446 726 l 260 392 z "},"B":{"ha":768,"x_min":-10,"x_max":707,"o":"m 296 502 l 423 502 q 539 562 492 502 q 587 708 587 622 q 551 813 587 772 q 433 854 515 854 q 367 841 374 854 q 341 739 357 823 l 296 502 m 287 460 l 227 155 q 219 103 222 134 q 219 58 216 72 q 251 39 229 43 q 314 35 273 35 q 488 105 421 35 q 555 298 555 175 q 554 320 555 313 q 551 348 554 328 q 541 379 547 367 q 520 409 534 392 q 487 435 507 425 q 436 453 467 446 q 364 460 404 460 l 287 460 m 317 891 q 396 892 338 891 q 496 894 455 894 q 648 852 589 894 q 707 728 707 811 q 544 496 707 582 q 639 438 595 492 q 684 307 684 385 q 570 83 684 170 q 284 -4 457 -4 l -6 -4 q -7 16 -10 1 q 2 35 -3 30 q 55 41 21 35 q 93 57 89 47 q 119 157 102 76 l 231 736 q 245 837 245 809 q 213 853 244 848 q 162 859 182 859 q 161 878 159 863 q 169 898 163 893 q 317 891 298 891 z "},"C":{"ha":875,"x_min":80,"x_max":849,"o":"m 772 235 q 789 232 780 235 q 804 227 799 229 l 810 224 q 766 126 806 202 q 712 38 726 50 q 598 0 659 10 q 448 -11 538 -11 q 256 40 340 -11 q 125 175 171 91 q 80 359 80 259 q 110 547 80 459 q 193 701 140 635 q 315 812 245 766 q 466 882 385 859 q 631 903 547 905 q 849 868 711 902 q 836 670 841 720 q 825 663 834 663 q 793 670 807 663 q 738 806 798 750 q 591 861 678 861 q 442 827 512 861 q 320 733 372 793 q 239 581 269 672 q 209 382 209 490 q 218 283 209 332 q 248 189 227 235 q 300 106 269 142 q 379 50 331 71 q 486 28 427 28 q 772 235 664 28 z "},"D":{"ha":928,"x_min":-10,"x_max":888,"o":"m 342 741 l 227 152 q 218 96 222 132 q 216 54 213 60 q 315 35 224 35 q 457 59 389 35 q 583 130 525 83 q 684 253 641 177 q 745 425 726 328 q 755 622 766 540 q 702 755 744 703 q 599 831 660 807 q 458 856 538 856 q 368 841 375 856 q 342 741 357 819 m 500 892 q 656 871 586 892 q 772 810 726 849 q 848 716 819 771 q 883 595 878 661 q 876 453 888 529 q 835 317 861 380 q 763 193 809 253 q 655 91 717 134 q 505 22 594 48 q 310 -4 416 -3 l -6 -4 q -7 16 -10 1 q 2 35 -3 30 q 55 41 21 35 q 93 57 89 47 q 119 157 102 76 l 231 736 q 245 837 248 817 q 213 852 244 846 q 162 859 181 859 q 161 878 159 863 q 169 898 163 893 q 317 891 298 891 q 406 892 340 891 q 500 892 471 892 z "},"E":{"ha":751,"x_min":-11,"x_max":724,"o":"m 316 891 q 513 896 373 891 q 723 901 652 901 q 722 806 720 884 q 724 716 724 728 q 700 709 718 709 q 685 719 685 709 q 650 825 680 795 q 566 854 620 854 l 457 854 q 368 840 375 854 q 340 742 353 811 l 290 481 q 294 477 290 479 q 306 475 298 475 q 323 474 314 474 q 343 473 332 473 l 410 473 q 458 474 441 473 q 492 478 476 475 q 516 487 508 481 q 532 502 524 492 q 547 525 541 512 q 562 558 553 538 q 567 571 565 566 q 589 581 571 581 q 608 574 603 581 l 559 317 q 537 312 553 312 q 519 323 522 312 q 513 394 517 378 q 502 418 509 411 q 370 429 488 429 q 277 416 279 429 l 224 148 q 214 54 207 62 q 240 43 224 45 q 301 41 256 41 l 361 41 q 529 83 465 41 q 635 220 589 123 q 655 228 639 228 q 685 220 680 228 q 646 148 676 203 q 599 57 616 93 q 572 -5 581 22 q 370 -3 508 -5 q 144 0 232 0 q 64 -2 113 0 q -7 -4 16 -4 q -8 16 -11 1 q 0 35 -5 30 q 54 41 19 35 q 92 57 88 47 q 118 157 102 76 l 231 736 q 243 837 245 812 q 211 852 242 846 q 160 859 179 859 q 159 878 157 863 q 168 898 162 893 q 316 891 297 891 z "},"F":{"ha":689,"x_min":-11,"x_max":724,"o":"m 316 891 q 513 896 373 891 q 723 901 652 901 q 722 806 720 884 q 724 716 724 728 q 700 709 718 709 q 685 719 685 709 q 650 825 680 795 q 566 854 620 854 l 457 854 q 368 840 375 854 q 340 742 353 811 l 290 481 q 294 477 290 479 q 306 475 298 475 q 323 474 314 474 q 343 473 332 473 l 410 473 q 458 474 441 473 q 492 478 476 475 q 516 487 508 481 q 532 502 524 492 q 547 525 541 512 q 562 558 553 538 q 567 571 565 566 q 589 581 571 581 q 608 574 603 581 l 559 317 q 537 312 553 312 q 519 323 522 312 q 513 394 517 378 q 502 418 509 411 q 370 429 488 429 q 277 416 279 429 l 227 157 q 214 57 212 81 q 252 41 215 47 q 309 35 289 35 q 310 16 313 31 q 301 -4 307 1 q 142 3 172 3 q 64 -1 111 3 q -7 -4 16 -4 q -8 16 -11 1 q 0 35 -5 30 q 54 41 19 35 q 92 57 88 47 q 118 157 102 76 l 231 736 q 243 837 245 812 q 211 852 242 846 q 160 859 179 859 q 159 878 157 863 q 168 898 162 893 q 316 891 297 891 z "},"G":{"ha":945,"x_min":80,"x_max":905,"o":"m 793 670 q 738 806 798 750 q 591 861 678 861 q 442 827 512 861 q 320 733 372 793 q 239 581 269 672 q 209 382 209 490 q 218 283 209 332 q 249 188 228 235 q 300 106 270 142 q 378 50 331 71 q 481 28 425 28 q 566 43 526 28 q 633 75 607 57 q 647 98 645 82 l 674 237 q 688 338 690 317 q 652 353 687 347 q 598 359 618 359 q 597 379 595 364 q 605 399 599 394 q 751 392 734 392 q 901 399 768 392 q 903 379 905 393 q 895 359 901 365 q 845 353 877 359 q 808 338 813 347 q 783 237 799 319 l 764 141 q 763 111 760 128 q 766 92 766 94 q 736 62 766 78 q 629 14 667 26 q 439 -11 550 -11 q 255 40 338 -11 q 126 175 172 90 q 80 359 80 260 q 110 547 80 459 q 193 701 140 635 q 315 812 245 766 q 466 882 385 859 q 631 903 547 905 q 849 868 711 902 q 842 756 848 839 q 836 670 836 673 q 825 663 834 663 q 793 670 807 663 z "},"H":{"ha":930,"x_min":-12,"x_max":975,"o":"m 227 157 q 214 57 212 73 q 246 41 214 47 q 296 35 277 35 q 297 16 300 31 q 288 -4 294 1 q 143 3 159 3 q -7 -4 125 3 q -9 16 -12 1 q -1 35 -6 30 q 53 41 18 35 q 92 57 87 47 q 117 157 101 76 l 230 736 q 242 837 245 812 q 210 852 241 846 q 159 859 178 859 q 159 878 156 863 q 168 898 161 893 q 315 891 296 891 q 465 898 332 891 q 465 878 469 892 q 456 859 462 864 q 404 852 437 859 q 366 837 370 846 q 340 736 354 814 l 291 483 l 687 483 l 736 736 q 748 837 751 817 q 716 852 747 846 q 665 859 684 859 q 665 878 662 863 q 673 898 667 893 q 821 891 802 891 q 970 898 838 891 q 971 878 975 892 q 962 859 968 864 q 909 852 943 859 q 871 837 876 846 q 846 736 862 818 l 733 157 q 720 57 717 77 q 752 41 720 47 q 802 35 783 35 q 803 16 806 31 q 794 -4 800 1 q 648 3 665 3 q 498 -4 631 3 q 497 16 494 1 q 505 35 500 30 q 559 41 524 35 q 597 57 593 47 q 623 157 607 76 l 676 429 l 280 429 l 227 157 z "},"I":{"ha":425,"x_min":-12,"x_max":469,"o":"m 315 891 q 465 898 332 891 q 465 878 469 892 q 456 859 462 864 q 404 852 437 859 q 366 837 370 846 q 340 736 356 818 l 227 157 q 214 57 211 77 q 246 41 214 47 q 296 35 277 35 q 297 16 300 31 q 288 -4 294 1 q 143 3 159 3 q -7 -4 125 3 q -9 16 -12 1 q -1 35 -6 30 q 53 41 18 35 q 92 57 87 47 q 117 157 101 76 l 230 736 q 242 837 245 812 q 210 852 241 846 q 159 859 178 859 q 159 878 156 863 q 168 898 161 893 q 315 891 296 891 z "},"J":{"ha":425,"x_min":-146,"x_max":460,"o":"m 222 736 q 234 837 237 817 q 202 852 233 846 q 151 859 170 859 q 151 878 148 863 q 159 898 153 893 q 307 891 288 891 q 456 898 324 891 q 457 878 460 892 q 448 859 454 864 q 395 852 429 859 q 357 837 361 846 q 332 736 346 814 l 222 157 q 169 -29 203 54 q 96 -164 135 -113 q 14 -252 58 -216 q -69 -302 -31 -288 q -142 -316 -108 -316 q -146 -298 -146 -310 l -145 -290 q 21 -156 -35 -256 q 114 148 77 -56 l 222 736 z "},"K":{"ha":833,"x_min":-10,"x_max":904,"o":"m 652 98 q 702 55 674 71 q 777 35 730 39 q 776 17 780 31 q 768 -4 772 2 q 592 11 628 -4 q 517 69 547 30 q 300 412 486 114 q 290 416 299 416 q 277 414 283 416 l 227 157 q 215 57 212 81 q 247 41 216 47 q 298 35 279 35 q 298 16 301 31 q 290 -4 296 1 q 143 3 161 3 q -6 -4 126 3 q -7 16 -10 1 q 1 35 -5 30 q 54 41 20 35 q 92 57 87 47 q 117 157 101 76 l 230 736 q 243 837 246 817 q 211 852 243 846 q 161 859 180 859 q 160 878 157 863 q 169 898 163 893 q 317 891 298 891 q 465 898 332 891 q 466 878 469 892 q 458 859 463 864 q 404 852 439 859 q 366 837 370 846 q 340 736 356 818 l 287 461 q 455 595 330 486 q 499 634 471 609 q 534 664 527 659 q 558 686 541 670 q 581 707 576 702 q 600 726 586 712 q 624 751 614 740 q 652 781 634 762 q 677 823 674 807 q 672 843 680 835 q 651 853 665 850 q 630 857 637 856 q 614 857 623 857 q 614 876 612 863 q 622 898 617 888 q 666 895 637 897 q 720 891 696 892 q 764 890 744 890 q 844 893 797 890 q 903 898 890 897 q 900 874 904 890 q 892 857 897 857 q 884 857 891 857 q 869 856 876 857 q 851 853 862 854 q 828 847 840 851 q 805 839 817 844 q 781 825 793 833 q 758 807 768 817 q 661 717 710 762 q 587 651 612 672 q 495 571 563 629 q 409 496 428 513 q 406 475 399 488 q 497 325 469 370 q 571 212 526 280 q 652 98 616 144 z "},"L":{"ha":719,"x_min":-10,"x_max":686,"o":"m 225 152 q 214 54 207 62 q 240 43 224 45 q 301 41 256 41 l 373 41 q 519 77 454 41 q 635 220 586 115 q 656 228 640 228 q 686 220 680 228 q 647 148 677 203 q 600 57 617 93 q 573 -5 582 22 q 371 -3 509 -5 q 144 0 233 0 q 65 -2 113 0 q -6 -4 17 -4 q -7 16 -10 1 q 2 35 -3 30 q 55 41 21 35 q 93 57 89 47 q 119 157 102 76 l 231 736 q 245 837 248 817 q 213 852 244 846 q 162 859 181 859 q 161 878 159 863 q 169 898 163 893 q 317 891 298 891 q 466 898 334 891 q 467 878 470 892 q 458 859 463 864 q 405 852 439 859 q 367 837 371 846 q 341 736 355 814 l 225 152 z "},"M":{"ha":1137,"x_min":-34,"x_max":1164,"o":"m 538 66 q 509 26 531 53 q 477 -3 487 -1 q 467 0 476 -3 l 312 792 q 247 492 284 662 q 186 213 210 323 q 161 102 162 104 q 159 60 156 79 q 197 41 161 47 q 254 35 233 35 q 254 15 256 30 q 248 -4 251 0 q 207 -1 231 -3 q 162 2 182 1 q 117 3 142 3 q 68 2 91 3 q 16 -1 45 1 q -33 -4 -12 -3 q -32 13 -34 -1 q -24 35 -29 28 q 34 42 -4 35 q 81 60 72 48 q 110 127 98 80 q 254 776 241 699 q 259 830 262 814 q 225 850 258 841 q 176 859 193 859 q 177 880 174 865 q 184 898 180 895 q 307 892 263 892 q 416 898 359 892 q 454 683 420 861 q 520 347 488 505 q 552 189 553 189 q 628 326 552 189 q 781 598 704 461 l 857 735 l 944 898 q 1039 892 1023 892 q 1164 898 1099 892 l 1161 859 q 1108 851 1143 859 q 1066 834 1072 843 q 1050 783 1055 814 l 947 190 q 937 58 930 99 q 970 41 939 46 q 1020 35 1001 35 q 1021 13 1023 25 q 1016 -4 1019 0 q 867 3 890 3 q 713 -4 859 3 q 714 13 712 -1 q 722 35 717 28 q 766 40 736 35 q 807 50 795 44 q 829 107 818 56 q 848 220 831 115 q 892 496 865 325 q 936 768 920 667 l 538 66 z "},"N":{"ha":993,"x_min":-19,"x_max":1056,"o":"m 852 734 q 856 831 865 805 q 819 851 851 844 q 765 859 787 859 q 764 879 762 866 q 769 898 766 892 q 907 892 869 892 q 1048 898 932 892 q 1043 859 1056 879 q 987 851 1025 859 q 941 833 949 844 q 925 800 930 818 q 911 741 919 781 l 804 189 q 770 -1 779 58 q 747 -7 765 -7 q 728 2 739 -7 q 711 24 718 11 l 304 772 l 184 156 q 175 99 176 115 q 179 62 174 83 q 217 44 182 53 q 270 35 252 35 q 270 15 273 27 q 264 -4 268 3 q 123 3 139 3 q 77 2 98 3 q 30 -1 56 1 q -16 -4 5 -3 q -17 13 -19 0 q -8 35 -15 25 q 48 43 9 35 q 95 62 87 52 q 126 155 114 88 l 240 743 q 249 801 248 785 q 245 836 250 817 q 208 852 242 846 q 153 859 173 859 q 160 898 147 882 q 275 892 274 892 q 387 898 316 892 q 554 586 408 845 q 751 220 701 328 l 852 734 z "},"O":{"ha":963,"x_min":83,"x_max":911,"o":"m 551 861 q 426 823 487 861 q 316 720 364 785 q 239 561 269 654 q 210 363 210 467 q 217 268 210 313 q 240 177 223 222 q 282 99 256 132 q 349 45 307 66 q 445 24 391 24 q 585 70 520 24 q 692 188 650 115 q 760 351 735 260 q 784 533 784 441 q 778 618 784 576 q 756 705 772 659 q 715 784 741 750 q 648 839 690 817 q 551 861 606 861 m 563 902 q 747 851 667 902 q 869 713 827 800 q 911 518 911 627 q 873 301 911 402 q 770 132 835 201 q 617 24 705 63 q 433 -15 530 -15 q 245 37 326 -15 q 124 176 165 89 q 83 370 83 262 q 123 585 83 484 q 230 754 163 685 q 384 862 296 823 q 563 902 471 902 z "},"P":{"ha":693,"x_min":-12,"x_max":709,"o":"m 709 689 q 664 533 709 604 q 547 422 620 463 q 393 382 475 382 q 356 387 373 382 q 332 396 338 391 q 321 418 321 407 q 327 423 321 420 q 372 418 338 418 q 448 436 410 418 q 517 487 486 454 q 568 567 549 519 q 588 670 588 615 q 431 854 588 854 q 366 841 374 854 q 340 739 358 827 l 226 157 q 214 57 211 77 q 246 41 214 47 q 296 35 277 35 q 297 16 300 31 q 288 -4 294 1 q 142 3 159 3 q -7 -4 125 3 q -9 16 -12 1 q -1 35 -6 30 q 53 41 18 35 q 92 57 87 47 q 117 157 101 76 l 230 736 q 242 837 245 812 q 210 852 241 846 q 159 859 178 859 q 159 878 156 863 q 168 898 161 893 q 318 891 296 891 q 381 892 339 891 q 464 894 423 894 q 641 838 572 894 q 709 689 709 781 z "},"Q":{"ha":963,"x_min":83,"x_max":929,"o":"m 563 902 q 747 851 667 902 q 869 713 827 800 q 911 518 911 627 q 882 325 911 416 q 800 167 852 234 q 676 55 747 100 q 524 -6 606 10 q 586 -45 547 -20 q 645 -81 626 -71 q 699 -100 663 -91 q 779 -110 735 -110 q 903 -92 842 -110 q 920 -99 910 -92 q 929 -110 929 -106 q 690 -184 783 -184 q 596 -162 645 -184 q 509 -111 547 -140 q 415 -47 471 -82 q 309 5 359 -12 q 143 142 203 43 q 83 370 83 241 q 123 585 83 484 q 230 754 163 685 q 384 862 296 823 q 563 902 471 902 m 551 861 q 426 823 487 861 q 316 720 364 785 q 239 561 269 654 q 210 363 210 467 q 217 268 210 313 q 240 177 223 222 q 282 99 256 132 q 349 45 307 66 q 445 24 391 24 q 585 70 520 24 q 692 188 650 115 q 760 351 735 260 q 784 533 784 441 q 778 618 784 576 q 756 705 772 659 q 715 784 741 750 q 648 839 690 817 q 551 861 606 861 z "},"R":{"ha":785,"x_min":-12,"x_max":761,"o":"m 749 -4 q 597 8 651 -4 q 521 64 543 21 q 378 395 448 208 q 342 411 372 411 l 276 411 l 227 157 q 214 57 212 73 q 246 41 214 47 q 296 35 277 35 q 297 16 300 31 q 288 -4 294 1 q 143 3 159 3 q -7 -4 125 3 q -9 16 -12 1 q -1 35 -6 30 q 53 41 18 35 q 92 57 87 47 q 117 157 101 76 l 230 736 q 242 837 245 812 q 210 852 241 846 q 159 859 178 859 q 159 878 156 863 q 168 898 161 893 q 319 891 296 891 q 399 892 340 891 q 498 894 458 894 q 650 844 589 894 q 711 703 711 793 q 691 611 711 656 q 638 533 671 567 q 567 474 606 499 q 488 434 529 449 q 562 257 519 349 q 631 117 604 165 q 682 57 656 74 q 758 35 708 39 q 757 17 761 31 q 749 -4 753 2 m 284 452 l 352 452 q 434 467 393 452 q 511 511 475 482 q 568 587 546 539 q 590 694 590 635 q 587 733 590 714 q 574 774 585 751 q 548 814 564 798 q 502 843 532 831 q 432 854 472 854 q 366 841 373 854 q 340 739 357 827 l 284 452 z "},"S":{"ha":640,"x_min":43,"x_max":609,"o":"m 423 903 q 478 900 451 903 q 519 893 505 897 q 565 882 533 890 q 609 871 597 873 q 596 772 606 838 q 581 675 587 707 q 567 666 578 666 q 538 675 548 666 q 513 811 544 761 q 412 861 481 861 q 290 812 335 861 q 244 705 244 764 q 252 655 244 679 q 268 614 259 631 q 296 579 277 598 q 327 550 315 559 q 364 521 338 541 q 400 494 390 502 q 437 466 412 485 q 477 436 463 447 q 512 404 491 425 q 543 365 532 383 q 563 319 554 347 q 571 262 571 292 q 543 149 571 201 q 471 62 515 96 q 372 8 427 28 q 262 -11 317 -11 q 62 46 161 -11 q 47 163 51 94 q 46 250 43 232 q 80 258 52 258 q 94 250 90 258 q 100 198 94 226 q 120 140 106 170 q 155 85 134 110 q 208 45 176 61 q 278 30 239 30 q 399 76 349 30 q 450 199 450 122 q 446 244 450 223 q 431 283 442 264 q 412 315 420 302 q 385 345 404 328 q 355 371 366 363 q 321 399 345 380 q 280 430 307 410 q 237 461 253 449 q 200 494 220 473 q 167 534 179 515 q 147 583 155 554 q 138 646 138 612 q 165 751 138 702 q 234 833 192 801 q 326 885 275 866 q 423 903 376 903 z "},"T":{"ha":796,"x_min":80,"x_max":850,"o":"m 746 888 q 787 895 760 888 q 826 909 813 902 q 850 911 842 917 q 838 678 838 762 q 811 669 827 667 q 795 675 797 669 q 774 796 796 751 q 708 841 753 841 l 548 841 l 414 157 q 400 57 397 77 q 432 41 401 47 q 483 35 464 35 q 484 16 486 31 q 476 -4 482 1 q 330 3 347 3 q 179 -4 311 3 q 178 16 175 1 q 187 35 182 30 q 240 41 206 35 q 278 57 274 47 q 304 157 288 76 l 438 841 l 275 841 q 191 796 231 841 q 122 675 151 751 q 103 669 117 669 q 80 678 87 667 q 159 911 119 775 q 186 907 170 917 q 218 895 197 901 q 254 888 239 888 l 746 888 z "},"U":{"ha":897,"x_min":102,"x_max":982,"o":"m 295 891 q 444 898 312 891 q 445 878 448 892 q 436 859 441 864 q 383 852 417 859 q 345 837 349 846 q 319 736 336 818 l 254 401 q 262 163 224 241 q 425 73 307 73 q 517 87 477 73 q 595 135 558 102 q 659 227 631 168 q 704 372 686 286 l 776 739 q 785 796 784 781 q 781 833 787 812 q 746 851 778 842 q 696 860 714 860 q 695 880 693 868 q 701 899 698 892 q 744 897 718 899 q 791 893 770 895 q 837 892 812 892 q 883 893 863 892 q 929 897 904 895 q 975 899 954 899 q 968 860 982 882 q 911 852 951 860 q 864 833 872 844 q 847 800 853 818 q 834 741 842 781 l 762 374 q 629 85 724 176 q 383 -5 535 -5 q 169 92 238 -5 q 132 340 102 187 l 210 736 q 223 837 226 817 q 191 852 222 846 q 140 859 159 859 q 140 878 137 863 q 149 898 142 893 q 295 891 277 891 z "},"V":{"ha":808,"x_min":83,"x_max":925,"o":"m 238 891 q 395 898 267 891 q 393 875 397 891 q 386 859 390 859 q 361 856 377 859 q 325 842 345 853 q 302 814 304 831 q 306 718 296 787 q 334 528 314 662 q 371 285 354 395 q 388 174 387 176 l 694 711 q 730 806 723 760 q 725 832 733 821 q 703 849 717 844 q 677 856 689 854 q 659 859 666 859 q 657 877 654 861 q 665 898 659 893 q 798 891 781 891 q 843 892 824 891 q 883 895 861 893 q 923 898 905 897 q 921 876 925 893 q 913 859 917 859 q 871 850 900 859 q 825 823 843 841 q 736 686 794 792 l 366 43 q 309 -3 340 -3 q 304 1 306 -3 q 302 12 303 5 l 300 19 q 250 339 283 123 q 193 697 217 555 q 161 827 180 781 q 128 850 155 842 q 85 859 102 859 q 85 868 83 859 q 89 887 87 877 q 93 898 92 897 q 140 895 113 897 q 190 892 168 893 q 238 891 212 891 z "},"W":{"ha":1141,"x_min":87,"x_max":1249,"o":"m 233 891 q 387 898 258 891 q 385 875 389 891 q 376 859 380 859 q 352 856 368 859 q 315 842 336 853 q 292 814 295 831 q 294 739 290 804 q 335 196 298 653 l 646 853 q 672 885 655 871 q 701 898 690 898 q 706 894 704 898 q 711 876 708 890 q 790 195 722 760 l 1023 711 q 1056 806 1050 772 q 1050 832 1059 821 q 1026 849 1041 844 q 1000 856 1012 854 q 980 859 987 859 q 979 877 976 861 q 988 898 982 893 q 1122 891 1103 891 q 1167 892 1148 891 q 1207 895 1185 893 q 1247 898 1229 897 q 1245 876 1249 893 q 1238 859 1241 859 q 1198 848 1227 859 q 1149 823 1169 838 q 1084 720 1122 802 l 768 43 q 742 12 760 26 q 711 -3 724 -3 q 706 5 708 -3 q 703 19 703 14 q 677 236 690 132 q 648 469 664 341 q 620 693 631 597 l 311 43 q 286 12 303 26 q 256 -3 268 -3 q 249 5 252 -3 q 246 19 246 14 l 181 722 q 180 741 180 728 q 178 759 179 753 q 177 773 178 764 q 175 788 176 783 q 173 800 174 792 q 169 812 171 808 q 164 822 167 817 q 158 831 161 827 q 126 851 149 843 q 89 859 103 859 q 89 868 87 859 q 93 887 91 877 q 97 898 96 897 q 142 895 118 897 q 187 892 167 893 q 233 891 208 891 z "},"X":{"ha":841,"x_min":-81,"x_max":924,"o":"m 304 891 q 467 898 338 891 q 466 874 469 890 q 458 859 463 859 q 429 856 446 859 q 395 842 413 852 q 374 815 377 831 q 380 774 370 800 l 481 532 q 714 803 690 767 q 725 825 724 817 q 720 837 726 830 q 694 850 715 844 q 642 857 674 857 q 641 874 638 859 q 648 897 644 889 q 782 890 731 890 q 922 897 844 890 q 921 877 924 891 q 911 857 918 863 q 885 854 901 857 q 839 838 868 852 q 789 803 809 825 l 500 490 l 667 90 q 711 49 678 62 q 779 35 743 35 q 778 16 782 31 q 772 -4 774 0 q 731 -1 755 -3 q 687 2 707 1 q 645 3 668 3 q 459 -4 635 3 q 458 18 455 1 q 466 35 461 35 q 513 46 483 35 q 547 73 544 56 q 545 90 549 77 l 414 407 q 260 229 349 334 q 144 90 172 123 q 134 68 136 79 q 140 56 133 62 q 169 42 147 49 q 223 35 191 35 q 223 15 226 30 q 218 -4 220 0 q 77 3 102 3 q -79 -4 50 3 q -77 16 -81 1 q -70 35 -73 31 q -38 38 -58 35 q 16 54 -18 41 q 71 90 51 68 l 393 450 l 272 743 q 244 801 258 781 q 207 837 230 821 q 173 852 193 846 q 140 859 153 859 q 138 867 138 860 q 141 885 138 875 q 149 898 144 895 q 199 895 170 897 q 253 892 229 893 q 304 891 277 891 z "},"Y":{"ha":754,"x_min":77,"x_max":861,"o":"m 286 157 l 326 362 q 324 400 329 385 l 212 743 q 185 800 200 780 q 146 837 171 820 q 113 852 133 846 q 80 859 93 859 q 77 867 77 860 q 81 885 77 875 q 88 898 84 895 q 139 895 109 897 q 193 892 169 893 q 244 891 216 891 q 407 898 278 891 q 405 874 408 890 q 397 859 402 859 q 369 856 385 859 q 335 842 353 852 q 313 815 317 831 q 320 774 311 805 l 429 448 q 571 655 493 538 q 667 803 650 772 q 675 823 673 812 q 670 836 676 829 q 643 850 664 843 q 590 857 622 857 q 590 877 587 861 q 595 897 592 892 q 722 890 711 890 q 772 891 751 890 q 819 894 794 892 q 861 897 844 896 q 857 874 861 892 q 850 857 853 857 q 832 856 842 857 q 803 851 823 855 q 763 834 783 846 q 730 803 743 822 l 452 408 q 445 395 447 401 q 440 378 442 389 q 438 366 438 367 l 396 157 q 382 57 380 77 q 415 41 383 47 q 465 35 446 35 q 467 16 469 31 q 458 -4 465 1 q 312 3 330 3 q 161 -4 294 3 q 161 16 157 1 q 170 35 164 30 q 222 41 189 35 q 260 57 256 47 q 286 157 270 76 z "},"Z":{"ha":817,"x_min":-18,"x_max":844,"o":"m 379 853 q 262 803 317 852 q 170 667 208 753 q 155 662 167 662 q 137 666 147 662 q 124 673 126 669 q 211 907 168 753 q 313 897 279 897 l 558 897 q 825 910 647 897 q 837 898 830 909 q 842 880 844 888 q 726 737 840 874 q 441 395 613 600 q 140 43 269 191 l 471 43 q 620 116 553 43 q 696 233 652 151 q 714 237 699 237 q 743 225 734 237 q 644 0 679 92 l 6 0 q -11 6 -4 0 q -13 19 -18 13 l 690 854 l 379 853 z "},"[":{"ha":502,"x_min":203,"x_max":441,"o":"m 229 986 q 437 994 229 986 q 440 987 437 994 q 441 982 441 984 q 429 961 441 967 q 427 960 428 960 q 269 929 376 943 l 269 -471 q 359 -485 269 -471 q 427 -502 404 -494 q 441 -524 441 -509 q 439 -530 441 -528 q 438 -534 439 -530 l 437 -536 l 315 -529 q 229 -528 270 -528 q 203 -496 207 -525 l 203 955 q 216 983 203 975 q 229 986 222 986 z "},"\\":{"ha":479,"x_min":42,"x_max":458,"o":"m 60 975 q 87 971 75 975 q 107 962 100 966 q 114 955 113 958 l 458 -249 l 456 -251 q 448 -256 454 -254 q 433 -258 442 -258 q 399 -248 413 -259 q 380 -227 383 -237 l 42 963 q 60 975 46 975 z "},"]":{"ha":502,"x_min":61,"x_max":298,"o":"m 273 986 q 286 983 280 986 q 298 955 298 975 l 298 -496 q 273 -528 295 -525 q 187 -529 232 -528 l 65 -536 l 64 -534 l 62 -530 q 61 -524 61 -528 q 75 -502 61 -509 q 142 -485 98 -494 l 233 -471 l 233 929 q 75 960 126 943 q 73 961 74 960 q 61 982 61 967 q 62 987 61 984 l 65 994 l 273 986 z "},"^":{"ha":529,"x_min":83,"x_max":422,"o":"m 252 875 q 274 857 265 875 q 320 770 298 809 q 373 679 342 732 q 422 595 404 626 q 415 580 422 586 q 401 574 408 574 q 336 647 374 603 q 275 720 298 690 l 252 749 q 104 574 167 639 q 90 580 98 574 q 83 595 83 586 q 132 680 102 629 q 185 769 162 730 q 232 857 208 809 q 252 875 241 875 z "},"_":{"ha":644,"x_min":-53,"x_max":549,"o":"m -53 -50 q -40 -13 -53 -43 q -20 18 -28 18 l 541 18 q 549 12 549 18 q 525 -50 549 3 q 521 -56 523 -54 q 518 -58 519 -58 l 517 -58 l -46 -58 q -53 -50 -53 -58 z "},"`":{"ha":273,"x_min":27,"x_max":259,"o":"m 248 665 q 129 724 230 665 q 27 802 27 784 q 45 832 27 823 q 80 842 62 842 q 130 829 111 842 q 202 752 144 819 q 259 678 259 686 q 255 670 259 675 q 248 665 251 665 z "},"a":{"ha":609,"x_min":26,"x_max":553,"o":"m 414 590 q 519 572 471 590 l 437 144 q 433 125 435 136 q 431 99 431 113 q 434 76 430 85 q 445 66 437 66 q 461 72 452 66 q 481 86 471 78 q 502 104 491 94 q 519 123 512 115 q 533 138 526 132 l 540 145 q 548 135 543 145 q 553 119 553 125 q 477 41 536 91 q 376 -8 418 -8 q 342 12 355 -8 q 330 62 330 31 q 339 134 330 84 q 346 176 345 167 q 314 126 334 154 q 266 67 294 99 q 207 14 239 35 q 146 -7 174 -7 q 59 37 92 -7 q 26 153 26 81 q 63 320 26 238 q 158 461 100 403 q 283 554 215 519 q 414 590 352 590 m 351 536 q 248 486 300 536 q 160 358 195 436 q 126 205 126 281 q 195 72 126 72 q 268 120 228 72 q 340 237 309 168 q 385 372 372 307 l 414 515 q 386 530 406 525 q 351 536 367 536 z "},"b":{"ha":582,"x_min":58,"x_max":526,"o":"m 373 515 q 319 489 351 515 q 255 420 287 462 q 197 322 224 378 q 160 212 170 265 q 159 83 143 129 q 222 37 175 37 q 302 79 262 37 q 367 182 341 122 q 410 304 393 242 q 426 410 426 367 q 424 448 426 432 q 417 481 422 464 q 401 507 412 498 q 373 515 390 515 m 194 387 q 264 485 228 443 q 333 548 301 527 q 389 580 364 570 q 431 590 413 590 q 502 549 477 590 q 526 437 526 508 q 493 265 526 349 q 410 122 460 181 q 299 28 359 64 q 184 -8 239 -8 q 93 34 127 -8 q 58 151 58 76 q 66 214 58 165 l 174 758 q 186 830 186 813 q 103 856 186 856 q 102 870 100 860 q 109 884 104 880 q 288 929 183 891 q 296 903 296 924 q 278 802 296 890 l 194 387 z "},"c":{"ha":487,"x_min":33,"x_max":469,"o":"m 373 590 q 457 556 417 590 q 469 519 469 540 q 457 476 469 494 q 423 458 446 458 q 395 466 409 458 q 374 486 381 473 q 358 509 365 500 q 337 526 352 517 q 304 534 322 534 q 247 510 276 534 q 193 446 217 486 q 154 345 169 405 q 138 220 138 286 q 141 176 138 197 q 153 129 144 155 q 182 87 161 103 q 232 72 202 72 q 255 76 243 72 q 279 86 268 80 q 302 101 290 92 q 323 117 314 109 q 342 134 332 125 q 357 149 351 143 q 367 160 362 155 l 372 165 q 381 155 375 165 q 388 138 388 144 q 361 104 381 127 q 313 56 341 82 q 249 11 284 30 q 183 -8 213 -8 q 72 43 111 -8 q 33 190 33 95 q 66 343 33 268 q 150 472 100 419 q 261 557 201 525 q 373 590 321 590 z "},"d":{"ha":609,"x_min":26,"x_max":582,"o":"m 401 463 q 393 512 406 488 q 354 536 380 536 q 247 486 300 536 q 160 358 193 435 q 126 203 126 280 q 143 107 126 143 q 195 72 159 72 q 269 120 229 72 q 341 238 309 168 q 385 374 372 309 l 401 463 m 460 758 q 465 783 461 766 q 470 811 468 800 q 472 830 472 823 q 389 856 472 856 q 389 870 387 860 q 395 884 391 880 q 574 929 469 891 q 582 903 582 924 q 564 802 582 890 l 437 144 q 431 99 431 122 q 445 66 431 66 q 461 72 452 66 q 481 86 471 78 q 502 104 491 94 q 519 123 512 115 q 533 138 526 132 l 540 145 q 548 135 543 145 q 553 119 553 125 q 477 41 536 91 q 376 -8 418 -8 q 342 12 355 -8 q 330 62 330 31 q 339 134 330 84 q 346 176 342 146 q 303 111 332 150 q 229 32 275 71 q 145 -7 182 -7 q 56 42 87 -7 q 26 157 26 91 q 85 362 26 260 q 234 527 144 464 q 411 590 324 590 l 414 590 l 418 590 l 422 590 l 429 590 l 460 758 z "},"e":{"ha":492,"x_min":31,"x_max":461,"o":"m 372 590 q 440 566 419 590 q 461 506 461 541 q 423 413 461 460 q 332 335 385 367 q 225 282 279 302 q 140 262 172 262 q 137 218 137 254 q 160 112 137 152 q 231 72 182 72 q 254 76 241 72 q 278 86 267 80 q 301 101 289 92 q 322 117 313 109 q 340 134 331 125 q 355 149 350 143 q 366 160 361 155 l 370 165 q 380 155 374 165 q 387 138 387 144 q 358 102 378 125 q 309 54 338 80 q 245 10 281 28 q 180 -8 210 -8 q 70 43 109 -8 q 31 189 31 94 q 63 335 31 261 q 143 465 94 410 q 253 555 191 520 q 372 590 314 590 m 142 296 q 199 311 163 296 q 271 350 235 326 q 334 409 308 374 q 361 480 361 445 q 343 520 361 506 q 304 534 326 534 q 240 507 271 534 q 190 441 210 480 q 158 363 170 401 q 142 296 145 324 z "},"f":{"ha":401,"x_min":-168,"x_max":529,"o":"m 456 929 q 529 895 511 929 q 529 889 529 893 q 528 883 528 885 q 516 838 526 857 q 488 819 507 819 q 468 824 477 819 q 452 834 458 829 q 437 850 447 840 q 397 871 416 871 q 334 802 359 871 q 275 560 309 733 l 411 560 q 418 544 418 560 q 406 510 418 530 l 266 510 q 186 58 218 229 q 72 -210 154 -104 q -95 -316 -11 -316 q -168 -282 -150 -316 q -167 -260 -168 -275 q -127 -206 -159 -206 q -107 -211 -117 -206 q -92 -221 -97 -216 q -76 -237 -86 -227 q -37 -258 -56 -258 q 26 -189 1 -258 q 85 53 52 -120 l 167 510 l 52 510 q 49 514 49 510 q 69 543 49 526 q 111 560 90 560 l 175 560 q 289 825 207 722 q 456 929 371 929 z "},"g":{"ha":559,"x_min":-65,"x_max":567,"o":"m 377 -160 q 362 -114 377 -136 q 329 -77 348 -92 q 278 -47 309 -62 q 225 -25 246 -33 q 172 -8 203 -18 q 137 -24 153 -16 q 101 -46 121 -33 q 67 -73 81 -59 q 45 -107 54 -87 q 35 -149 35 -127 q 229 -269 35 -269 q 336 -237 295 -269 q 377 -160 377 -205 m 288 552 q 215 517 247 552 q 169 433 184 481 q 155 335 155 385 q 176 243 155 281 q 239 205 198 205 q 311 236 280 205 q 356 311 342 268 q 370 399 370 354 q 347 503 370 454 q 288 552 324 552 m 452 517 q 457 498 452 515 q 466 460 462 481 q 471 423 471 439 q 460 346 471 382 q 435 286 450 309 q 402 242 421 262 q 371 213 382 222 q 347 197 359 203 q 288 170 330 186 q 219 139 246 154 q 191 111 191 125 q 219 87 191 100 q 288 61 248 75 q 368 27 328 46 q 436 -27 408 7 q 464 -106 464 -62 q 378 -259 464 -202 q 146 -316 292 -316 q -6 -280 53 -316 q -65 -183 -65 -245 q -52 -131 -65 -156 q -20 -86 -39 -105 q 27 -48 -1 -67 q 78 -17 56 -29 q 130 8 101 -5 l 106 24 q 72 73 72 47 q 120 126 72 96 q 208 165 168 156 q 165 176 190 165 q 115 204 140 186 q 72 254 90 222 q 54 324 54 286 q 92 460 54 398 q 189 557 130 523 q 311 591 248 591 q 357 587 335 591 q 392 577 378 582 q 426 562 405 572 q 451 562 434 557 q 487 574 468 566 q 511 582 505 581 q 547 562 527 577 q 567 534 567 547 q 563 521 567 527 q 551 515 558 515 q 505 516 548 515 q 452 517 462 517 z "},"h":{"ha":637,"x_min":30,"x_max":585,"o":"m 281 802 l 212 448 l 187 323 q 213 364 193 335 q 264 432 233 393 q 329 506 296 471 q 397 566 361 541 q 457 590 432 590 q 513 566 495 590 q 532 500 532 541 q 513 353 532 443 l 468 144 q 463 100 463 122 q 476 66 463 66 q 493 72 483 66 q 512 86 503 78 q 533 104 522 94 q 551 123 543 115 q 564 138 557 132 l 571 145 q 579 135 574 145 q 585 119 585 125 q 508 41 568 91 q 407 -8 449 -8 q 373 12 385 -8 q 361 62 361 31 q 370 134 361 94 l 418 358 q 427 431 427 401 q 422 475 427 460 q 401 490 417 490 q 347 460 383 490 q 274 386 311 431 q 203 279 236 340 q 159 161 170 218 q 125 0 149 112 q 76 -5 106 -5 q 30 0 52 -5 l 176 758 q 181 783 178 766 q 186 811 184 800 q 189 830 189 823 q 106 856 189 856 q 105 870 103 860 q 111 884 107 880 q 290 929 186 891 q 298 903 298 924 q 281 802 298 890 z "},"i":{"ha":355,"x_min":34,"x_max":296,"o":"m 151 438 q 156 481 156 471 q 142 515 156 515 q 126 510 136 515 q 106 496 116 504 q 86 477 96 488 q 68 459 75 467 q 54 444 61 450 l 47 437 q 39 447 44 437 q 34 463 34 456 q 107 541 52 492 q 205 590 163 590 q 242 570 227 590 q 258 519 258 549 q 248 448 258 498 l 179 144 q 174 100 174 117 q 187 66 174 66 q 204 72 194 66 q 223 86 214 78 q 244 104 233 94 q 262 123 254 115 q 275 138 269 132 l 282 145 q 291 135 286 145 q 296 119 296 125 q 219 41 279 91 q 118 -8 160 -8 q 84 12 97 -8 q 72 62 72 31 q 81 134 72 84 l 151 438 m 228 876 q 263 860 249 876 q 277 822 277 844 q 255 765 277 789 q 203 741 234 741 q 170 758 182 741 q 157 799 157 775 q 178 853 157 830 q 228 876 198 876 z "},"j":{"ha":338,"x_min":-115,"x_max":300,"o":"m 159 438 q 164 481 164 471 q 151 515 164 515 q 134 510 144 515 q 114 496 124 504 q 94 477 104 488 q 76 459 83 467 q 62 444 69 450 l 56 437 q 47 447 52 437 q 42 463 42 456 q 116 541 60 492 q 213 590 172 590 q 250 570 235 590 q 266 519 266 549 q 256 448 266 498 l 182 61 q 148 -53 172 10 q 85 -168 124 -117 q -8 -261 46 -220 q -103 -319 -62 -302 q -111 -307 -107 -315 q -115 -292 -115 -298 q 4 -168 -47 -253 q 77 30 55 -83 l 159 438 m 251 876 q 286 860 272 876 q 300 822 300 844 q 278 765 300 789 q 227 741 257 741 q 193 758 205 741 q 180 799 180 775 q 201 853 180 830 q 251 876 221 876 z "},"k":{"ha":624,"x_min":30,"x_max":575,"o":"m 441 590 q 512 563 481 590 q 543 498 543 536 q 519 416 543 453 q 455 355 496 380 q 365 313 414 330 q 256 286 316 296 q 387 111 346 153 q 469 69 427 69 q 515 97 484 69 q 562 145 545 124 q 570 135 564 145 q 575 119 575 125 q 505 44 561 94 q 410 -5 448 -5 q 359 8 384 -5 q 315 41 334 22 q 274 91 296 60 q 239 146 253 122 q 206 207 226 171 q 176 259 186 242 l 126 0 q 79 -7 101 -7 q 30 0 57 -7 l 178 758 q 190 830 190 813 q 107 856 190 856 q 106 870 104 860 q 113 884 109 880 q 292 929 187 891 q 300 903 300 924 q 282 802 300 890 l 212 437 l 227 454 q 262 493 241 472 q 311 537 283 515 q 373 575 338 560 q 441 590 408 590 m 392 526 q 268 452 336 526 q 187 312 200 378 q 248 318 216 312 q 314 339 281 325 q 375 372 348 353 q 419 419 402 391 q 437 480 437 448 q 427 514 437 502 q 392 526 418 526 z "},"l":{"ha":330,"x_min":50,"x_max":304,"o":"m 182 758 q 194 830 194 813 q 111 856 194 856 q 111 870 109 860 q 117 884 113 880 q 296 929 191 891 q 304 903 304 924 q 286 802 304 890 l 157 144 q 152 100 152 122 q 165 66 152 66 q 182 72 172 66 q 202 86 192 78 q 222 104 212 94 q 240 123 233 115 q 254 138 247 132 l 260 145 q 269 135 264 145 q 274 119 274 125 q 198 41 257 91 q 96 -8 138 -8 q 62 12 75 -8 q 50 62 50 31 q 60 134 50 84 l 182 758 z "},"m":{"ha":968,"x_min":30,"x_max":916,"o":"m 701 134 l 749 358 q 758 431 758 401 q 754 476 758 463 q 732 490 749 490 q 654 441 705 490 q 556 318 603 393 q 496 179 509 243 l 463 0 q 412 -4 434 -4 q 365 0 391 -4 l 441 385 q 446 437 446 414 q 419 490 446 490 q 339 436 389 490 q 244 306 289 383 q 187 165 200 228 l 153 0 q 104 -5 134 -5 q 57 0 90 -5 l 146 438 q 152 481 152 471 q 138 515 152 515 q 122 510 132 515 q 102 496 112 504 q 82 477 92 488 q 64 459 71 467 q 50 444 57 450 l 43 437 q 35 447 40 437 q 30 463 30 456 q 103 541 47 492 q 201 590 159 590 q 238 570 222 590 q 254 519 254 549 q 243 448 254 505 q 216 321 237 415 q 284 430 246 374 q 374 538 323 486 q 457 590 425 590 q 548 461 548 590 q 542 398 548 437 q 529 340 535 358 q 652 505 574 419 q 779 590 731 590 q 843 567 823 590 q 863 500 863 545 q 844 353 863 439 l 799 144 q 793 100 793 117 q 807 66 793 66 q 824 72 814 66 q 843 86 833 78 q 864 104 853 94 q 882 123 874 115 q 895 138 888 132 l 902 145 q 910 135 905 145 q 916 119 916 125 q 839 41 899 91 q 738 -8 780 -8 q 704 12 717 -8 q 692 62 692 31 q 701 134 692 84 z "},"n":{"ha":674,"x_min":30,"x_max":621,"o":"m 243 448 l 218 334 q 244 373 224 346 q 294 438 263 401 q 356 510 324 476 q 424 567 389 543 q 484 590 458 590 q 549 567 529 590 q 568 500 568 545 q 549 353 568 445 l 505 144 q 499 100 499 117 q 513 66 499 66 q 529 72 519 66 q 549 86 539 78 q 569 104 559 94 q 587 123 580 115 q 601 138 594 132 l 608 145 q 616 135 611 145 q 621 119 621 125 q 545 41 604 91 q 444 -8 486 -8 q 410 12 422 -8 q 397 62 397 31 q 407 134 397 84 l 454 358 q 464 431 464 401 q 459 476 464 463 q 438 490 455 490 q 382 462 419 490 q 306 392 345 435 q 233 287 267 349 q 187 165 199 225 q 153 0 182 138 q 104 -5 132 -5 q 57 0 79 -5 l 146 438 q 152 481 152 471 q 138 515 152 515 q 122 510 132 515 q 102 496 112 504 q 82 477 92 488 q 64 459 71 467 q 50 444 57 450 l 43 437 q 35 447 40 437 q 30 463 30 456 q 103 541 47 492 q 201 590 159 590 q 238 570 222 590 q 254 519 254 549 q 243 448 254 493 z "},"o":{"ha":562,"x_min":33,"x_max":499,"o":"m 321 547 q 245 514 281 547 q 187 431 210 481 q 151 324 164 381 q 138 214 138 267 q 159 84 138 132 q 216 37 179 37 q 291 70 256 37 q 347 153 326 102 q 381 261 369 203 q 393 370 393 318 q 375 500 393 454 q 321 547 357 547 m 340 590 q 459 536 419 590 q 499 391 499 482 q 472 249 499 321 q 403 120 446 176 q 304 29 361 64 q 190 -7 247 -7 q 72 45 111 -7 q 33 187 33 96 q 59 330 33 257 q 128 460 85 403 q 227 553 170 517 q 340 590 283 590 z "},"p":{"ha":608,"x_min":-75,"x_max":553,"o":"m 380 515 q 298 481 348 515 q 220 407 249 447 l 176 178 q 186 81 165 121 q 239 41 207 41 q 345 100 294 41 q 424 244 395 159 q 452 411 452 330 q 380 515 452 515 m 435 590 q 553 426 553 590 q 502 222 553 323 q 372 57 452 121 q 211 -7 292 -7 q 149 11 159 -7 l 104 -197 q 100 -235 100 -215 q 105 -253 100 -242 q 119 -266 110 -263 q 182 -270 136 -270 q 185 -288 186 -271 q 178 -308 183 -306 q 154 -307 170 -308 q 131 -307 138 -307 q -70 -319 31 -307 q -74 -300 -75 -317 q -68 -279 -74 -283 q -14 -258 -32 -279 q 7 -199 -2 -241 l 115 339 l 50 274 q 41 301 41 284 q 45 311 41 307 l 125 396 l 161 587 q 212 593 180 593 q 256 583 237 593 q 234 469 239 503 q 435 590 364 590 z "},"q":{"ha":578,"x_min":26,"x_max":518,"o":"m 430 -309 q 402 -309 420 -309 q 376 -308 385 -308 q 172 -319 273 -308 q 170 -299 170 -317 q 176 -282 171 -282 q 269 -232 260 -273 l 345 176 q 312 126 332 154 q 265 67 292 99 q 205 14 237 35 q 145 -7 173 -7 q 56 42 87 -7 q 26 157 26 91 q 85 362 26 260 q 234 527 144 464 q 411 590 324 590 q 518 572 470 590 l 435 144 l 373 -203 q 370 -232 370 -225 q 372 -247 370 -241 q 379 -259 374 -252 q 398 -269 385 -266 q 433 -273 412 -273 q 436 -281 435 -273 q 435 -298 437 -289 q 430 -309 433 -307 m 401 463 q 393 512 406 488 q 354 536 380 536 q 247 486 300 536 q 160 358 193 435 q 126 203 126 280 q 143 107 126 143 q 195 72 159 72 q 269 120 229 72 q 341 238 309 168 q 385 374 372 309 l 401 463 z "},"r":{"ha":483,"x_min":28,"x_max":495,"o":"m 416 590 q 483 562 457 590 q 495 524 495 547 q 482 480 495 496 q 446 464 469 464 q 406 484 424 464 q 378 495 397 495 q 315 443 355 495 q 238 312 275 391 q 190 165 202 233 l 160 0 q 114 -4 138 -4 q 64 0 88 -4 l 145 438 q 151 481 151 471 q 137 515 151 515 q 120 510 130 515 q 101 496 111 504 q 80 477 91 488 q 62 459 70 467 q 49 444 56 450 l 42 437 q 34 447 39 437 q 28 463 28 456 q 102 541 46 492 q 199 590 158 590 q 237 570 221 590 q 252 519 252 549 q 241 448 252 505 q 218 334 235 411 q 272 441 239 385 q 346 544 304 497 q 416 590 387 590 z "},"s":{"ha":437,"x_min":3,"x_max":400,"o":"m 270 594 q 387 557 344 594 q 396 536 391 551 q 400 514 400 522 q 387 474 400 490 q 354 458 374 458 q 290 506 325 458 q 285 514 290 507 q 279 522 281 520 q 274 529 278 524 q 268 535 270 534 q 260 540 265 537 q 251 545 255 543 q 240 547 246 546 q 227 548 234 548 q 177 523 195 548 q 160 472 160 498 q 164 442 160 456 q 180 411 168 428 q 199 385 193 393 q 225 355 205 377 q 250 328 245 333 q 311 243 289 282 q 332 159 332 204 q 277 38 332 84 q 136 -8 222 -8 q 16 33 64 -8 q 3 73 3 55 q 17 119 3 102 q 53 136 32 136 q 71 130 62 136 q 84 116 79 123 q 98 95 89 109 q 111 75 106 81 q 183 35 140 35 q 234 60 219 35 q 250 114 250 85 q 248 128 250 121 q 246 141 247 135 q 241 154 245 146 q 235 166 237 162 q 228 179 233 171 q 219 191 222 187 q 210 203 217 194 q 200 215 202 212 q 189 227 198 217 q 179 239 180 237 q 142 280 154 267 q 114 320 131 294 q 89 371 96 346 q 81 423 81 395 q 135 539 81 485 q 270 594 189 594 z "},"t":{"ha":377,"x_min":56,"x_max":363,"o":"m 159 560 l 174 640 q 222 695 190 661 q 262 730 254 730 q 285 722 274 730 l 255 560 l 357 560 q 363 544 363 560 q 351 510 363 530 l 245 510 l 174 144 q 168 100 168 117 q 182 66 168 66 q 198 72 189 66 q 218 86 208 78 q 238 104 228 94 q 256 123 249 115 q 270 138 263 132 l 277 145 q 285 135 280 145 q 290 119 290 125 q 214 41 273 91 q 113 -8 155 -8 q 79 12 92 -8 q 66 62 66 31 q 76 134 66 84 l 149 510 l 58 510 q 56 514 56 510 q 76 543 56 526 q 118 560 96 560 l 159 560 z "},"u":{"ha":666,"x_min":27,"x_max":610,"o":"m 396 134 q 404 173 399 155 q 412 214 408 191 q 420 252 417 236 q 355 152 401 211 q 249 42 309 92 q 148 -8 189 -8 q 80 90 80 -8 q 99 229 80 138 l 144 438 q 149 481 149 471 q 136 515 149 515 q 119 510 129 515 q 99 496 109 504 q 79 477 90 488 q 61 459 68 467 q 47 444 54 450 l 41 437 q 32 447 37 437 q 27 463 27 456 q 101 541 45 492 q 198 590 157 590 q 235 570 220 590 q 251 519 251 549 q 241 448 251 498 l 194 224 q 184 151 184 181 q 190 107 184 122 q 210 92 195 92 q 264 122 229 92 q 337 198 300 152 q 408 309 375 244 q 453 433 441 373 q 467 504 458 456 q 483 582 477 551 q 525 587 501 587 q 578 582 556 587 l 494 144 q 488 100 488 117 q 502 66 488 66 q 518 72 509 66 q 538 86 528 78 q 558 104 548 94 q 576 123 569 115 q 590 138 583 132 l 597 145 q 605 135 600 145 q 610 119 610 125 q 534 41 593 91 q 433 -8 475 -8 q 399 12 412 -8 q 387 62 387 31 q 396 134 387 84 z "},"v":{"ha":595,"x_min":23,"x_max":563,"o":"m 252 88 q 356 193 321 147 q 426 307 392 239 q 451 381 443 340 q 460 452 460 423 q 425 537 460 502 q 449 574 432 557 q 488 590 466 590 q 544 561 526 590 q 563 481 563 531 q 512 334 563 421 q 395 172 462 246 q 259 45 328 98 q 156 -8 191 -8 q 145 201 145 4 l 145 481 q 132 515 145 515 q 115 510 125 515 q 95 496 105 504 q 75 477 85 488 q 57 459 64 467 q 43 444 50 450 l 37 437 q 28 447 33 437 q 23 463 23 456 q 97 541 41 492 q 194 590 153 590 q 231 569 216 590 q 247 517 247 547 l 247 445 l 247 239 q 252 88 247 126 z "},"w":{"ha":853,"x_min":23,"x_max":818,"o":"m 522 509 q 530 248 527 325 q 551 103 536 127 q 639 198 605 151 q 696 311 673 246 q 715 452 715 362 q 680 537 715 502 q 704 574 687 557 q 743 590 721 590 q 799 561 781 590 q 818 481 818 531 q 775 333 818 420 q 674 172 732 246 q 555 45 616 98 q 460 -8 494 -8 q 444 82 454 -1 q 433 203 434 165 l 430 290 q 156 -8 222 -8 q 145 201 145 4 l 145 481 q 132 515 145 515 q 115 510 125 515 q 95 496 105 504 q 75 477 85 488 q 57 459 64 467 q 43 444 50 450 l 37 437 q 28 447 33 437 q 23 463 23 456 q 97 541 41 492 q 194 590 153 590 q 231 569 216 590 q 247 517 247 547 l 247 445 l 247 239 q 252 122 247 160 q 406 346 321 195 q 464 471 428 387 q 491 493 472 481 q 522 509 509 506 z "},"x":{"ha":654,"x_min":20,"x_max":591,"o":"m 400 121 q 448 71 411 71 q 498 99 463 71 q 547 145 532 127 q 555 135 549 145 q 560 119 560 125 q 490 44 546 94 q 395 -5 433 -5 q 337 26 363 -5 q 301 111 312 58 l 277 228 q 251 174 267 208 q 225 123 234 140 q 203 81 216 106 q 179 43 189 56 q 156 17 169 31 q 129 -1 142 4 q 99 -7 115 -7 q 35 9 61 -7 q 20 56 20 29 q 34 98 20 81 q 71 115 47 115 q 101 96 84 115 q 133 76 119 77 q 174 107 155 75 q 267 277 222 188 l 229 464 q 186 515 218 515 q 133 487 168 515 q 83 439 98 459 q 75 450 80 439 q 69 465 69 460 q 140 540 83 490 q 235 590 196 590 q 292 559 267 590 q 328 473 317 528 l 347 381 q 363 413 353 392 q 392 472 382 453 q 419 519 402 492 q 448 559 435 547 q 477 581 460 571 q 513 590 494 590 q 576 574 551 590 q 591 528 591 554 q 578 485 591 503 q 541 468 564 468 q 510 487 528 468 q 479 507 493 506 q 438 476 457 509 q 357 331 389 391 l 400 121 z "},"y":{"ha":606,"x_min":-151,"x_max":549,"o":"m 179 590 q 218 569 200 590 q 247 512 235 549 q 269 432 259 475 q 283 336 278 389 q 292 237 289 282 q 297 144 296 193 q 299 69 299 95 q 300 20 300 43 q 346 83 322 47 q 395 169 369 119 q 439 277 422 219 q 456 387 456 334 q 450 455 456 425 q 438 498 444 486 q 422 532 433 511 q 448 574 430 559 q 490 590 466 590 q 549 483 549 590 q 516 314 549 406 q 430 134 483 221 q 309 -35 376 47 q 173 -180 241 -118 q 40 -279 104 -241 q -69 -316 -24 -316 q -128 -300 -105 -316 q -151 -260 -151 -283 q -142 -225 -151 -242 q -119 -201 -134 -209 q -69 -218 -104 -210 q -11 -227 -33 -227 q 174 -114 96 -227 q 188 -83 182 -101 q 196 -39 194 -65 q 198 1 198 -14 q 198 47 199 15 q 198 84 198 79 q 194 218 198 151 q 182 356 191 286 q 157 471 174 427 q 117 515 140 515 q 100 510 110 515 q 80 496 90 504 q 60 477 71 488 q 42 459 50 467 q 28 444 35 450 l 22 437 q 13 447 18 437 q 8 463 8 456 q 82 541 26 492 q 179 590 138 590 z "},"z":{"ha":525,"x_min":-14,"x_max":514,"o":"m 197 590 q 219 589 208 590 q 241 584 229 587 q 260 578 253 581 q 282 570 268 576 q 301 563 296 565 q 377 548 343 548 q 453 569 407 548 q 499 590 498 590 q 514 563 514 583 q 454 487 514 556 q 321 339 393 418 q 187 193 249 260 q 125 125 125 125 q 187 140 155 140 q 271 117 222 140 q 286 110 274 115 q 302 103 298 105 q 315 99 307 102 q 331 95 324 96 q 343 94 337 94 q 369 107 355 94 q 392 134 383 120 q 411 165 401 148 q 422 184 421 183 q 438 163 435 184 q 414 115 427 138 q 383 63 402 92 q 341 17 363 35 q 296 0 318 0 q 187 30 264 0 q 91 43 151 43 q 58 36 73 43 q 26 16 43 28 q 1 0 10 4 q -14 26 -11 4 q 88 146 -14 35 q 293 368 190 258 q 396 479 395 477 q 311 450 353 450 q 228 473 283 450 q 155 496 179 496 q 127 483 142 496 q 103 455 113 470 q 85 423 94 441 q 75 404 75 406 q 58 426 61 404 q 75 463 62 438 q 107 518 88 488 q 150 569 125 547 q 197 590 175 590 z "},"{":{"ha":552,"x_min":197,"x_max":375,"o":"m 264 -312 q 353 -515 258 -411 q 351 -547 365 -532 q 318 -548 335 -562 q 207 -279 210 -456 q 246 -92 205 -199 q 290 52 284 10 q 197 209 302 145 l 197 252 q 290 409 303 316 q 246 553 284 452 q 207 740 206 661 q 318 1008 210 917 q 351 1008 335 1023 q 352 975 365 991 q 264 772 258 871 q 307 653 267 719 q 355 411 375 538 q 252 231 336 289 q 355 50 336 171 q 307 -192 375 -78 q 264 -312 267 -258 z "},"|":{"ha":278,"x_min":104,"x_max":174,"o":"m 174 -512 q 117 -534 174 -525 q 112 -535 113 -535 q 104 -530 105 -535 q 105 -527 104 -530 q 105 -524 105 -525 l 105 972 q 106 980 105 972 q 112 983 109 982 q 162 993 143 993 q 173 985 174 992 l 174 -512 z "},"}":{"ha":552,"x_min":177,"x_max":355,"o":"m 288 -312 q 245 -192 285 -258 q 197 50 177 -78 q 300 231 216 171 q 197 411 216 289 q 245 653 177 538 q 288 772 285 719 q 200 975 294 871 q 201 1008 187 991 q 234 1008 217 1023 q 345 740 342 917 q 306 553 346 661 q 262 409 268 452 q 355 252 249 316 l 355 209 q 262 52 250 145 q 306 -92 268 10 q 345 -279 347 -199 q 234 -548 342 -456 q 201 -547 217 -562 q 199 -515 187 -532 q 288 -312 294 -411 z "},"~":{"ha":739,"x_min":80,"x_max":684,"o":"m 267 480 q 345 469 307 480 q 408 444 382 458 q 472 419 434 431 q 549 408 509 408 q 596 418 572 408 q 633 437 621 429 q 675 468 645 445 q 684 454 684 460 q 626 380 684 420 q 500 339 568 339 q 422 350 460 339 q 357 375 384 361 q 293 400 331 389 q 214 411 254 411 q 167 401 191 411 q 131 382 143 391 q 88 351 119 374 q 80 365 80 359 q 111 417 80 390 q 186 463 142 445 q 267 480 231 480 z "},"":{"ha":292,"x_min":72,"x_max":221,"o":"m 93 455 q 83 466 93 455 q 72 507 72 477 q 93 561 72 538 q 145 583 115 583 q 198 561 176 583 q 221 507 221 538 q 198 455 221 477 q 145 434 176 434 q 93 455 115 434 m 140 -302 q 95 -278 111 -302 q 80 -224 80 -254 q 82 -185 80 -213 q 88 -106 84 -158 q 97 1 92 -55 q 111 152 102 57 q 126 335 119 248 q 148 353 134 351 q 167 338 162 347 q 208 -224 208 -130 q 189 -278 208 -254 q 140 -302 170 -302 z "},"":{"ha":486,"x_min":24,"x_max":461,"o":"m 365 590 q 449 556 409 590 q 461 519 461 540 q 449 476 461 494 q 415 458 437 458 q 387 466 401 458 q 366 486 373 473 q 350 509 357 500 q 329 526 344 517 q 296 534 314 534 q 238 510 268 534 q 185 446 209 486 q 145 345 161 405 q 130 220 130 286 q 133 176 130 197 q 145 129 136 155 q 174 87 153 103 q 224 72 194 72 q 247 76 235 72 q 271 86 260 80 q 294 101 282 92 q 315 117 306 109 q 334 134 324 125 q 349 149 343 143 q 359 160 354 155 l 363 165 q 373 155 367 165 q 380 138 380 144 q 353 104 373 127 q 304 56 333 82 q 240 11 276 30 q 175 -8 205 -8 q 64 43 103 -8 q 24 190 24 95 q 58 343 24 268 q 142 472 92 419 q 253 557 193 525 q 365 590 313 590 m 345 643 q 387 632 388 643 l 148 -61 q 132 -60 141 -61 q 114 -56 122 -58 q 106 -49 105 -53 l 345 643 z "},"":{"ha":606,"x_min":-4,"x_max":547,"o":"m 233 336 q 118 119 209 210 q 132 124 125 122 q 149 126 139 125 q 166 126 159 126 q 191 126 173 127 q 220 126 208 126 q 322 104 256 126 q 410 83 388 83 q 448 95 429 83 q 477 119 467 108 q 503 155 486 130 q 521 182 519 179 q 529 175 525 182 q 533 159 533 168 q 530 146 533 152 q 351 -11 446 -11 q 229 14 308 -11 q 121 39 149 39 q 16 -12 77 39 q 1 -3 5 -12 q -3 14 -4 5 q 40 67 14 37 q 76 111 66 98 q 137 321 109 181 q 144 380 140 338 l 68 380 q 91 433 60 401 l 147 433 q 148 434 147 433 q 161 566 153 521 q 272 777 186 693 q 460 861 357 861 q 547 811 526 861 q 532 757 547 783 q 494 731 517 731 q 465 743 477 731 q 446 768 452 754 q 428 793 440 781 q 399 804 416 804 q 345 788 368 804 q 305 741 321 771 q 280 680 290 711 q 263 610 271 650 q 247 468 255 569 q 244 433 245 449 l 422 433 q 422 421 424 431 q 413 397 420 411 q 399 380 406 384 l 239 380 q 233 336 236 351 z "},"":{"ha":684,"x_min":49,"x_max":662,"o":"m 321 206 q 406 244 366 206 q 469 341 446 282 q 492 463 492 401 q 461 581 492 534 q 381 628 431 628 q 296 590 336 628 q 232 492 256 551 q 209 370 209 432 q 240 252 209 298 q 321 206 272 206 m 532 617 l 621 692 q 627 693 623 693 q 648 673 637 693 q 662 632 660 653 l 571 556 q 586 471 586 515 q 563 359 586 411 q 510 270 541 307 l 563 191 q 564 190 563 191 q 564 189 564 189 q 541 160 564 178 q 496 136 518 142 l 446 210 q 302 163 377 163 q 170 217 222 163 l 90 149 q 84 148 88 148 q 62 168 74 148 q 49 209 51 188 l 130 278 q 114 363 114 317 q 138 478 114 422 q 198 574 162 534 l 148 650 q 147 651 148 650 q 146 652 146 652 q 170 681 146 663 q 214 705 193 699 l 264 631 q 401 673 330 673 q 532 617 480 673 z "},"":{"ha":803,"x_min":117,"x_max":866,"o":"m 235 293 q 230 304 230 293 q 235 326 230 312 q 248 345 241 339 l 581 345 q 585 335 585 345 q 569 293 585 309 l 235 293 m 215 187 q 210 198 210 187 q 215 220 210 206 q 227 239 220 233 l 561 239 q 565 229 565 239 q 549 187 565 203 l 215 187 m 317 151 l 355 346 q 353 382 358 368 l 245 709 q 219 764 233 745 q 184 799 206 783 q 152 814 172 808 q 120 819 133 819 q 117 828 117 821 q 120 844 117 835 q 127 857 123 854 q 175 854 147 857 q 227 851 203 852 q 276 850 250 850 q 432 857 310 850 q 430 834 433 850 q 422 819 427 819 q 374 810 401 819 q 342 779 347 800 q 349 739 340 768 l 452 429 q 586 624 511 511 q 677 766 661 736 q 686 785 684 777 q 681 798 686 791 q 655 811 675 804 q 604 818 635 818 q 604 837 602 821 q 610 856 606 852 q 732 849 718 849 q 781 850 760 849 q 826 853 802 851 q 866 856 850 855 q 862 834 866 851 q 855 818 858 818 q 740 766 778 818 l 474 389 q 467 376 469 382 q 464 361 465 370 q 462 350 463 352 l 421 151 q 409 54 406 77 q 439 39 410 45 q 488 34 468 34 q 489 15 491 29 q 481 -4 487 1 q 341 3 359 3 q 197 -4 323 3 q 197 15 193 1 q 205 34 200 28 q 257 39 225 34 q 292 54 288 45 q 317 151 300 68 z "},"":{"ha":278,"x_min":100,"x_max":172,"o":"m 172 346 q 143 332 171 339 q 109 326 116 326 q 103 327 105 326 q 101 329 102 328 q 101 333 101 330 q 102 336 102 336 l 102 979 q 109 990 100 987 q 161 997 132 997 q 169 995 166 997 q 172 991 172 993 l 172 989 l 172 346 m 102 -522 l 102 141 q 109 152 100 149 q 161 159 132 159 q 169 157 166 159 q 172 153 172 155 l 172 151 l 172 -513 q 143 -526 171 -519 q 109 -533 116 -533 q 103 -532 105 -533 q 101 -530 102 -531 q 101 -526 101 -529 q 102 -522 102 -523 z "},"":{"ha":598,"x_min":52,"x_max":548,"o":"m 187 -106 q 368 -49 298 -106 q 383 -34 376 -41 q 481 81 427 3 q 548 243 548 175 q 534 325 548 284 q 495 401 520 366 q 446 464 470 437 q 391 519 422 491 q 276 641 326 578 q 225 745 225 703 q 244 786 225 768 q 288 811 264 804 q 335 818 312 818 q 378 807 357 818 q 388 802 380 806 q 400 796 396 798 q 411 793 404 795 q 427 791 419 791 q 459 808 443 791 q 476 840 476 825 q 468 875 476 859 q 412 886 443 886 q 232 829 301 886 q 216 814 224 821 q 118 699 173 777 q 52 537 52 605 q 65 455 52 496 q 104 378 79 414 q 154 316 130 342 q 209 260 178 289 q 324 139 273 201 q 374 35 374 77 q 355 -6 374 12 q 312 -31 336 -24 q 264 -38 288 -38 q 221 -27 243 -38 q 212 -22 220 -26 q 200 -16 203 -18 q 188 -13 196 -15 q 172 -11 180 -11 q 140 -28 157 -11 q 123 -60 123 -45 q 132 -95 123 -79 q 187 -106 157 -106 m 435 70 q 437 92 437 81 q 432 128 437 110 q 421 161 427 146 q 402 194 416 175 q 382 222 389 212 q 355 252 374 233 q 330 277 336 271 q 302 303 323 283 q 277 326 280 323 q 125 597 125 466 q 127 628 125 614 q 136 657 130 642 q 146 681 142 672 q 163 708 151 689 q 164 710 163 709 q 163 688 163 699 q 168 652 163 670 q 178 619 172 633 q 197 586 184 605 q 218 557 210 568 q 244 528 225 547 q 270 503 263 509 q 298 477 276 496 q 323 454 319 457 q 475 183 475 314 q 472 152 475 166 q 464 123 470 138 q 453 99 457 108 q 437 72 449 91 q 435 70 436 71 z "},"":{"ha":387,"x_min":18,"x_max":377,"o":"m 327 803 q 363 784 350 803 q 372 739 377 765 q 346 696 367 714 q 301 678 325 678 q 263 697 277 678 q 254 741 249 715 q 281 784 258 766 q 327 803 303 803 m 50 784 q 60 794 50 784 q 95 803 71 803 q 132 784 119 803 q 141 739 146 764 q 115 696 136 714 q 71 678 94 678 q 33 697 47 678 q 23 741 18 715 q 50 784 28 766 z "},"":{"ha":894,"x_min":76,"x_max":818,"o":"m 618 374 q 608 331 618 368 q 591 290 597 293 q 448 264 528 264 q 310 320 366 264 q 254 456 254 375 q 308 597 254 538 q 445 655 362 655 q 597 629 530 655 q 618 547 618 552 q 611 538 618 542 q 597 534 604 534 q 587 537 593 534 q 579 556 585 546 q 559 579 572 566 q 520 601 546 592 q 461 609 495 609 q 369 567 407 609 q 331 468 331 525 q 375 350 331 392 q 473 308 420 308 q 571 334 543 308 q 583 352 578 340 q 589 371 587 363 q 591 378 591 378 q 618 374 616 378 m 164 628 q 143 591 164 628 q 121 464 121 553 q 164 299 121 375 q 283 180 208 224 q 448 136 359 136 q 612 180 536 136 q 732 299 688 224 q 776 464 776 375 q 732 628 776 553 q 612 748 688 704 q 448 792 536 792 q 283 748 359 792 q 164 628 208 704 m 184 202 q 130 256 184 202 q 76 464 76 311 q 184 726 76 617 q 446 834 293 834 q 633 785 547 834 q 768 650 718 735 q 818 464 818 564 q 768 278 818 363 q 633 143 718 193 q 446 94 547 94 q 184 202 293 94 z "},"":{"ha":515,"x_min":80,"x_max":486,"o":"m 349 338 q 323 352 332 338 q 313 388 313 366 q 320 438 313 404 q 324 457 321 448 q 327 467 327 466 q 256 383 301 427 q 172 339 211 339 q 105 370 130 339 q 80 450 80 400 q 109 567 80 509 q 182 665 138 625 q 279 730 226 705 q 378 755 332 755 q 460 743 423 755 l 396 444 q 392 414 392 431 q 401 391 392 391 q 476 445 422 391 q 482 438 478 445 q 486 427 486 431 q 427 373 473 408 q 349 338 380 338 m 331 718 q 251 683 292 718 q 184 594 210 648 q 157 487 157 540 q 210 393 157 393 q 294 463 248 393 q 357 604 340 532 l 378 704 q 331 718 365 718 z "},"":{"ha":576,"x_min":68,"x_max":513,"o":"m 135 231 q 258 -18 135 88 q 263 -39 270 -27 q 239 -44 256 -52 q 113 71 159 -3 q 68 231 68 145 q 113 391 68 317 q 239 505 160 467 q 263 500 256 513 q 258 479 270 488 q 135 231 135 380 m 378 231 q 501 -18 378 88 q 506 -39 513 -27 q 482 -44 498 -52 q 356 71 401 -3 q 311 231 311 145 q 356 391 311 317 q 482 505 403 467 q 506 500 499 513 q 501 479 513 488 q 378 231 378 380 z "},"":{"ha":796,"x_min":61,"x_max":700,"o":"m 700 570 l 700 229 q 689 223 699 228 q 664 214 680 219 q 636 209 648 209 q 618 218 623 210 l 618 494 l 69 494 q 61 507 61 494 q 81 570 68 570 l 700 570 z "},"":{"ha":502,"x_min":71,"x_max":415,"o":"m 99 354 l 407 370 q 415 354 415 370 q 404 312 415 339 q 384 285 393 286 l 77 270 q 71 290 71 270 q 80 329 71 304 q 99 354 89 353 z "},"":{"ha":894,"x_min":76,"x_max":818,"o":"m 438 749 q 522 723 483 749 q 561 650 561 696 q 538 594 561 621 q 486 556 516 567 q 583 421 526 490 q 611 398 597 405 q 648 389 625 391 q 649 379 650 387 q 648 370 648 371 q 555 376 574 370 q 518 402 532 385 q 422 539 469 467 q 406 546 418 546 l 385 546 l 385 441 q 387 398 385 408 q 404 392 389 394 q 427 389 418 389 q 429 379 429 387 q 427 370 429 372 q 355 372 380 372 q 279 370 326 372 q 277 379 277 372 q 279 389 277 387 q 302 392 288 389 q 318 398 317 394 q 321 441 321 410 l 321 680 q 318 723 321 711 q 302 729 317 727 q 279 732 288 732 q 277 742 277 734 q 279 751 277 749 q 356 749 326 749 q 393 749 366 749 q 438 749 420 749 m 496 637 q 478 703 496 680 q 416 727 461 727 q 387 721 389 727 q 385 678 386 718 l 385 570 q 410 570 400 571 q 472 588 448 570 q 496 637 496 605 m 164 716 q 143 679 164 716 q 121 552 121 641 q 164 388 121 463 q 283 268 208 312 q 448 224 359 224 q 612 268 536 224 q 732 388 688 312 q 776 552 776 463 q 732 716 776 641 q 612 835 688 791 q 448 879 536 879 q 283 835 359 879 q 164 716 208 791 m 76 552 q 184 814 76 705 q 446 922 293 922 q 633 873 547 922 q 768 738 718 823 q 818 552 818 652 q 768 366 818 451 q 633 230 718 280 q 446 180 547 180 q 260 230 346 180 q 125 366 175 280 q 76 552 76 451 z "},"":{"ha":357,"x_min":27,"x_max":330,"o":"m 316 665 l 31 665 q 27 677 27 669 q 33 701 27 685 q 44 718 39 718 l 323 718 q 330 708 330 718 q 316 665 330 680 z "},"":{"ha":361,"x_min":122,"x_max":376,"o":"m 171 711 q 188 662 171 682 q 233 643 205 643 q 298 673 269 643 q 327 743 327 704 q 310 791 327 772 q 264 810 292 810 q 199 781 228 810 q 171 711 171 751 m 122 701 q 170 812 122 765 q 274 860 218 860 q 347 829 319 860 q 376 753 376 799 q 328 642 376 690 q 224 593 281 593 q 151 624 180 593 q 122 701 122 655 z "},"":{"ha":743,"x_min":46,"x_max":697,"o":"m 66 84 q 685 84 66 84 q 693 80 690 84 q 697 68 697 75 q 691 34 697 52 q 675 8 684 17 l 54 8 q 46 22 46 8 q 52 54 46 31 q 66 84 58 77 m 66 490 l 332 490 l 332 761 q 391 776 372 776 q 401 774 397 776 q 407 770 406 772 l 408 768 l 408 490 l 685 490 q 693 485 690 490 q 697 473 697 481 q 691 440 697 457 q 675 414 684 422 l 408 414 l 408 140 q 350 125 389 125 q 338 129 343 125 q 332 137 332 133 l 332 414 l 54 414 q 46 427 46 414 q 52 459 46 436 q 66 490 58 483 z "},"":{"ha":486,"x_min":52,"x_max":435,"o":"m 435 488 q 412 422 429 474 q 385 345 395 370 l 70 345 q 58 351 64 345 q 54 361 52 357 q 112 420 71 380 q 185 497 152 461 q 243 567 219 534 q 309 719 309 654 q 285 789 309 762 q 219 817 261 817 q 166 805 191 817 q 130 782 142 793 q 101 750 117 770 q 87 757 97 746 q 78 773 77 768 q 146 847 102 816 q 235 878 191 878 q 352 837 307 878 q 397 732 397 796 q 334 595 397 670 q 165 419 315 572 l 328 419 q 356 425 343 419 q 378 441 370 431 q 393 460 387 452 q 403 480 398 469 q 409 492 408 491 q 416 496 410 494 q 435 488 429 496 z "},"":{"ha":431,"x_min":53,"x_max":381,"o":"m 220 876 q 302 848 267 876 q 338 772 338 821 q 313 702 338 732 q 259 659 288 672 q 337 621 294 659 q 381 524 381 583 q 317 388 381 437 q 160 338 253 338 q 107 343 136 338 q 69 358 79 349 q 53 391 53 373 q 65 423 53 410 q 95 435 78 435 q 113 430 105 435 q 130 412 121 425 q 144 396 140 400 q 197 376 164 376 q 268 407 241 376 q 294 499 294 439 q 265 582 294 548 q 197 616 235 616 q 174 613 186 616 q 153 608 163 611 q 142 605 143 605 q 136 620 138 610 q 136 633 134 628 q 226 676 190 644 q 262 754 262 707 q 240 802 262 781 q 193 823 219 823 q 176 822 184 823 q 161 818 168 821 q 148 812 154 815 q 135 805 141 809 q 124 798 129 801 q 115 790 120 794 q 107 783 110 785 q 102 777 106 781 l 98 773 q 91 780 94 774 q 86 789 88 785 q 85 795 85 794 q 220 876 140 876 z "},"":{"ha":273,"x_min":14,"x_max":245,"o":"m 24 665 q 18 670 22 665 q 14 678 14 675 q 71 752 14 686 q 142 829 128 819 q 193 842 162 842 q 228 832 210 842 q 245 802 245 823 q 144 724 245 784 q 24 665 43 665 z "},"":{"ha":669,"x_min":-15,"x_max":545,"o":"m 544 94 q 496 26 529 57 q 433 -5 464 -5 q 406 1 417 -5 q 387 18 394 8 q 374 45 378 28 q 369 76 370 61 q 367 114 368 91 q 368 151 367 136 q 370 190 368 167 q 270 41 316 95 q 176 -12 224 -12 q 110 119 110 -12 q 96 66 110 113 q 71 -38 83 20 q 58 -134 58 -96 q 103 -263 58 -193 q 81 -288 100 -277 q 43 -300 62 -300 q 27 -296 35 -300 q 8 -282 19 -292 q -8 -251 -1 -273 q -15 -198 -15 -229 q 26 22 -15 -138 q 96 277 66 182 q 122 424 100 295 q 148 574 144 553 q 162 586 153 579 q 179 593 172 593 q 210 578 191 593 q 237 541 229 563 q 157 302 231 501 q 146 203 146 251 q 157 123 145 156 q 189 90 170 90 q 220 98 203 90 q 253 123 236 106 q 283 158 270 142 q 314 205 296 174 q 341 251 332 236 q 369 301 350 267 q 405 446 385 359 q 435 574 425 533 q 450 586 440 579 q 467 593 459 593 q 498 578 479 593 q 525 541 517 563 l 422 285 q 414 145 402 201 q 468 90 425 90 q 536 123 502 90 q 543 109 540 121 q 544 94 545 96 z "},"":{"ha":656,"x_min":46,"x_max":587,"o":"m 437 452 q 437 822 437 452 q 397 829 430 829 q 359 821 368 829 q 359 445 359 821 q 402 447 372 445 q 437 452 433 449 m 435 396 q 414 394 430 395 q 383 392 397 393 q 359 391 369 391 l 359 157 q 363 57 359 79 q 397 49 365 49 q 433 57 431 49 q 437 157 437 79 l 435 396 m 490 406 l 490 157 q 496 57 490 79 q 533 39 499 47 q 585 31 567 31 q 587 14 587 31 q 585 -5 587 -3 q 500 -1 551 -4 q 403 3 450 3 q 214 -5 377 3 q 212 14 212 0 q 217 31 212 28 q 264 39 231 31 q 300 57 297 47 q 307 157 307 79 l 307 389 q 193 414 245 389 q 111 477 142 439 q 63 557 80 515 q 46 636 46 599 q 81 765 46 707 q 169 854 116 823 q 278 884 222 884 q 344 882 318 884 q 410 879 370 879 q 491 880 450 879 q 553 884 533 883 l 574 886 q 578 865 578 880 q 572 846 578 850 q 527 838 553 846 q 495 819 500 830 q 491 732 491 805 l 491 460 q 510 464 494 459 q 543 473 528 468 l 557 477 q 571 469 571 477 q 555 441 570 460 q 532 419 540 422 q 490 406 507 408 z "},"":{"ha":301,"x_min":73,"x_max":222,"o":"m 73 342 q 102 408 73 379 q 164 437 130 437 q 206 419 190 437 q 222 374 222 401 q 195 308 222 337 q 133 278 167 278 q 90 296 106 278 q 73 342 73 314 z "},"":{"ha":218,"x_min":12,"x_max":196,"o":"m 116 -37 l 147 -37 q 183 -56 171 -37 q 191 -103 196 -76 q 142 -178 182 -150 q 52 -206 102 -206 q 12 -194 27 -206 l 12 -175 q 19 -162 12 -168 q 32 -156 26 -156 q 52 -165 39 -156 q 75 -174 64 -174 q 118 -160 100 -174 q 139 -129 136 -147 q 134 -95 144 -106 q 109 -83 123 -83 q 74 -92 98 -83 q 66 -85 71 -92 q 64 -75 62 -78 q 92 -40 72 -65 q 119 -5 112 -16 l 144 -5 l 116 -37 z "},"":{"ha":396,"x_min":53,"x_max":351,"o":"m 167 703 q 160 759 167 745 q 141 772 154 772 q 65 750 127 772 q 53 773 53 756 q 57 784 53 782 q 170 836 120 810 q 240 872 220 861 q 260 884 260 884 l 263 884 q 279 853 269 884 q 267 743 267 796 l 267 461 q 278 397 267 422 q 309 385 281 391 q 349 378 337 378 q 351 363 351 378 q 349 343 351 347 q 290 346 332 344 q 218 347 249 347 q 143 346 188 347 q 83 343 98 344 q 77 361 77 346 q 83 377 77 377 q 127 384 98 377 q 159 396 156 390 q 167 458 167 417 l 167 703 z "},"":{"ha":526,"x_min":52,"x_max":475,"o":"m 254 719 q 172 671 199 719 q 145 557 145 623 q 180 425 145 483 q 277 368 214 368 q 355 417 328 368 q 381 530 381 467 q 368 618 381 577 q 326 689 355 660 q 254 719 296 719 m 266 751 q 414 691 354 751 q 475 547 475 631 q 414 398 475 461 q 266 335 353 335 q 115 396 178 335 q 52 541 52 456 q 114 690 52 628 q 266 751 176 751 z "},"":{"ha":576,"x_min":64,"x_max":509,"o":"m 441 231 q 318 479 441 380 q 313 500 307 488 q 337 505 320 513 q 463 391 416 467 q 509 231 509 317 q 463 71 509 145 q 337 -44 418 -3 q 313 -39 321 -52 q 318 -18 307 -27 q 441 231 441 88 m 199 231 q 75 479 199 380 q 71 500 64 488 q 94 505 77 513 q 220 391 174 467 q 266 231 266 317 q 220 71 266 145 q 94 -44 175 -3 q 71 -39 78 -52 q 75 -18 64 -27 q 199 231 199 88 z "},"":{"ha":948,"x_min":46,"x_max":897,"o":"m 822 552 q 831 547 827 552 q 834 536 834 542 l 834 198 q 882 198 834 198 q 894 174 891 189 q 890 144 897 159 l 838 144 l 838 0 q 798 -4 834 -4 q 754 3 762 -4 l 754 144 l 530 144 q 517 165 519 146 l 795 536 q 822 552 808 552 m 754 205 q 754 414 754 205 q 677 311 726 378 q 600 205 629 243 l 754 205 m 236 724 l 236 456 q 245 389 236 418 q 275 377 248 383 q 313 370 302 370 q 317 354 317 363 q 315 340 317 344 q 261 343 294 341 q 198 345 228 345 q 130 343 168 345 q 73 340 92 341 q 69 355 68 344 q 73 370 69 366 q 113 377 87 370 q 141 391 138 384 q 152 453 152 419 l 152 705 q 145 739 152 725 q 129 753 139 753 q 113 750 122 753 q 87 741 104 748 q 64 732 70 734 q 46 757 52 738 q 229 865 64 768 q 242 857 237 863 q 247 844 247 850 q 236 724 236 777 m 252 -17 q 242 -13 246 -16 q 237 -8 238 -11 l 237 -5 l 711 863 q 718 868 712 865 q 733 873 724 871 q 753 873 742 876 q 764 860 764 871 l 296 3 q 279 -13 290 -5 q 252 -17 267 -20 z "},"":{"ha":1017,"x_min":50,"x_max":971,"o":"m 772 532 q 888 491 843 532 q 933 387 933 450 q 871 250 933 324 q 701 73 851 226 l 864 73 q 893 79 880 73 q 915 96 906 85 q 929 115 924 106 q 940 134 935 123 q 945 146 945 145 q 952 151 947 149 q 971 142 965 151 q 949 76 966 128 q 921 -1 932 24 l 606 -1 q 594 5 600 -1 q 590 15 588 11 q 668 95 599 25 q 769 206 736 165 q 845 373 845 302 q 821 444 845 416 q 755 471 798 471 q 703 459 727 471 q 666 436 678 448 q 637 404 654 424 q 623 411 633 400 q 614 427 613 422 q 683 501 639 470 q 772 532 727 532 m 240 724 l 240 456 q 250 389 240 418 q 279 377 252 383 q 317 370 306 370 q 321 354 321 363 q 319 340 321 344 q 265 343 298 341 q 202 345 232 345 q 134 343 172 345 q 77 340 96 341 q 73 355 73 344 q 77 370 73 366 q 117 377 92 370 q 145 391 142 384 q 156 453 156 419 l 156 705 q 150 739 156 725 q 133 753 143 753 q 117 750 126 753 q 91 741 109 748 q 68 732 74 734 q 50 757 56 738 q 233 865 68 768 q 246 857 241 863 q 251 844 251 850 q 240 724 240 777 m 765 860 l 297 3 q 280 -13 292 -5 q 254 -17 269 -20 q 243 -13 248 -16 q 239 -8 239 -11 l 238 -5 l 713 863 q 719 868 713 865 q 734 873 725 871 q 755 873 743 876 q 765 860 765 871 z "},"":{"ha":949,"x_min":47,"x_max":899,"o":"m 823 552 q 832 547 829 552 q 836 536 836 542 l 836 198 q 883 198 836 198 q 896 174 892 189 q 891 144 899 159 l 840 144 l 840 0 q 799 -4 836 -4 q 755 3 764 -4 l 755 144 l 532 144 q 518 165 520 146 l 796 536 q 823 552 809 552 m 755 205 q 755 414 755 205 q 679 311 727 378 q 601 205 631 243 l 755 205 m 214 876 q 297 848 261 876 q 332 772 332 821 q 307 702 332 732 q 254 659 282 672 q 332 621 288 659 q 376 524 376 583 q 312 388 376 437 q 155 338 248 338 q 102 343 130 338 q 64 358 73 349 q 47 391 47 373 q 60 423 47 410 q 90 435 73 435 q 107 430 100 435 q 125 412 115 425 q 138 396 134 400 q 191 376 159 376 q 262 407 235 376 q 289 499 289 439 q 259 582 289 548 q 191 616 230 616 q 169 613 180 616 q 148 608 157 611 q 137 605 138 605 q 130 621 133 609 q 130 633 129 631 q 220 676 184 644 q 256 754 256 707 q 235 802 256 781 q 187 823 214 823 q 171 822 179 823 q 156 818 163 821 q 142 812 149 815 q 130 805 136 809 q 119 798 123 801 q 110 790 115 794 q 102 783 104 785 q 96 777 100 781 l 92 773 q 86 780 89 774 q 81 789 83 785 q 80 795 79 794 q 214 876 134 876 m 772 860 l 304 3 q 287 -13 298 -5 q 260 -17 275 -20 q 250 -13 254 -16 q 245 -8 246 -11 l 245 -5 l 720 863 q 726 868 720 865 q 741 873 732 871 q 762 873 750 876 q 772 860 772 871 z "},"":{"ha":468,"x_min":56,"x_max":400,"o":"m 368 561 q 379 549 368 561 q 391 507 391 538 q 368 455 391 477 q 315 434 345 434 q 263 455 284 434 q 241 507 241 477 q 263 561 241 538 q 315 583 284 583 q 368 561 345 583 m 346 338 q 357 214 357 292 q 350 164 357 187 q 334 125 342 140 q 309 95 326 111 q 281 72 292 79 q 251 52 271 64 q 241 46 244 48 q 202 21 214 28 q 172 -2 191 14 q 145 -28 153 -17 q 130 -56 137 -39 q 123 -92 123 -73 q 153 -173 123 -143 q 224 -203 183 -203 q 296 -189 264 -203 q 340 -175 328 -175 q 379 -194 359 -175 q 400 -243 400 -213 q 388 -293 400 -276 q 323 -302 369 -302 q 260 -292 295 -302 q 190 -260 226 -281 q 124 -209 154 -238 q 75 -138 94 -180 q 56 -52 56 -97 q 86 65 56 18 q 193 156 117 113 q 257 201 221 173 q 298 240 292 229 q 304 261 302 248 q 307 283 307 274 q 307 311 307 292 q 307 335 307 330 q 328 353 315 351 q 346 338 341 347 z "},"":{"ha":795,"x_min":-77,"x_max":750,"o":"m 557 963 q 427 1010 534 963 q 319 1080 319 1057 q 338 1100 319 1091 q 385 1109 356 1109 q 405 1107 392 1109 q 421 1103 418 1105 q 506 1035 448 1086 q 565 977 565 983 q 562 968 565 974 q 557 963 558 963 m 463 35 q 519 46 499 35 q 540 77 540 57 q 536 144 540 118 l 505 347 l 236 347 q 139 170 168 223 q 100 68 100 94 q 112 51 100 58 q 139 41 123 43 q 166 37 155 38 q 184 35 178 35 q 184 17 186 33 q 178 -4 182 2 q 139 -1 160 -3 q 100 2 119 1 q 58 3 82 3 q 13 2 32 3 q -30 -1 -7 1 q -75 -4 -54 -3 q -74 13 -77 -1 q -67 35 -71 28 q -26 42 -52 35 q 10 61 -1 50 q 94 189 43 96 l 469 860 q 495 887 477 875 q 523 899 513 899 q 530 895 528 899 l 646 171 q 662 79 660 88 q 677 56 665 65 q 705 42 689 46 q 731 37 720 38 q 747 35 741 35 q 748 14 750 27 q 743 -4 746 0 q 595 3 618 3 q 548 2 569 3 q 501 -1 527 1 q 454 -4 475 -3 q 453 16 450 1 q 463 35 456 30 m 260 392 l 498 392 l 446 726 l 260 392 z "},"":{"ha":795,"x_min":-77,"x_max":750,"o":"m 477 964 q 472 970 475 964 q 469 978 469 975 q 527 1036 469 985 q 612 1104 586 1087 q 628 1108 615 1106 q 649 1111 642 1111 q 696 1102 677 1111 q 714 1081 714 1093 q 607 1011 714 1059 q 477 964 499 964 m 463 35 q 519 46 499 35 q 540 77 540 57 q 536 144 540 118 l 505 347 l 236 347 q 139 170 168 223 q 100 68 100 94 q 112 51 100 58 q 139 41 123 43 q 166 37 155 38 q 184 35 178 35 q 184 17 186 33 q 178 -4 182 2 q 139 -1 160 -3 q 100 2 119 1 q 58 3 82 3 q 13 2 32 3 q -30 -1 -7 1 q -75 -4 -54 -3 q -74 13 -77 -1 q -67 35 -71 28 q -26 42 -52 35 q 10 61 -1 50 q 94 189 43 96 l 469 860 q 495 887 477 875 q 523 899 513 899 q 530 895 528 899 l 646 171 q 662 79 660 88 q 677 56 665 65 q 705 42 689 46 q 731 37 720 38 q 747 35 741 35 q 748 14 750 27 q 743 -4 746 0 q 595 3 618 3 q 548 2 569 3 q 501 -1 527 1 q 454 -4 475 -3 q 453 16 450 1 q 463 35 456 30 m 260 392 l 498 392 l 446 726 l 260 392 z "},"":{"ha":795,"x_min":-77,"x_max":750,"o":"m 573 1134 q 587 1124 581 1134 q 692 978 633 1050 q 685 968 692 972 q 672 964 679 964 l 551 1044 q 389 964 454 997 q 378 968 382 964 q 375 978 374 972 q 554 1124 471 1049 q 573 1134 565 1134 m 463 35 q 519 46 499 35 q 540 77 540 57 q 536 144 540 118 l 505 347 l 236 347 q 139 170 168 223 q 100 68 100 94 q 112 51 100 58 q 139 41 123 43 q 166 37 155 38 q 184 35 178 35 q 184 17 186 33 q 178 -4 182 2 q 139 -1 160 -3 q 100 2 119 1 q 58 3 82 3 q 13 2 32 3 q -30 -1 -7 1 q -75 -4 -54 -3 q -74 13 -77 -1 q -67 35 -71 28 q -26 42 -52 35 q 10 61 -1 50 q 94 189 43 96 l 469 860 q 495 887 477 875 q 523 899 513 899 q 530 895 528 899 l 646 171 q 662 79 660 88 q 677 56 665 65 q 705 42 689 46 q 731 37 720 38 q 747 35 741 35 q 748 14 750 27 q 743 -4 746 0 q 595 3 618 3 q 548 2 569 3 q 501 -1 527 1 q 454 -4 475 -3 q 453 16 450 1 q 463 35 456 30 m 260 392 l 498 392 l 446 726 l 260 392 z "},"":{"ha":795,"x_min":-77,"x_max":750,"o":"m 469 1111 q 551 1092 518 1111 q 581 1075 571 1080 q 610 1065 591 1070 q 649 1059 629 1059 q 737 1111 693 1059 q 745 1097 745 1108 q 721 1047 745 1072 q 615 1002 674 1002 q 532 1021 566 1002 q 503 1038 513 1033 q 474 1048 493 1043 q 435 1054 454 1054 q 347 1002 391 1054 q 337 1016 337 1006 q 363 1066 337 1040 q 469 1111 410 1111 m 463 35 q 519 46 499 35 q 540 77 540 57 q 536 144 540 118 l 505 347 l 236 347 q 139 170 168 223 q 100 68 100 94 q 112 51 100 58 q 139 41 123 43 q 166 37 155 38 q 184 35 178 35 q 184 17 186 33 q 178 -4 182 2 q 139 -1 160 -3 q 100 2 119 1 q 58 3 82 3 q 13 2 32 3 q -30 -1 -7 1 q -75 -4 -54 -3 q -74 13 -77 -1 q -67 35 -71 28 q -26 42 -52 35 q 10 61 -1 50 q 94 189 43 96 l 469 860 q 495 887 477 875 q 523 899 513 899 q 530 895 528 899 l 646 171 q 662 79 660 88 q 677 56 665 65 q 705 42 689 46 q 731 37 720 38 q 747 35 741 35 q 748 14 750 27 q 743 -4 746 0 q 595 3 618 3 q 548 2 569 3 q 501 -1 527 1 q 454 -4 475 -3 q 453 16 450 1 q 463 35 456 30 m 260 392 l 498 392 l 446 726 l 260 392 z "},"":{"ha":795,"x_min":-77,"x_max":750,"o":"m 463 35 q 519 46 499 35 q 540 77 540 57 q 536 144 540 118 l 505 347 l 236 347 q 139 170 168 223 q 100 68 100 94 q 112 51 100 58 q 139 41 123 43 q 166 37 155 38 q 184 35 178 35 q 184 17 186 33 q 178 -4 182 2 q 139 -1 160 -3 q 100 2 119 1 q 58 3 82 3 q 13 2 32 3 q -30 -1 -7 1 q -75 -4 -54 -3 q -74 13 -77 -1 q -67 35 -71 28 q -26 42 -52 35 q 10 61 -1 50 q 94 189 43 96 l 469 860 q 495 887 477 875 q 523 899 513 899 q 530 895 528 899 l 646 171 q 662 79 660 88 q 677 56 665 65 q 705 42 689 46 q 731 37 720 38 q 747 35 741 35 q 748 14 750 27 q 743 -4 746 0 q 595 3 618 3 q 548 2 569 3 q 501 -1 527 1 q 454 -4 475 -3 q 453 16 450 1 q 463 35 456 30 m 260 392 l 498 392 l 446 726 l 260 392 m 588 1055 q 615 1103 593 1084 q 664 1123 637 1123 q 705 1103 690 1123 q 714 1055 720 1084 q 687 1007 709 1027 q 638 987 665 987 q 597 1007 612 987 q 588 1055 583 1027 m 360 1055 q 387 1103 365 1084 q 436 1123 410 1123 q 477 1103 463 1123 q 486 1055 492 1084 q 458 1007 481 1027 q 409 987 435 987 q 369 1007 382 987 q 360 1055 355 1027 z "},"":{"ha":795,"x_min":-77,"x_max":750,"o":"m 463 35 q 519 46 499 35 q 540 77 540 57 q 536 144 540 118 l 505 347 l 236 347 q 139 170 168 223 q 100 68 100 94 q 112 51 100 58 q 139 41 123 43 q 166 37 155 38 q 184 35 178 35 q 184 17 186 33 q 178 -4 182 2 q 139 -1 160 -3 q 100 2 119 1 q 58 3 82 3 q 13 2 32 3 q -30 -1 -7 1 q -75 -4 -54 -3 q -74 13 -77 -1 q -67 35 -71 28 q -26 42 -52 35 q 10 61 -1 50 q 94 189 43 96 l 469 860 q 495 887 477 875 q 523 899 513 899 q 530 895 528 899 l 646 171 q 662 79 660 88 q 677 56 665 65 q 705 42 689 46 q 731 37 720 38 q 747 35 741 35 q 748 14 750 27 q 743 -4 746 0 q 595 3 618 3 q 548 2 569 3 q 501 -1 527 1 q 454 -4 475 -3 q 453 16 450 1 q 463 35 456 30 m 260 392 l 498 392 l 446 726 l 260 392 m 500 1069 q 487 1058 500 1069 q 469 1016 475 1047 q 479 962 463 985 q 524 940 496 940 q 577 962 553 940 q 607 1016 601 984 q 598 1069 613 1048 q 554 1090 583 1090 q 500 1069 525 1090 m 443 930 q 430 948 443 930 q 427 1016 416 966 q 477 1101 437 1065 q 564 1137 517 1137 q 634 1101 609 1137 q 649 1016 659 1066 q 600 930 639 966 q 516 894 562 894 q 443 930 470 894 z "},"":{"ha":1065,"x_min":-81,"x_max":1058,"o":"m 526 416 l 330 416 l 165 178 q 104 68 104 90 q 135 43 104 54 q 182 33 165 33 q 182 24 182 31 q 181 8 182 18 q 178 -4 180 -1 q 137 -1 160 -3 q 94 2 114 1 q 50 3 75 3 q 6 2 24 3 q -36 -1 -13 1 q -80 -4 -58 -3 q -80 15 -81 -3 q -76 33 -79 33 q -32 41 -61 33 q 11 61 -2 50 q 118 189 64 109 l 536 795 q 543 815 543 808 q 532 838 543 828 q 502 848 522 848 q 498 867 498 851 q 502 890 498 883 l 635 891 q 829 896 692 891 q 1036 901 966 901 q 1040 840 1037 871 q 1046 773 1042 809 q 1053 716 1050 736 q 1028 709 1046 709 q 1012 719 1012 709 q 968 825 1001 795 q 882 854 936 854 l 773 854 q 685 840 691 854 q 666 742 674 814 l 637 471 q 641 466 637 468 q 653 464 646 465 q 670 463 661 463 q 690 463 679 463 l 757 463 q 806 463 788 463 q 840 468 824 464 q 863 476 855 471 q 878 492 870 480 q 891 515 886 503 q 903 549 895 526 q 907 560 906 556 q 928 570 911 570 q 947 563 942 570 l 920 307 q 898 301 914 301 q 880 312 882 301 q 868 383 873 366 q 854 407 863 400 q 722 418 839 418 q 631 406 632 418 l 605 148 q 604 54 599 59 q 630 43 614 45 q 692 41 647 41 l 751 41 q 913 83 852 41 q 1008 220 969 121 q 1027 228 1012 228 q 1058 220 1053 228 q 1025 149 1051 205 q 984 57 999 92 q 963 -5 970 22 q 760 -3 898 -5 q 534 0 621 0 l 366 -4 q 367 21 364 1 q 374 42 370 40 q 428 49 393 42 q 473 68 464 56 q 494 107 488 85 q 503 168 500 128 l 526 416 m 530 463 l 557 746 l 362 463 l 530 463 z "},"":{"ha":875,"x_min":80,"x_max":849,"o":"m 772 235 q 789 232 780 235 q 804 227 799 229 l 810 224 q 766 126 806 202 q 712 38 726 50 q 598 0 659 10 q 448 -11 538 -11 q 256 40 340 -11 q 125 175 171 91 q 80 359 80 259 q 110 547 80 459 q 193 701 140 635 q 315 812 245 766 q 466 882 385 859 q 631 903 547 905 q 849 868 711 902 q 836 670 841 720 q 825 663 834 663 q 793 670 807 663 q 738 806 798 750 q 591 861 678 861 q 442 827 512 861 q 320 733 372 793 q 239 581 269 672 q 209 382 209 490 q 218 283 209 332 q 248 189 227 235 q 300 106 269 142 q 379 50 331 71 q 486 28 427 28 q 772 235 664 28 m 432 -37 l 470 -37 q 512 -60 498 -37 q 520 -115 526 -83 q 463 -203 509 -170 q 356 -236 416 -236 q 309 -222 325 -236 l 309 -199 q 318 -184 311 -191 q 333 -178 326 -178 q 356 -188 341 -178 q 385 -198 372 -198 q 435 -182 414 -198 q 459 -145 455 -167 q 452 -105 464 -119 q 424 -91 441 -91 q 382 -102 408 -91 q 374 -94 379 -102 q 371 -81 368 -86 q 399 -46 373 -79 q 435 0 425 -14 l 466 0 l 432 -37 z "},"":{"ha":751,"x_min":-11,"x_max":724,"o":"m 566 963 q 436 1010 544 963 q 329 1080 329 1057 q 347 1100 329 1091 q 394 1109 366 1109 q 415 1107 401 1109 q 431 1103 428 1105 q 516 1035 457 1086 q 574 977 574 983 q 571 968 574 974 q 566 963 568 963 m 316 891 q 513 896 373 891 q 723 901 652 901 q 722 806 720 884 q 724 716 724 728 q 700 709 718 709 q 685 719 685 709 q 650 825 680 795 q 566 854 620 854 l 457 854 q 368 840 375 854 q 340 742 353 811 l 290 481 q 294 477 290 479 q 306 475 298 475 q 323 474 314 474 q 343 473 332 473 l 410 473 q 458 474 441 473 q 492 478 476 475 q 516 487 508 481 q 532 502 524 492 q 547 525 541 512 q 562 558 553 538 q 567 571 565 566 q 589 581 571 581 q 608 574 603 581 l 559 317 q 537 312 553 312 q 519 323 522 312 q 513 394 517 378 q 502 418 509 411 q 370 429 488 429 q 277 416 279 429 l 224 148 q 214 54 207 62 q 240 43 224 45 q 301 41 256 41 l 361 41 q 529 83 465 41 q 635 220 589 123 q 655 228 639 228 q 685 220 680 228 q 646 148 676 203 q 599 57 616 93 q 572 -5 581 22 q 370 -3 508 -5 q 144 0 232 0 q 64 -2 113 0 q -7 -4 16 -4 q -8 16 -11 1 q 0 35 -5 30 q 54 41 19 35 q 92 57 88 47 q 118 157 102 76 l 231 736 q 243 837 245 812 q 211 852 242 846 q 160 859 179 859 q 159 878 157 863 q 168 898 162 893 q 316 891 297 891 z "},"":{"ha":751,"x_min":-11,"x_max":724,"o":"m 399 964 q 395 970 398 964 q 391 978 391 975 q 450 1036 391 985 q 535 1104 509 1087 q 551 1108 538 1106 q 572 1111 564 1111 q 618 1102 600 1111 q 637 1081 637 1093 q 529 1011 637 1059 q 399 964 422 964 m 316 891 q 513 896 373 891 q 723 901 652 901 q 722 806 720 884 q 724 716 724 728 q 700 709 718 709 q 685 719 685 709 q 650 825 680 795 q 566 854 620 854 l 457 854 q 368 840 375 854 q 340 742 353 811 l 290 481 q 294 477 290 479 q 306 475 298 475 q 323 474 314 474 q 343 473 332 473 l 410 473 q 458 474 441 473 q 492 478 476 475 q 516 487 508 481 q 532 502 524 492 q 547 525 541 512 q 562 558 553 538 q 567 571 565 566 q 589 581 571 581 q 608 574 603 581 l 559 317 q 537 312 553 312 q 519 323 522 312 q 513 394 517 378 q 502 418 509 411 q 370 429 488 429 q 277 416 279 429 l 224 148 q 214 54 207 62 q 240 43 224 45 q 301 41 256 41 l 361 41 q 529 83 465 41 q 635 220 589 123 q 655 228 639 228 q 685 220 680 228 q 646 148 676 203 q 599 57 616 93 q 572 -5 581 22 q 370 -3 508 -5 q 144 0 232 0 q 64 -2 113 0 q -7 -4 16 -4 q -8 16 -11 1 q 0 35 -5 30 q 54 41 19 35 q 92 57 88 47 q 118 157 102 76 l 231 736 q 243 837 245 812 q 211 852 242 846 q 160 859 179 859 q 159 878 157 863 q 168 898 162 893 q 316 891 297 891 z "},"":{"ha":751,"x_min":-11,"x_max":724,"o":"m 532 1134 q 546 1124 540 1134 q 652 978 592 1050 q 645 968 651 972 q 631 964 638 964 l 511 1044 q 348 964 413 997 q 338 968 342 964 q 334 978 334 972 q 513 1124 430 1049 q 532 1134 524 1134 m 316 891 q 513 896 373 891 q 723 901 652 901 q 722 806 720 884 q 724 716 724 728 q 700 709 718 709 q 685 719 685 709 q 650 825 680 795 q 566 854 620 854 l 457 854 q 368 840 375 854 q 340 742 353 811 l 290 481 q 294 477 290 479 q 306 475 298 475 q 323 474 314 474 q 343 473 332 473 l 410 473 q 458 474 441 473 q 492 478 476 475 q 516 487 508 481 q 532 502 524 492 q 547 525 541 512 q 562 558 553 538 q 567 571 565 566 q 589 581 571 581 q 608 574 603 581 l 559 317 q 537 312 553 312 q 519 323 522 312 q 513 394 517 378 q 502 418 509 411 q 370 429 488 429 q 277 416 279 429 l 224 148 q 214 54 207 62 q 240 43 224 45 q 301 41 256 41 l 361 41 q 529 83 465 41 q 635 220 589 123 q 655 228 639 228 q 685 220 680 228 q 646 148 676 203 q 599 57 616 93 q 572 -5 581 22 q 370 -3 508 -5 q 144 0 232 0 q 64 -2 113 0 q -7 -4 16 -4 q -8 16 -11 1 q 0 35 -5 30 q 54 41 19 35 q 92 57 88 47 q 118 157 102 76 l 231 736 q 243 837 245 812 q 211 852 242 846 q 160 859 179 859 q 159 878 157 863 q 168 898 162 893 q 316 891 297 891 z "},"":{"ha":751,"x_min":-11,"x_max":724,"o":"m 545 1055 q 572 1103 549 1084 q 621 1123 594 1123 q 662 1103 647 1123 q 671 1055 676 1084 q 644 1007 666 1027 q 595 987 621 987 q 554 1007 568 987 q 545 1055 539 1027 m 317 1055 q 344 1103 321 1084 q 393 1123 366 1123 q 434 1103 419 1123 q 443 1055 448 1084 q 415 1007 438 1027 q 366 987 392 987 q 325 1007 339 987 q 317 1055 311 1027 m 316 891 q 513 896 373 891 q 723 901 652 901 q 722 806 720 884 q 724 716 724 728 q 700 709 718 709 q 685 719 685 709 q 650 825 680 795 q 566 854 620 854 l 457 854 q 368 840 375 854 q 340 742 353 811 l 290 481 q 294 477 290 479 q 306 475 298 475 q 323 474 314 474 q 343 473 332 473 l 410 473 q 458 474 441 473 q 492 478 476 475 q 516 487 508 481 q 532 502 524 492 q 547 525 541 512 q 562 558 553 538 q 567 571 565 566 q 589 581 571 581 q 608 574 603 581 l 559 317 q 537 312 553 312 q 519 323 522 312 q 513 394 517 378 q 502 418 509 411 q 370 429 488 429 q 277 416 279 429 l 224 148 q 214 54 207 62 q 240 43 224 45 q 301 41 256 41 l 361 41 q 529 83 465 41 q 635 220 589 123 q 655 228 639 228 q 685 220 680 228 q 646 148 676 203 q 599 57 616 93 q 572 -5 581 22 q 370 -3 508 -5 q 144 0 232 0 q 64 -2 113 0 q -7 -4 16 -4 q -8 16 -11 1 q 0 35 -5 30 q 54 41 19 35 q 92 57 88 47 q 118 157 102 76 l 231 736 q 243 837 245 812 q 211 852 242 846 q 160 859 179 859 q 159 878 157 863 q 168 898 162 893 q 316 891 297 891 z "},"":{"ha":425,"x_min":-12,"x_max":469,"o":"m 401 963 q 271 1010 378 963 q 163 1080 163 1057 q 182 1100 163 1091 q 229 1109 200 1109 q 249 1107 236 1109 q 265 1103 262 1105 q 350 1035 292 1086 q 409 977 409 983 q 406 968 409 974 q 401 963 402 963 m 315 891 q 465 898 332 891 q 465 878 469 892 q 456 859 462 864 q 404 852 437 859 q 366 837 370 846 q 340 736 356 818 l 227 157 q 214 57 211 77 q 246 41 214 47 q 296 35 277 35 q 297 16 300 31 q 288 -4 294 1 q 143 3 159 3 q -7 -4 125 3 q -9 16 -12 1 q -1 35 -6 30 q 53 41 18 35 q 92 57 87 47 q 117 157 101 76 l 230 736 q 242 837 245 812 q 210 852 241 846 q 159 859 178 859 q 159 878 156 863 q 168 898 161 893 q 315 891 296 891 z "},"":{"ha":425,"x_min":-12,"x_max":482,"o":"m 245 964 q 240 970 243 964 q 237 978 237 975 q 295 1036 237 985 q 380 1104 354 1087 q 396 1108 383 1106 q 417 1111 410 1111 q 464 1102 446 1111 q 482 1081 482 1093 q 375 1011 482 1059 q 245 964 267 964 m 315 891 q 465 898 332 891 q 465 878 469 892 q 456 859 462 864 q 404 852 437 859 q 366 837 370 846 q 340 736 356 818 l 227 157 q 214 57 211 77 q 246 41 214 47 q 296 35 277 35 q 297 16 300 31 q 288 -4 294 1 q 143 3 159 3 q -7 -4 125 3 q -9 16 -12 1 q -1 35 -6 30 q 53 41 18 35 q 92 57 87 47 q 117 157 101 76 l 230 736 q 242 837 245 812 q 210 852 241 846 q 159 859 178 859 q 159 878 156 863 q 168 898 161 893 q 315 891 296 891 z "},"":{"ha":425,"x_min":-12,"x_max":515,"o":"m 395 1134 q 409 1124 403 1134 q 515 978 455 1050 q 508 968 514 972 q 494 964 501 964 l 374 1044 q 211 964 276 997 q 201 968 205 964 q 197 978 197 972 q 376 1124 293 1049 q 395 1134 387 1134 m 315 891 q 465 898 332 891 q 465 878 469 892 q 456 859 462 864 q 404 852 437 859 q 366 837 370 846 q 340 736 356 818 l 227 157 q 214 57 211 77 q 246 41 214 47 q 296 35 277 35 q 297 16 300 31 q 288 -4 294 1 q 143 3 159 3 q -7 -4 125 3 q -9 16 -12 1 q -1 35 -6 30 q 53 41 18 35 q 92 57 87 47 q 117 157 101 76 l 230 736 q 242 837 245 812 q 210 852 241 846 q 159 859 178 859 q 159 878 156 863 q 168 898 161 893 q 315 891 296 891 z "},"":{"ha":425,"x_min":-12,"x_max":528,"o":"m 315 891 q 465 898 332 891 q 465 878 469 892 q 456 859 462 864 q 404 852 437 859 q 366 837 370 846 q 340 736 356 818 l 227 157 q 214 57 211 77 q 246 41 214 47 q 296 35 277 35 q 297 16 300 31 q 288 -4 294 1 q 143 3 159 3 q -7 -4 125 3 q -9 16 -12 1 q -1 35 -6 30 q 53 41 18 35 q 92 57 87 47 q 117 157 101 76 l 230 736 q 242 837 245 812 q 210 852 241 846 q 159 859 178 859 q 159 878 156 863 q 168 898 161 893 q 315 891 296 891 m 478 1130 q 515 1111 501 1130 q 523 1066 528 1092 q 497 1023 518 1041 q 452 1005 476 1005 q 414 1024 429 1005 q 405 1067 400 1042 q 432 1111 410 1093 q 478 1130 454 1130 m 201 1111 q 212 1121 201 1111 q 246 1130 222 1130 q 283 1111 270 1130 q 292 1066 297 1091 q 267 1023 288 1041 q 222 1005 245 1005 q 184 1024 198 1005 q 174 1067 170 1042 q 201 1111 179 1093 z "},"":{"ha":928,"x_min":-10,"x_max":888,"o":"m 342 741 l 227 152 q 218 96 222 132 q 216 54 213 60 q 315 35 224 35 q 457 59 389 35 q 583 130 525 83 q 684 253 641 177 q 745 425 726 328 q 755 622 766 540 q 702 755 744 703 q 599 831 660 807 q 458 856 538 856 q 368 841 375 856 q 342 741 357 819 m 500 892 q 656 871 586 892 q 772 810 726 849 q 848 716 819 771 q 883 595 878 661 q 876 453 888 529 q 835 317 861 380 q 763 193 809 253 q 655 91 717 134 q 505 22 594 48 q 310 -4 416 -3 l -6 -4 q -7 16 -10 1 q 2 35 -3 30 q 55 41 21 35 q 93 57 89 47 q 119 157 102 76 l 231 736 q 245 837 248 817 q 213 852 244 846 q 162 859 181 859 q 161 878 159 863 q 169 898 163 893 q 317 891 298 891 q 406 892 340 891 q 500 892 471 892 m 108 473 l 555 473 q 562 470 559 473 q 562 463 564 467 q 549 425 557 436 l 100 425 q 96 439 92 425 q 108 473 101 467 z "},"":{"ha":993,"x_min":-19,"x_max":1056,"o":"m 852 734 q 856 831 865 805 q 819 851 851 844 q 765 859 787 859 q 764 879 762 866 q 769 898 766 892 q 907 892 869 892 q 1048 898 932 892 q 1043 859 1056 879 q 987 851 1025 859 q 941 833 949 844 q 925 800 930 818 q 911 741 919 781 l 804 189 q 770 -1 779 58 q 747 -7 765 -7 q 728 2 739 -7 q 711 24 718 11 l 304 772 l 184 156 q 175 99 176 115 q 179 62 174 83 q 217 44 182 53 q 270 35 252 35 q 270 15 273 27 q 264 -4 268 3 q 123 3 139 3 q 77 2 98 3 q 30 -1 56 1 q -16 -4 5 -3 q -17 13 -19 0 q -8 35 -15 25 q 48 43 9 35 q 95 62 87 52 q 126 155 114 88 l 240 743 q 249 801 248 785 q 245 836 250 817 q 208 852 242 846 q 153 859 173 859 q 160 898 147 882 q 275 892 274 892 q 387 898 316 892 q 554 586 408 845 q 751 220 701 328 l 852 734 m 526 1111 q 609 1092 576 1111 q 638 1075 629 1080 q 668 1065 648 1070 q 707 1059 687 1059 q 795 1111 751 1059 q 803 1097 803 1108 q 779 1047 803 1072 q 673 1002 732 1002 q 590 1021 623 1002 q 561 1038 570 1033 q 531 1048 551 1043 q 492 1054 512 1054 q 404 1002 448 1054 q 395 1016 395 1006 q 420 1066 395 1040 q 526 1111 467 1111 z "},"":{"ha":963,"x_min":83,"x_max":911,"o":"m 551 861 q 426 823 487 861 q 316 720 364 785 q 239 561 269 654 q 210 363 210 467 q 217 268 210 313 q 240 177 223 222 q 282 99 256 132 q 349 45 307 66 q 445 24 391 24 q 585 70 520 24 q 692 188 650 115 q 760 351 735 260 q 784 533 784 441 q 778 618 784 576 q 756 705 772 659 q 715 784 741 750 q 648 839 690 817 q 551 861 606 861 m 563 902 q 747 851 667 902 q 869 713 827 800 q 911 518 911 627 q 873 301 911 402 q 770 132 835 201 q 617 24 705 63 q 433 -15 530 -15 q 245 37 326 -15 q 124 176 165 89 q 83 370 83 262 q 123 585 83 484 q 230 754 163 685 q 384 862 296 823 q 563 902 471 902 m 621 963 q 491 1010 599 963 q 384 1080 384 1057 q 402 1100 384 1091 q 449 1109 420 1109 q 470 1107 456 1109 q 486 1103 483 1105 q 571 1035 512 1086 q 629 977 629 983 q 626 968 629 974 q 621 963 623 963 z "},"":{"ha":963,"x_min":83,"x_max":911,"o":"m 551 861 q 426 823 487 861 q 316 720 364 785 q 239 561 269 654 q 210 363 210 467 q 217 268 210 313 q 240 177 223 222 q 282 99 256 132 q 349 45 307 66 q 445 24 391 24 q 585 70 520 24 q 692 188 650 115 q 760 351 735 260 q 784 533 784 441 q 778 618 784 576 q 756 705 772 659 q 715 784 741 750 q 648 839 690 817 q 551 861 606 861 m 563 902 q 747 851 667 902 q 869 713 827 800 q 911 518 911 627 q 873 301 911 402 q 770 132 835 201 q 617 24 705 63 q 433 -15 530 -15 q 245 37 326 -15 q 124 176 165 89 q 83 370 83 262 q 123 585 83 484 q 230 754 163 685 q 384 862 296 823 q 563 902 471 902 m 487 964 q 482 970 486 964 q 479 978 479 975 q 537 1036 479 985 q 623 1104 596 1087 q 638 1108 625 1106 q 659 1111 652 1111 q 706 1102 688 1111 q 724 1081 724 1093 q 617 1011 724 1059 q 487 964 509 964 z "},"":{"ha":963,"x_min":83,"x_max":911,"o":"m 551 861 q 426 823 487 861 q 316 720 364 785 q 239 561 269 654 q 210 363 210 467 q 217 268 210 313 q 240 177 223 222 q 282 99 256 132 q 349 45 307 66 q 445 24 391 24 q 585 70 520 24 q 692 188 650 115 q 760 351 735 260 q 784 533 784 441 q 778 618 784 576 q 756 705 772 659 q 715 784 741 750 q 648 839 690 817 q 551 861 606 861 m 563 902 q 747 851 667 902 q 869 713 827 800 q 911 518 911 627 q 873 301 911 402 q 770 132 835 201 q 617 24 705 63 q 433 -15 530 -15 q 245 37 326 -15 q 124 176 165 89 q 83 370 83 262 q 123 585 83 484 q 230 754 163 685 q 384 862 296 823 q 563 902 471 902 m 616 1134 q 629 1124 623 1134 q 735 978 675 1050 q 728 968 734 972 q 715 964 722 964 l 594 1044 q 431 964 496 997 q 421 968 425 964 q 418 978 417 972 q 597 1124 513 1049 q 616 1134 608 1134 z "},"":{"ha":963,"x_min":83,"x_max":911,"o":"m 551 861 q 426 823 487 861 q 316 720 364 785 q 239 561 269 654 q 210 363 210 467 q 217 268 210 313 q 240 177 223 222 q 282 99 256 132 q 349 45 307 66 q 445 24 391 24 q 585 70 520 24 q 692 188 650 115 q 760 351 735 260 q 784 533 784 441 q 778 618 784 576 q 756 705 772 659 q 715 784 741 750 q 648 839 690 817 q 551 861 606 861 m 563 902 q 747 851 667 902 q 869 713 827 800 q 911 518 911 627 q 873 301 911 402 q 770 132 835 201 q 617 24 705 63 q 433 -15 530 -15 q 245 37 326 -15 q 124 176 165 89 q 83 370 83 262 q 123 585 83 484 q 230 754 163 685 q 384 862 296 823 q 563 902 471 902 m 505 1111 q 587 1092 554 1111 q 617 1075 607 1080 q 646 1065 627 1070 q 685 1059 665 1059 q 773 1111 729 1059 q 781 1097 781 1108 q 757 1047 781 1072 q 651 1002 710 1002 q 568 1021 602 1002 q 539 1038 549 1033 q 510 1048 529 1043 q 471 1054 490 1054 q 382 1002 427 1054 q 373 1016 373 1006 q 399 1066 373 1040 q 505 1111 446 1111 z "},"":{"ha":963,"x_min":83,"x_max":911,"o":"m 551 861 q 426 823 487 861 q 316 720 364 785 q 239 561 269 654 q 210 363 210 467 q 217 268 210 313 q 240 177 223 222 q 282 99 256 132 q 349 45 307 66 q 445 24 391 24 q 585 70 520 24 q 692 188 650 115 q 760 351 735 260 q 784 533 784 441 q 778 618 784 576 q 756 705 772 659 q 715 784 741 750 q 648 839 690 817 q 551 861 606 861 m 563 902 q 747 851 667 902 q 869 713 827 800 q 911 518 911 627 q 873 301 911 402 q 770 132 835 201 q 617 24 705 63 q 433 -15 530 -15 q 245 37 326 -15 q 124 176 165 89 q 83 370 83 262 q 123 585 83 484 q 230 754 163 685 q 384 862 296 823 q 563 902 471 902 m 627 1055 q 654 1103 631 1084 q 703 1123 676 1123 q 744 1103 729 1123 q 753 1055 758 1084 q 726 1007 748 1027 q 677 987 703 987 q 636 1007 650 987 q 627 1055 621 1027 m 399 1055 q 426 1103 404 1084 q 475 1123 448 1123 q 516 1103 501 1123 q 525 1055 530 1084 q 497 1007 520 1027 q 448 987 474 987 q 407 1007 421 987 q 399 1055 393 1027 z "},"":{"ha":557,"x_min":19,"x_max":524,"o":"m 37 92 q 25 111 31 92 q 19 146 19 130 l 228 330 q 231 334 231 332 q 224 346 231 339 l 92 526 q 107 555 92 539 q 129 571 122 571 q 131 570 130 571 q 133 568 132 570 q 134 566 134 566 l 275 374 q 281 372 278 372 l 283 373 l 498 564 q 506 568 502 568 q 518 550 513 568 q 524 513 524 532 l 316 328 l 313 326 q 315 323 313 324 l 450 138 q 439 109 450 125 q 420 92 428 92 q 411 96 413 92 l 271 286 q 267 289 269 289 q 262 286 264 289 l 43 96 q 37 92 39 92 z "},"":{"ha":963,"x_min":83,"x_max":911,"o":"m 551 861 q 426 823 487 861 q 316 720 364 785 q 239 561 269 654 q 210 363 210 467 q 217 268 210 313 q 240 177 223 222 q 282 99 256 132 q 349 45 307 66 q 445 24 391 24 q 585 70 520 24 q 692 188 650 115 q 760 351 735 260 q 784 533 784 441 q 778 618 784 576 q 756 705 772 659 q 715 784 741 750 q 648 839 690 817 q 551 861 606 861 m 563 902 q 747 851 667 902 q 869 713 827 800 q 911 518 911 627 q 873 301 911 402 q 770 132 835 201 q 617 24 705 63 q 433 -15 530 -15 q 245 37 326 -15 q 124 176 165 89 q 83 370 83 262 q 123 585 83 484 q 230 754 163 685 q 384 862 296 823 q 563 902 471 902 m 160 -18 q 138 -3 150 -14 q 130 14 125 8 l 830 905 q 853 891 840 902 q 861 875 867 880 l 160 -18 z "},"":{"ha":897,"x_min":101,"x_max":981,"o":"m 294 891 q 443 898 311 891 q 444 878 447 892 q 435 859 440 864 q 382 852 416 859 q 344 837 348 846 q 318 736 334 818 l 253 401 q 261 163 222 241 q 424 73 305 73 q 516 87 475 73 q 593 135 557 102 q 657 227 630 168 q 703 372 685 286 l 774 739 q 784 796 783 781 q 780 833 785 812 q 745 851 777 842 q 694 860 713 860 q 694 880 692 868 q 700 899 696 892 q 742 897 716 899 q 789 893 768 895 q 836 892 810 892 q 882 893 861 892 q 928 897 903 895 q 974 899 953 899 q 967 860 981 882 q 910 852 949 860 q 863 833 871 844 q 846 800 852 818 q 833 741 840 781 l 761 374 q 628 85 722 176 q 382 -5 534 -5 q 168 92 237 -5 q 131 340 101 187 l 208 736 q 222 837 224 817 q 190 852 221 846 q 139 859 158 859 q 138 878 136 863 q 147 898 141 893 q 294 891 276 891 m 648 963 q 518 1010 625 963 q 410 1080 410 1057 q 429 1100 410 1091 q 475 1109 447 1109 q 496 1107 483 1109 q 512 1103 509 1105 q 597 1035 538 1086 q 656 977 656 983 q 652 968 656 974 q 648 963 649 963 z "},"":{"ha":897,"x_min":101,"x_max":981,"o":"m 294 891 q 443 898 311 891 q 444 878 447 892 q 435 859 440 864 q 382 852 416 859 q 344 837 348 846 q 318 736 334 818 l 253 401 q 261 163 222 241 q 424 73 305 73 q 516 87 475 73 q 593 135 557 102 q 657 227 630 168 q 703 372 685 286 l 774 739 q 784 796 783 781 q 780 833 785 812 q 745 851 777 842 q 694 860 713 860 q 694 880 692 868 q 700 899 696 892 q 742 897 716 899 q 789 893 768 895 q 836 892 810 892 q 882 893 861 892 q 928 897 903 895 q 974 899 953 899 q 967 860 981 882 q 910 852 949 860 q 863 833 871 844 q 846 800 852 818 q 833 741 840 781 l 761 374 q 628 85 722 176 q 382 -5 534 -5 q 168 92 237 -5 q 131 340 101 187 l 208 736 q 222 837 224 817 q 190 852 221 846 q 139 859 158 859 q 138 878 136 863 q 147 898 141 893 q 294 891 276 891 m 555 964 q 551 970 554 964 q 547 978 547 975 q 606 1036 547 985 q 691 1104 665 1087 q 707 1108 694 1106 q 728 1111 720 1111 q 774 1102 756 1111 q 793 1081 793 1093 q 685 1011 793 1059 q 555 964 578 964 z "},"":{"ha":897,"x_min":101,"x_max":981,"o":"m 294 891 q 443 898 311 891 q 444 878 447 892 q 435 859 440 864 q 382 852 416 859 q 344 837 348 846 q 318 736 334 818 l 253 401 q 261 163 222 241 q 424 73 305 73 q 516 87 475 73 q 593 135 557 102 q 657 227 630 168 q 703 372 685 286 l 774 739 q 784 796 783 781 q 780 833 785 812 q 745 851 777 842 q 694 860 713 860 q 694 880 692 868 q 700 899 696 892 q 742 897 716 899 q 789 893 768 895 q 836 892 810 892 q 882 893 861 892 q 928 897 903 895 q 974 899 953 899 q 967 860 981 882 q 910 852 949 860 q 863 833 871 844 q 846 800 852 818 q 833 741 840 781 l 761 374 q 628 85 722 176 q 382 -5 534 -5 q 168 92 237 -5 q 131 340 101 187 l 208 736 q 222 837 224 817 q 190 852 221 846 q 139 859 158 859 q 138 878 136 863 q 147 898 141 893 q 294 891 276 891 m 621 1134 q 634 1124 628 1134 q 740 978 680 1050 q 733 968 739 972 q 720 964 726 964 l 599 1044 q 436 964 501 997 q 426 968 430 964 q 422 978 422 972 q 602 1124 518 1049 q 621 1134 612 1134 z "},"":{"ha":897,"x_min":101,"x_max":981,"o":"m 294 891 q 443 898 311 891 q 444 878 447 892 q 435 859 440 864 q 382 852 416 859 q 344 837 348 846 q 318 736 334 818 l 253 401 q 261 163 222 241 q 424 73 305 73 q 516 87 475 73 q 593 135 557 102 q 657 227 630 168 q 703 372 685 286 l 774 739 q 784 796 783 781 q 780 833 785 812 q 745 851 777 842 q 694 860 713 860 q 694 880 692 868 q 700 899 696 892 q 742 897 716 899 q 789 893 768 895 q 836 892 810 892 q 882 893 861 892 q 928 897 903 895 q 974 899 953 899 q 967 860 981 882 q 910 852 949 860 q 863 833 871 844 q 846 800 852 818 q 833 741 840 781 l 761 374 q 628 85 722 176 q 382 -5 534 -5 q 168 92 237 -5 q 131 340 101 187 l 208 736 q 222 837 224 817 q 190 852 221 846 q 139 859 158 859 q 138 878 136 863 q 147 898 141 893 q 294 891 276 891 m 653 1055 q 680 1103 658 1084 q 729 1123 703 1123 q 770 1103 755 1123 q 779 1055 785 1084 q 752 1007 774 1027 q 703 987 730 987 q 662 1007 677 987 q 653 1055 648 1027 m 425 1055 q 452 1103 430 1084 q 501 1123 475 1123 q 542 1103 528 1123 q 551 1055 557 1084 q 524 1007 547 1027 q 474 987 500 987 q 434 1007 448 987 q 425 1055 420 1027 z "},"":{"ha":754,"x_min":77,"x_max":861,"o":"m 286 157 l 326 362 q 324 400 329 385 l 212 743 q 185 800 200 780 q 146 837 171 820 q 113 852 133 846 q 80 859 93 859 q 77 867 77 860 q 81 885 77 875 q 88 898 84 895 q 139 895 109 897 q 193 892 169 893 q 244 891 216 891 q 407 898 278 891 q 405 874 408 890 q 397 859 402 859 q 369 856 385 859 q 335 842 353 852 q 313 815 317 831 q 320 774 311 805 l 429 448 q 571 655 493 538 q 667 803 650 772 q 675 823 673 812 q 670 836 676 829 q 643 850 664 843 q 590 857 622 857 q 590 877 587 861 q 595 897 592 892 q 722 890 711 890 q 772 891 751 890 q 819 894 794 892 q 861 897 844 896 q 857 874 861 892 q 850 857 853 857 q 832 856 842 857 q 803 851 823 855 q 763 834 783 846 q 730 803 743 822 l 452 408 q 445 395 447 401 q 440 378 442 389 q 438 366 438 367 l 396 157 q 382 57 380 77 q 415 41 383 47 q 465 35 446 35 q 467 16 469 31 q 458 -4 465 1 q 312 3 330 3 q 161 -4 294 3 q 161 16 157 1 q 170 35 164 30 q 222 41 189 35 q 260 57 256 47 q 286 157 270 76 m 460 964 q 455 970 458 964 q 452 978 452 975 q 510 1036 452 985 q 595 1104 569 1087 q 611 1108 598 1106 q 632 1111 625 1111 q 679 1102 661 1111 q 697 1081 697 1093 q 590 1011 697 1059 q 460 964 482 964 z "},"":{"ha":637,"x_min":-11,"x_max":670,"o":"m 317 621 q 228 157 317 621 q 214 57 212 77 q 247 41 215 47 q 297 35 278 35 q 298 16 300 31 q 289 -4 295 1 q 144 3 160 3 q -7 -4 125 3 q -8 16 -11 1 q 0 35 -5 30 q 54 41 19 35 q 92 57 88 47 q 118 157 102 76 l 231 736 q 243 837 245 812 q 211 852 242 846 q 160 859 179 859 q 159 878 157 863 q 168 898 162 893 q 316 891 297 891 q 465 898 333 891 q 466 878 469 892 q 457 859 463 864 q 404 852 438 859 q 366 837 370 846 q 340 736 357 818 l 328 678 q 425 693 366 693 q 602 637 533 693 q 670 488 670 581 q 626 333 670 404 q 509 222 581 262 q 354 182 436 182 q 317 186 334 182 q 293 195 299 191 q 282 217 282 206 q 288 222 282 220 q 332 217 298 217 q 409 235 370 217 q 478 286 447 254 q 530 366 510 318 q 549 469 549 414 q 392 654 549 654 q 374 653 384 654 q 352 649 365 652 q 329 638 338 646 q 317 621 319 631 z "},"":{"ha":678,"x_min":-170,"x_max":614,"o":"m 277 560 q 234 325 264 494 q 184 58 203 156 q 70 -210 153 -104 q -96 -316 -12 -316 q -170 -282 -151 -316 q -168 -259 -170 -267 q -129 -206 -160 -206 q -108 -211 -118 -206 q -93 -221 -98 -216 q -77 -237 -87 -227 q -38 -258 -57 -258 q 25 -189 0 -258 q 84 53 50 -120 l 165 510 l 50 510 q 47 514 47 510 q 68 543 47 526 q 110 560 88 560 l 174 560 q 288 825 205 722 q 454 929 370 929 q 509 920 481 929 q 560 893 536 911 q 599 845 584 876 q 614 776 614 814 q 606 714 614 742 q 583 664 599 686 q 555 630 566 642 q 522 600 544 618 q 496 578 500 582 q 434 514 447 532 q 420 477 420 494 q 424 456 420 467 q 436 433 428 446 q 452 413 445 421 q 472 390 459 405 q 492 369 486 376 q 518 339 499 360 q 546 308 538 318 q 568 279 554 298 q 589 244 583 259 q 600 208 595 229 q 606 165 606 187 q 552 43 606 92 q 418 -5 499 -5 q 283 43 332 -5 q 275 79 274 70 q 291 120 277 106 q 329 134 306 134 q 355 119 342 134 q 378 85 368 103 q 406 51 388 66 q 447 35 425 35 q 503 59 485 35 q 520 119 520 83 q 511 163 520 140 q 481 215 501 187 q 451 255 461 242 q 418 293 440 268 q 389 328 397 317 q 367 358 380 338 q 348 398 353 378 q 342 439 342 417 q 346 471 342 458 q 359 498 349 484 q 379 522 370 513 q 411 552 387 530 q 450 590 434 574 q 503 659 484 624 q 522 742 522 694 q 487 836 522 801 q 408 871 452 871 q 336 800 364 871 q 277 560 308 730 z "},"":{"ha":609,"x_min":26,"x_max":553,"o":"m 414 590 q 519 572 471 590 l 437 144 q 433 125 435 136 q 431 99 431 113 q 434 76 430 85 q 445 66 437 66 q 461 72 452 66 q 481 86 471 78 q 502 104 491 94 q 519 123 512 115 q 533 138 526 132 l 540 145 q 548 135 543 145 q 553 119 553 125 q 477 41 536 91 q 376 -8 418 -8 q 342 12 355 -8 q 330 62 330 31 q 339 134 330 84 q 346 176 345 167 q 314 126 334 154 q 266 67 294 99 q 207 14 239 35 q 146 -7 174 -7 q 59 37 92 -7 q 26 153 26 81 q 63 320 26 238 q 158 461 100 403 q 283 554 215 519 q 414 590 352 590 m 351 536 q 248 486 300 536 q 160 358 195 436 q 126 205 126 281 q 195 72 126 72 q 268 120 228 72 q 340 237 309 168 q 385 372 372 307 l 414 515 q 386 530 406 525 q 351 536 367 536 m 450 681 q 331 741 432 681 q 229 818 229 800 q 247 849 229 839 q 282 859 264 859 q 332 845 313 859 q 404 769 347 835 q 461 694 461 703 q 457 686 461 691 q 450 681 453 681 z "},"":{"ha":609,"x_min":26,"x_max":560,"o":"m 414 590 q 519 572 471 590 l 437 144 q 433 125 435 136 q 431 99 431 113 q 434 76 430 85 q 445 66 437 66 q 461 72 452 66 q 481 86 471 78 q 502 104 491 94 q 519 123 512 115 q 533 138 526 132 l 540 145 q 548 135 543 145 q 553 119 553 125 q 477 41 536 91 q 376 -8 418 -8 q 342 12 355 -8 q 330 62 330 31 q 339 134 330 84 q 346 176 345 167 q 314 126 334 154 q 266 67 294 99 q 207 14 239 35 q 146 -7 174 -7 q 59 37 92 -7 q 26 153 26 81 q 63 320 26 238 q 158 461 100 403 q 283 554 215 519 q 414 590 352 590 m 351 536 q 248 486 300 536 q 160 358 195 436 q 126 205 126 281 q 195 72 126 72 q 268 120 228 72 q 340 237 309 168 q 385 372 372 307 l 414 515 q 386 530 406 525 q 351 536 367 536 m 339 681 q 332 686 336 681 q 328 694 328 691 q 386 769 328 703 q 457 845 443 835 q 507 859 477 859 q 543 849 525 859 q 560 818 560 839 q 459 741 560 800 q 339 681 357 681 z "},"":{"ha":609,"x_min":26,"x_max":553,"o":"m 401 853 q 414 842 408 853 q 506 685 457 761 q 499 674 505 679 q 488 670 494 670 l 382 757 q 240 670 293 704 q 231 674 235 670 q 228 685 227 679 q 385 842 325 778 q 401 853 396 853 m 414 590 q 519 572 471 590 l 437 144 q 433 125 435 136 q 431 99 431 113 q 434 76 430 85 q 445 66 437 66 q 461 72 452 66 q 481 86 471 78 q 502 104 491 94 q 519 123 512 115 q 533 138 526 132 l 540 145 q 548 135 543 145 q 553 119 553 125 q 477 41 536 91 q 376 -8 418 -8 q 342 12 355 -8 q 330 62 330 31 q 339 134 330 84 q 346 176 345 167 q 314 126 334 154 q 266 67 294 99 q 207 14 239 35 q 146 -7 174 -7 q 59 37 92 -7 q 26 153 26 81 q 63 320 26 238 q 158 461 100 403 q 283 554 215 519 q 414 590 352 590 m 351 536 q 248 486 300 536 q 160 358 195 436 q 126 205 126 281 q 195 72 126 72 q 268 120 228 72 q 340 237 309 168 q 385 372 372 307 l 414 515 q 386 530 406 525 q 351 536 367 536 z "},"":{"ha":609,"x_min":26,"x_max":570,"o":"m 308 792 q 384 774 349 792 q 407 762 389 772 q 440 748 426 752 q 472 743 454 743 q 560 792 511 743 q 568 780 570 789 q 540 730 564 751 q 434 686 493 686 q 359 705 400 686 q 341 715 357 707 q 318 726 325 723 q 297 732 311 728 q 269 735 282 735 q 180 686 229 735 q 174 700 172 689 q 201 749 178 728 q 308 792 248 792 m 414 590 q 519 572 471 590 l 437 144 q 433 125 435 136 q 431 99 431 113 q 434 76 430 85 q 445 66 437 66 q 461 72 452 66 q 481 86 471 78 q 502 104 491 94 q 519 123 512 115 q 533 138 526 132 l 540 145 q 548 135 543 145 q 553 119 553 125 q 477 41 536 91 q 376 -8 418 -8 q 342 12 355 -8 q 330 62 330 31 q 339 134 330 84 q 346 176 345 167 q 314 126 334 154 q 266 67 294 99 q 207 14 239 35 q 146 -7 174 -7 q 59 37 92 -7 q 26 153 26 81 q 63 320 26 238 q 158 461 100 403 q 283 554 215 519 q 414 590 352 590 m 351 536 q 248 486 300 536 q 160 358 195 436 q 126 205 126 281 q 195 72 126 72 q 268 120 228 72 q 340 237 309 168 q 385 372 372 307 l 414 515 q 386 530 406 525 q 351 536 367 536 z "},"":{"ha":609,"x_min":26,"x_max":555,"o":"m 414 590 q 519 572 471 590 l 437 144 q 433 125 435 136 q 431 99 431 113 q 434 76 430 85 q 445 66 437 66 q 461 72 452 66 q 481 86 471 78 q 502 104 491 94 q 519 123 512 115 q 533 138 526 132 l 540 145 q 548 135 543 145 q 553 119 553 125 q 477 41 536 91 q 376 -8 418 -8 q 342 12 355 -8 q 330 62 330 31 q 339 134 330 84 q 346 176 345 167 q 314 126 334 154 q 266 67 294 99 q 207 14 239 35 q 146 -7 174 -7 q 59 37 92 -7 q 26 153 26 81 q 63 320 26 238 q 158 461 100 403 q 283 554 215 519 q 414 590 352 590 m 351 536 q 248 486 300 536 q 160 358 195 436 q 126 205 126 281 q 195 72 126 72 q 268 120 228 72 q 340 237 309 168 q 385 372 372 307 l 414 515 q 386 530 406 525 q 351 536 367 536 m 505 818 q 541 799 528 818 q 549 754 555 780 q 524 711 545 729 q 479 693 503 693 q 441 712 455 693 q 431 755 427 730 q 458 799 436 781 q 505 818 481 818 m 227 799 q 238 809 227 799 q 273 818 249 818 q 310 799 296 818 q 319 754 323 779 q 293 711 314 729 q 248 693 272 693 q 210 712 224 693 q 201 755 196 730 q 227 799 205 781 z "},"":{"ha":609,"x_min":26,"x_max":553,"o":"m 371 848 q 359 837 371 848 q 340 795 347 826 q 350 741 334 764 q 395 719 366 719 q 448 741 423 719 q 479 795 473 764 q 469 848 485 826 q 425 869 453 869 q 371 848 396 869 m 314 709 q 301 727 314 709 q 298 795 288 745 q 348 880 309 844 q 434 916 388 916 q 505 880 479 916 q 519 795 530 845 q 471 709 509 745 q 387 673 432 673 q 314 709 340 673 m 414 590 q 519 572 471 590 l 437 144 q 433 125 435 136 q 431 99 431 113 q 434 76 430 85 q 445 66 437 66 q 461 72 452 66 q 481 86 471 78 q 502 104 491 94 q 519 123 512 115 q 533 138 526 132 l 540 145 q 548 135 543 145 q 553 119 553 125 q 477 41 536 91 q 376 -8 418 -8 q 342 12 355 -8 q 330 62 330 31 q 339 134 330 84 q 346 176 345 167 q 314 126 334 154 q 266 67 294 99 q 207 14 239 35 q 146 -7 174 -7 q 59 37 92 -7 q 26 153 26 81 q 63 320 26 238 q 158 461 100 403 q 283 554 215 519 q 414 590 352 590 m 351 536 q 248 486 300 536 q 160 358 195 436 q 126 205 126 281 q 195 72 126 72 q 268 120 228 72 q 340 237 309 168 q 385 372 372 307 l 414 515 q 386 530 406 525 q 351 536 367 536 z "},"":{"ha":758,"x_min":8,"x_max":727,"o":"m 571 534 q 496 498 531 534 q 441 413 461 463 q 415 312 422 363 q 471 325 436 312 q 541 358 505 337 q 601 412 576 379 q 627 480 627 445 q 610 519 627 505 q 571 534 593 534 m 294 146 l 315 273 q 182 231 233 257 q 111 137 111 194 q 129 83 111 104 q 172 62 146 62 q 247 98 201 62 q 294 146 293 134 m 340 590 q 407 562 380 590 q 438 496 434 534 q 528 563 473 536 q 635 590 583 590 q 680 582 661 590 q 707 565 699 574 q 721 541 716 555 q 726 519 726 526 q 727 502 727 511 q 692 418 727 460 q 605 346 656 376 q 500 296 553 316 q 408 270 448 275 q 403 214 403 237 q 427 110 403 148 q 498 72 450 72 q 520 76 508 72 q 543 85 532 79 q 565 100 553 92 q 586 117 577 109 q 605 134 595 125 q 620 149 614 142 q 631 160 625 155 l 636 165 q 646 156 640 165 q 652 138 652 146 q 553 37 612 81 q 445 -8 494 -8 q 359 20 401 -8 q 304 95 317 48 q 217 30 286 71 q 122 -11 149 -11 q 41 19 75 -11 q 8 109 8 50 q 33 187 8 151 q 88 244 58 224 q 140 264 97 250 q 242 295 184 278 q 315 317 300 313 q 320 321 318 318 q 323 327 322 324 q 325 337 323 330 q 327 349 326 344 l 342 430 q 345 458 345 441 q 323 512 345 486 q 269 538 302 538 q 222 519 239 538 q 191 460 205 500 q 122 399 168 399 q 91 438 91 399 q 106 483 91 459 q 215 554 148 519 q 340 590 282 590 z "},"":{"ha":487,"x_min":33,"x_max":469,"o":"m 172 -30 l 203 -30 q 239 -50 227 -30 q 246 -96 252 -69 q 198 -171 237 -143 q 108 -199 158 -199 q 67 -187 83 -199 l 67 -168 q 75 -155 68 -161 q 87 -149 81 -149 q 107 -158 94 -149 q 131 -167 120 -167 q 174 -154 156 -167 q 195 -122 191 -140 q 189 -88 199 -100 q 165 -76 179 -76 q 130 -85 153 -76 q 122 -78 127 -85 q 120 -68 117 -71 q 148 -34 127 -58 q 174 1 168 -9 l 200 1 l 172 -30 m 373 590 q 457 556 417 590 q 469 519 469 540 q 457 476 469 494 q 423 458 446 458 q 395 466 409 458 q 374 486 381 473 q 358 509 365 500 q 337 526 352 517 q 304 534 322 534 q 247 510 276 534 q 193 446 217 486 q 154 345 169 405 q 138 220 138 286 q 141 176 138 197 q 153 129 144 155 q 182 87 161 103 q 232 72 202 72 q 255 76 243 72 q 279 86 268 80 q 302 101 290 92 q 323 117 314 109 q 342 134 332 125 q 357 149 351 143 q 367 160 362 155 l 372 165 q 381 155 375 165 q 388 138 388 144 q 361 104 381 127 q 313 56 341 82 q 249 11 284 30 q 183 -8 213 -8 q 72 43 111 -8 q 33 190 33 95 q 66 343 33 268 q 150 472 100 419 q 261 557 201 525 q 373 590 321 590 z "},"":{"ha":492,"x_min":31,"x_max":461,"o":"m 372 590 q 440 566 419 590 q 461 506 461 541 q 423 413 461 460 q 332 335 385 367 q 225 282 279 302 q 140 262 172 262 q 137 218 137 254 q 160 112 137 152 q 231 72 182 72 q 254 76 241 72 q 278 86 267 80 q 301 101 289 92 q 322 117 313 109 q 340 134 331 125 q 355 149 350 143 q 366 160 361 155 l 370 165 q 380 155 374 165 q 387 138 387 144 q 358 102 378 125 q 309 54 338 80 q 245 10 281 28 q 180 -8 210 -8 q 70 43 109 -8 q 31 189 31 94 q 63 335 31 261 q 143 465 94 410 q 253 555 191 520 q 372 590 314 590 m 142 296 q 199 311 163 296 q 271 350 235 326 q 334 409 308 374 q 361 480 361 445 q 343 520 361 506 q 304 534 326 534 q 240 507 271 534 q 190 441 210 480 q 158 363 170 401 q 142 296 145 324 m 406 681 q 286 741 387 681 q 184 818 184 800 q 202 849 184 839 q 237 859 220 859 q 288 845 268 859 q 359 769 302 835 q 416 694 416 703 q 412 686 416 691 q 406 681 408 681 z "},"":{"ha":492,"x_min":31,"x_max":526,"o":"m 372 590 q 440 566 419 590 q 461 506 461 541 q 423 413 461 460 q 332 335 385 367 q 225 282 279 302 q 140 262 172 262 q 137 218 137 254 q 160 112 137 152 q 231 72 182 72 q 254 76 241 72 q 278 86 267 80 q 301 101 289 92 q 322 117 313 109 q 340 134 331 125 q 355 149 350 143 q 366 160 361 155 l 370 165 q 380 155 374 165 q 387 138 387 144 q 358 102 378 125 q 309 54 338 80 q 245 10 281 28 q 180 -8 210 -8 q 70 43 109 -8 q 31 189 31 94 q 63 335 31 261 q 143 465 94 410 q 253 555 191 520 q 372 590 314 590 m 142 296 q 199 311 163 296 q 271 350 235 326 q 334 409 308 374 q 361 480 361 445 q 343 520 361 506 q 304 534 326 534 q 240 507 271 534 q 190 441 210 480 q 158 363 170 401 q 142 296 145 324 m 305 681 q 298 686 302 681 q 294 694 294 691 q 352 769 294 703 q 423 845 409 835 q 473 859 443 859 q 509 849 491 859 q 526 818 526 839 q 425 741 526 800 q 305 681 323 681 z "},"":{"ha":492,"x_min":31,"x_max":472,"o":"m 368 853 q 380 842 374 853 q 472 685 423 761 q 466 674 471 679 q 454 670 460 670 l 349 757 q 206 670 259 704 q 197 674 201 670 q 194 685 193 679 q 351 842 291 778 q 368 853 362 853 m 372 590 q 440 566 419 590 q 461 506 461 541 q 423 413 461 460 q 332 335 385 367 q 225 282 279 302 q 140 262 172 262 q 137 218 137 254 q 160 112 137 152 q 231 72 182 72 q 254 76 241 72 q 278 86 267 80 q 301 101 289 92 q 322 117 313 109 q 340 134 331 125 q 355 149 350 143 q 366 160 361 155 l 370 165 q 380 155 374 165 q 387 138 387 144 q 358 102 378 125 q 309 54 338 80 q 245 10 281 28 q 180 -8 210 -8 q 70 43 109 -8 q 31 189 31 94 q 63 335 31 261 q 143 465 94 410 q 253 555 191 520 q 372 590 314 590 m 142 296 q 199 311 163 296 q 271 350 235 326 q 334 409 308 374 q 361 480 361 445 q 343 520 361 506 q 304 534 326 534 q 240 507 271 534 q 190 441 210 480 q 158 363 170 401 q 142 296 145 324 z "},"":{"ha":492,"x_min":31,"x_max":507,"o":"m 372 590 q 440 566 419 590 q 461 506 461 541 q 423 413 461 460 q 332 335 385 367 q 225 282 279 302 q 140 262 172 262 q 137 218 137 254 q 160 112 137 152 q 231 72 182 72 q 254 76 241 72 q 278 86 267 80 q 301 101 289 92 q 322 117 313 109 q 340 134 331 125 q 355 149 350 143 q 366 160 361 155 l 370 165 q 380 155 374 165 q 387 138 387 144 q 358 102 378 125 q 309 54 338 80 q 245 10 281 28 q 180 -8 210 -8 q 70 43 109 -8 q 31 189 31 94 q 63 335 31 261 q 143 465 94 410 q 253 555 191 520 q 372 590 314 590 m 142 296 q 199 311 163 296 q 271 350 235 326 q 334 409 308 374 q 361 480 361 445 q 343 520 361 506 q 304 534 326 534 q 240 507 271 534 q 190 441 210 480 q 158 363 170 401 q 142 296 145 324 m 457 818 q 494 799 480 818 q 502 754 507 780 q 476 711 497 729 q 431 693 455 693 q 393 712 408 693 q 384 755 379 730 q 411 799 389 781 q 457 818 433 818 m 180 799 q 191 809 180 799 q 225 818 201 818 q 262 799 249 818 q 271 754 276 779 q 245 711 267 729 q 201 693 224 693 q 163 712 177 693 q 153 755 149 730 q 180 799 158 781 z "},"":{"ha":355,"x_min":38,"x_max":300,"o":"m 155 438 q 160 481 160 471 q 146 515 160 515 q 130 510 140 515 q 110 496 120 504 q 90 477 100 488 q 72 459 79 467 q 58 444 65 450 l 52 437 q 43 447 48 437 q 38 463 38 456 q 112 541 56 492 q 209 590 168 590 q 246 570 231 590 q 262 519 262 549 q 252 448 262 498 l 183 144 q 178 100 178 117 q 191 66 178 66 q 208 72 198 66 q 228 86 218 78 q 248 104 237 94 q 266 123 258 115 q 279 138 273 132 l 286 145 q 295 135 290 145 q 300 119 300 125 q 223 41 283 91 q 122 -8 164 -8 q 89 12 101 -8 q 76 62 76 31 q 85 134 76 84 l 155 438 m 260 636 q 141 696 242 636 q 39 773 39 755 q 57 804 39 794 q 92 814 75 814 q 142 800 123 814 q 214 724 157 790 q 271 650 271 658 q 267 641 271 646 q 260 636 263 636 z "},"":{"ha":355,"x_min":38,"x_max":365,"o":"m 155 438 q 160 481 160 471 q 146 515 160 515 q 130 510 140 515 q 110 496 120 504 q 90 477 100 488 q 72 459 79 467 q 58 444 65 450 l 52 437 q 43 447 48 437 q 38 463 38 456 q 112 541 56 492 q 209 590 168 590 q 246 570 231 590 q 262 519 262 549 q 252 448 262 498 l 183 144 q 178 100 178 117 q 191 66 178 66 q 208 72 198 66 q 228 86 218 78 q 248 104 237 94 q 266 123 258 115 q 279 138 273 132 l 286 145 q 295 135 290 145 q 300 119 300 125 q 223 41 283 91 q 122 -8 164 -8 q 89 12 101 -8 q 76 62 76 31 q 85 134 76 84 l 155 438 m 144 681 q 137 686 141 681 q 133 694 133 691 q 190 769 133 703 q 262 845 248 835 q 312 859 281 859 q 347 849 330 859 q 365 818 365 839 q 263 741 365 800 q 144 681 162 681 z "},"":{"ha":355,"x_min":38,"x_max":349,"o":"m 244 853 q 256 842 251 853 q 349 685 300 761 q 342 674 348 679 q 331 670 336 670 l 225 757 q 83 670 136 704 q 74 674 77 670 q 71 685 70 679 q 228 842 168 778 q 244 853 239 853 m 155 438 q 160 481 160 471 q 146 515 160 515 q 130 510 140 515 q 110 496 120 504 q 90 477 100 488 q 72 459 79 467 q 58 444 65 450 l 52 437 q 43 447 48 437 q 38 463 38 456 q 112 541 56 492 q 209 590 168 590 q 246 570 231 590 q 262 519 262 549 q 252 448 262 498 l 183 144 q 178 100 178 117 q 191 66 178 66 q 208 72 198 66 q 228 86 218 78 q 248 104 237 94 q 266 123 258 115 q 279 138 273 132 l 286 145 q 295 135 290 145 q 300 119 300 125 q 223 41 283 91 q 122 -8 164 -8 q 89 12 101 -8 q 76 62 76 31 q 85 134 76 84 l 155 438 z "},"":{"ha":355,"x_min":38,"x_max":387,"o":"m 155 438 q 160 481 160 471 q 146 515 160 515 q 130 510 140 515 q 110 496 120 504 q 90 477 100 488 q 72 459 79 467 q 58 444 65 450 l 52 437 q 43 447 48 437 q 38 463 38 456 q 112 541 56 492 q 209 590 168 590 q 246 570 231 590 q 262 519 262 549 q 252 448 262 498 l 183 144 q 178 100 178 117 q 191 66 178 66 q 208 72 198 66 q 228 86 218 78 q 248 104 237 94 q 266 123 258 115 q 279 138 273 132 l 286 145 q 295 135 290 145 q 300 119 300 125 q 223 41 283 91 q 122 -8 164 -8 q 89 12 101 -8 q 76 62 76 31 q 85 134 76 84 l 155 438 m 336 823 q 372 807 357 823 q 387 769 387 791 q 365 712 387 736 q 313 688 344 688 q 280 706 292 688 q 267 747 267 724 q 287 801 267 779 q 336 823 307 823 m 156 823 q 192 807 177 823 q 206 769 206 791 q 185 712 206 736 q 133 688 163 688 q 99 706 112 688 q 87 747 87 724 q 106 801 87 779 q 156 823 126 823 z "},"":{"ha":593,"x_min":53,"x_max":549,"o":"m 340 547 q 255 502 296 547 q 186 380 213 458 q 159 214 159 302 q 162 160 159 186 q 172 103 165 133 q 197 55 180 73 q 237 37 214 37 q 359 135 304 37 q 414 370 414 234 q 410 479 414 452 q 385 526 406 506 q 340 547 364 547 m 351 590 q 425 578 404 590 q 411 670 426 620 q 366 770 395 721 q 356 786 361 778 l 212 690 q 200 711 205 696 q 199 734 195 726 l 330 820 q 290 858 311 840 q 183 911 241 897 q 189 926 184 920 q 201 933 194 933 q 343 876 280 920 q 376 851 361 865 l 533 955 q 544 933 539 949 q 547 913 549 918 l 408 821 q 446 771 429 798 q 506 634 485 709 q 526 479 526 559 q 508 315 526 393 q 458 179 490 237 q 386 79 427 121 q 299 15 345 37 q 208 -7 254 -7 q 145 5 173 -7 q 101 36 118 17 q 73 81 84 55 q 57 134 62 107 q 53 190 53 161 q 67 289 53 235 q 109 395 81 342 q 172 492 136 448 q 254 563 207 536 q 351 590 302 590 z "},"":{"ha":674,"x_min":30,"x_max":621,"o":"m 311 792 q 387 774 351 792 q 410 762 391 772 q 443 748 429 752 q 475 743 457 743 q 563 792 514 743 q 571 780 572 789 q 543 730 567 751 q 437 686 496 686 q 362 705 403 686 q 343 715 359 707 q 321 726 328 723 q 299 732 314 728 q 271 735 285 735 q 183 686 232 735 q 176 700 175 689 q 203 749 180 728 q 311 792 250 792 m 243 448 l 218 334 q 244 373 224 346 q 294 438 263 401 q 356 510 324 476 q 424 567 389 543 q 484 590 458 590 q 549 567 529 590 q 568 500 568 545 q 549 353 568 445 l 505 144 q 499 100 499 117 q 513 66 499 66 q 529 72 519 66 q 549 86 539 78 q 569 104 559 94 q 587 123 580 115 q 601 138 594 132 l 608 145 q 616 135 611 145 q 621 119 621 125 q 545 41 604 91 q 444 -8 486 -8 q 410 12 422 -8 q 397 62 397 31 q 407 134 397 84 l 454 358 q 464 431 464 401 q 459 476 464 463 q 438 490 455 490 q 382 462 419 490 q 306 392 345 435 q 233 287 267 349 q 187 165 199 225 q 153 0 182 138 q 104 -5 132 -5 q 57 0 79 -5 l 146 438 q 152 481 152 471 q 138 515 152 515 q 122 510 132 515 q 102 496 112 504 q 82 477 92 488 q 64 459 71 467 q 50 444 57 450 l 43 437 q 35 447 40 437 q 30 463 30 456 q 103 541 47 492 q 201 590 159 590 q 238 570 222 590 q 254 519 254 549 q 243 448 254 493 z "},"":{"ha":562,"x_min":33,"x_max":499,"o":"m 321 547 q 245 514 281 547 q 187 431 210 481 q 151 324 164 381 q 138 214 138 267 q 159 84 138 132 q 216 37 179 37 q 291 70 256 37 q 347 153 326 102 q 381 261 369 203 q 393 370 393 318 q 375 500 393 454 q 321 547 357 547 m 340 590 q 459 536 419 590 q 499 391 499 482 q 472 249 499 321 q 403 120 446 176 q 304 29 361 64 q 190 -7 247 -7 q 72 45 111 -7 q 33 187 33 96 q 59 330 33 257 q 128 460 85 403 q 227 553 170 517 q 340 590 283 590 m 414 636 q 294 696 395 636 q 193 773 193 755 q 210 804 193 794 q 245 814 228 814 q 296 800 276 814 q 367 724 310 790 q 425 650 425 658 q 420 641 425 646 q 414 636 416 636 z "},"":{"ha":562,"x_min":33,"x_max":505,"o":"m 321 547 q 245 514 281 547 q 187 431 210 481 q 151 324 164 381 q 138 214 138 267 q 159 84 138 132 q 216 37 179 37 q 291 70 256 37 q 347 153 326 102 q 381 261 369 203 q 393 370 393 318 q 375 500 393 454 q 321 547 357 547 m 340 590 q 459 536 419 590 q 499 391 499 482 q 472 249 499 321 q 403 120 446 176 q 304 29 361 64 q 190 -7 247 -7 q 72 45 111 -7 q 33 187 33 96 q 59 330 33 257 q 128 460 85 403 q 227 553 170 517 q 340 590 283 590 m 283 681 q 277 686 281 681 q 273 694 273 691 q 330 769 273 703 q 401 845 387 835 q 452 859 421 859 q 487 849 469 859 q 505 818 505 839 q 403 741 505 800 q 283 681 302 681 z "},"":{"ha":562,"x_min":33,"x_max":499,"o":"m 373 853 q 385 842 380 853 q 477 685 429 761 q 471 674 477 679 q 460 670 465 670 l 354 757 q 212 670 264 704 q 202 674 206 670 q 199 685 199 679 q 357 842 296 778 q 373 853 368 853 m 321 547 q 245 514 281 547 q 187 431 210 481 q 151 324 164 381 q 138 214 138 267 q 159 84 138 132 q 216 37 179 37 q 291 70 256 37 q 347 153 326 102 q 381 261 369 203 q 393 370 393 318 q 375 500 393 454 q 321 547 357 547 m 340 590 q 459 536 419 590 q 499 391 499 482 q 472 249 499 321 q 403 120 446 176 q 304 29 361 64 q 190 -7 247 -7 q 72 45 111 -7 q 33 187 33 96 q 59 330 33 257 q 128 460 85 403 q 227 553 170 517 q 340 590 283 590 z "},"":{"ha":562,"x_min":33,"x_max":551,"o":"m 289 792 q 365 774 330 792 q 388 762 370 772 q 421 748 407 752 q 453 743 435 743 q 541 792 492 743 q 549 780 551 789 q 521 730 545 751 q 415 686 474 686 q 340 705 381 686 q 322 715 338 707 q 299 726 306 723 q 278 732 292 728 q 250 735 263 735 q 161 686 210 735 q 155 700 153 689 q 182 749 159 728 q 289 792 229 792 m 321 547 q 245 514 281 547 q 187 431 210 481 q 151 324 164 381 q 138 214 138 267 q 159 84 138 132 q 216 37 179 37 q 291 70 256 37 q 347 153 326 102 q 381 261 369 203 q 393 370 393 318 q 375 500 393 454 q 321 547 357 547 m 340 590 q 459 536 419 590 q 499 391 499 482 q 472 249 499 321 q 403 120 446 176 q 304 29 361 64 q 190 -7 247 -7 q 72 45 111 -7 q 33 187 33 96 q 59 330 33 257 q 128 460 85 403 q 227 553 170 517 q 340 590 283 590 z "},"":{"ha":562,"x_min":33,"x_max":540,"o":"m 321 547 q 245 514 281 547 q 187 431 210 481 q 151 324 164 381 q 138 214 138 267 q 159 84 138 132 q 216 37 179 37 q 291 70 256 37 q 347 153 326 102 q 381 261 369 203 q 393 370 393 318 q 375 500 393 454 q 321 547 357 547 m 340 590 q 459 536 419 590 q 499 391 499 482 q 472 249 499 321 q 403 120 446 176 q 304 29 361 64 q 190 -7 247 -7 q 72 45 111 -7 q 33 187 33 96 q 59 330 33 257 q 128 460 85 403 q 227 553 170 517 q 340 590 283 590 m 490 818 q 526 799 513 818 q 534 754 540 780 q 509 711 530 729 q 464 693 488 693 q 426 712 440 693 q 416 755 412 730 q 444 799 421 781 q 490 818 466 818 m 212 799 q 223 809 212 799 q 258 818 234 818 q 295 799 281 818 q 304 754 309 779 q 278 711 299 729 q 233 693 257 693 q 195 712 210 693 q 186 755 181 730 q 212 799 191 781 z "},"":{"ha":688,"x_min":45,"x_max":633,"o":"m 50 304 q 45 317 45 304 q 58 368 45 346 l 629 368 q 633 357 633 368 q 617 304 633 331 l 50 304 m 399 665 q 434 648 420 665 q 449 610 449 632 q 428 553 449 578 q 376 529 406 529 q 342 547 355 529 q 330 589 330 565 q 349 642 330 620 q 399 665 369 665 m 298 141 q 333 125 319 141 q 347 87 347 109 q 327 30 347 54 q 275 5 306 5 q 242 23 254 5 q 229 65 229 41 q 249 119 229 96 q 298 141 269 141 z "},"":{"ha":562,"x_min":33,"x_max":499,"o":"m 321 547 q 245 514 281 547 q 187 431 210 481 q 151 324 164 381 q 138 214 138 267 q 159 84 138 132 q 216 37 179 37 q 291 70 256 37 q 347 153 326 102 q 381 261 369 203 q 393 370 393 318 q 375 500 393 454 q 321 547 357 547 m 340 590 q 459 536 419 590 q 499 391 499 482 q 472 249 499 321 q 403 120 446 176 q 304 29 361 64 q 190 -7 247 -7 q 72 45 111 -7 q 33 187 33 96 q 59 330 33 257 q 128 460 85 403 q 227 553 170 517 q 340 590 283 590 m 71 0 q 52 14 61 5 q 45 27 42 22 l 463 568 q 474 562 468 566 q 486 552 480 557 q 488 543 491 547 l 71 0 z "},"":{"ha":666,"x_min":27,"x_max":610,"o":"m 396 134 q 404 173 399 155 q 412 214 408 191 q 420 252 417 236 q 355 152 401 211 q 249 42 309 92 q 148 -8 189 -8 q 80 90 80 -8 q 99 229 80 138 l 144 438 q 149 481 149 471 q 136 515 149 515 q 119 510 129 515 q 99 496 109 504 q 79 477 90 488 q 61 459 68 467 q 47 444 54 450 l 41 437 q 32 447 37 437 q 27 463 27 456 q 101 541 45 492 q 198 590 157 590 q 235 570 220 590 q 251 519 251 549 q 241 448 251 498 l 194 224 q 184 151 184 181 q 190 107 184 122 q 210 92 195 92 q 264 122 229 92 q 337 198 300 152 q 408 309 375 244 q 453 433 441 373 q 467 504 458 456 q 483 582 477 551 q 525 587 501 587 q 578 582 556 587 l 494 144 q 488 100 488 117 q 502 66 488 66 q 518 72 509 66 q 538 86 528 78 q 558 104 548 94 q 576 123 569 115 q 590 138 583 132 l 597 145 q 605 135 600 145 q 610 119 610 125 q 534 41 593 91 q 433 -8 475 -8 q 399 12 412 -8 q 387 62 387 31 q 396 134 387 84 m 431 636 q 312 696 413 636 q 210 773 210 755 q 228 804 210 794 q 263 814 245 814 q 313 800 294 814 q 385 724 328 790 q 442 650 442 658 q 438 641 442 646 q 431 636 434 636 z "},"":{"ha":666,"x_min":27,"x_max":610,"o":"m 396 134 q 404 173 399 155 q 412 214 408 191 q 420 252 417 236 q 355 152 401 211 q 249 42 309 92 q 148 -8 189 -8 q 80 90 80 -8 q 99 229 80 138 l 144 438 q 149 481 149 471 q 136 515 149 515 q 119 510 129 515 q 99 496 109 504 q 79 477 90 488 q 61 459 68 467 q 47 444 54 450 l 41 437 q 32 447 37 437 q 27 463 27 456 q 101 541 45 492 q 198 590 157 590 q 235 570 220 590 q 251 519 251 549 q 241 448 251 498 l 194 224 q 184 151 184 181 q 190 107 184 122 q 210 92 195 92 q 264 122 229 92 q 337 198 300 152 q 408 309 375 244 q 453 433 441 373 q 467 504 458 456 q 483 582 477 551 q 525 587 501 587 q 578 582 556 587 l 494 144 q 488 100 488 117 q 502 66 488 66 q 518 72 509 66 q 538 86 528 78 q 558 104 548 94 q 576 123 569 115 q 590 138 583 132 l 597 145 q 605 135 600 145 q 610 119 610 125 q 534 41 593 91 q 433 -8 475 -8 q 399 12 412 -8 q 387 62 387 31 q 396 134 387 84 m 304 681 q 297 686 301 681 q 293 694 293 691 q 350 769 293 703 q 422 845 408 835 q 472 859 441 859 q 507 849 490 859 q 525 818 525 839 q 424 741 525 800 q 304 681 322 681 z "},"":{"ha":666,"x_min":27,"x_max":610,"o":"m 393 853 q 406 842 400 853 q 498 685 449 761 q 491 674 497 679 q 480 670 486 670 l 374 757 q 232 670 285 704 q 223 674 227 670 q 220 685 219 679 q 377 842 317 778 q 393 853 388 853 m 396 134 q 404 173 399 155 q 412 214 408 191 q 420 252 417 236 q 355 152 401 211 q 249 42 309 92 q 148 -8 189 -8 q 80 90 80 -8 q 99 229 80 138 l 144 438 q 149 481 149 471 q 136 515 149 515 q 119 510 129 515 q 99 496 109 504 q 79 477 90 488 q 61 459 68 467 q 47 444 54 450 l 41 437 q 32 447 37 437 q 27 463 27 456 q 101 541 45 492 q 198 590 157 590 q 235 570 220 590 q 251 519 251 549 q 241 448 251 498 l 194 224 q 184 151 184 181 q 190 107 184 122 q 210 92 195 92 q 264 122 229 92 q 337 198 300 152 q 408 309 375 244 q 453 433 441 373 q 467 504 458 456 q 483 582 477 551 q 525 587 501 587 q 578 582 556 587 l 494 144 q 488 100 488 117 q 502 66 488 66 q 518 72 509 66 q 538 86 528 78 q 558 104 548 94 q 576 123 569 115 q 590 138 583 132 l 597 145 q 605 135 600 145 q 610 119 610 125 q 534 41 593 91 q 433 -8 475 -8 q 399 12 412 -8 q 387 62 387 31 q 396 134 387 84 z "},"":{"ha":666,"x_min":27,"x_max":610,"o":"m 396 134 q 404 173 399 155 q 412 214 408 191 q 420 252 417 236 q 355 152 401 211 q 249 42 309 92 q 148 -8 189 -8 q 80 90 80 -8 q 99 229 80 138 l 144 438 q 149 481 149 471 q 136 515 149 515 q 119 510 129 515 q 99 496 109 504 q 79 477 90 488 q 61 459 68 467 q 47 444 54 450 l 41 437 q 32 447 37 437 q 27 463 27 456 q 101 541 45 492 q 198 590 157 590 q 235 570 220 590 q 251 519 251 549 q 241 448 251 498 l 194 224 q 184 151 184 181 q 190 107 184 122 q 210 92 195 92 q 264 122 229 92 q 337 198 300 152 q 408 309 375 244 q 453 433 441 373 q 467 504 458 456 q 483 582 477 551 q 525 587 501 587 q 578 582 556 587 l 494 144 q 488 100 488 117 q 502 66 488 66 q 518 72 509 66 q 538 86 528 78 q 558 104 548 94 q 576 123 569 115 q 590 138 583 132 l 597 145 q 605 135 600 145 q 610 119 610 125 q 534 41 593 91 q 433 -8 475 -8 q 399 12 412 -8 q 387 62 387 31 q 396 134 387 84 m 507 818 q 544 799 530 818 q 552 754 557 780 q 526 711 547 729 q 481 693 505 693 q 444 712 458 693 q 434 755 429 730 q 461 799 439 781 q 507 818 484 818 m 230 799 q 241 809 230 799 q 275 818 252 818 q 313 799 299 818 q 321 754 326 779 q 296 711 317 729 q 251 693 275 693 q 213 712 227 693 q 203 755 199 730 q 230 799 208 781 z "},"":{"ha":606,"x_min":-151,"x_max":549,"o":"m 179 590 q 218 569 200 590 q 247 512 235 549 q 269 432 259 475 q 283 336 278 389 q 292 237 289 282 q 297 144 296 193 q 299 69 299 95 q 300 20 300 43 q 346 83 322 47 q 395 169 369 119 q 439 277 422 219 q 456 387 456 334 q 450 455 456 425 q 438 498 444 486 q 422 532 433 511 q 448 574 430 559 q 490 590 466 590 q 549 483 549 590 q 516 314 549 406 q 430 134 483 221 q 309 -35 376 47 q 173 -180 241 -118 q 40 -279 104 -241 q -69 -316 -24 -316 q -128 -300 -105 -316 q -151 -260 -151 -283 q -142 -225 -151 -242 q -119 -201 -134 -209 q -69 -218 -104 -210 q -11 -227 -33 -227 q 174 -114 96 -227 q 188 -83 182 -101 q 196 -39 194 -65 q 198 1 198 -14 q 198 47 199 15 q 198 84 198 79 q 194 218 198 151 q 182 356 191 286 q 157 471 174 427 q 117 515 140 515 q 100 510 110 515 q 80 496 90 504 q 60 477 71 488 q 42 459 50 467 q 28 444 35 450 l 22 437 q 13 447 18 437 q 8 463 8 456 q 82 541 26 492 q 179 590 138 590 m 321 681 q 315 686 319 681 q 311 694 311 691 q 368 769 311 703 q 439 845 425 835 q 490 859 459 859 q 525 849 507 859 q 543 818 543 839 q 441 741 543 800 q 321 681 340 681 z "},"":{"ha":609,"x_min":-73,"x_max":554,"o":"m 300 803 q 267 631 298 789 q 235 469 236 473 q 436 590 366 590 q 554 426 554 590 q 504 222 554 323 q 373 57 453 121 q 212 -7 293 -7 q 150 11 161 -7 l 105 -197 q 101 -235 101 -215 q 106 -253 101 -242 q 120 -266 111 -263 q 184 -270 137 -270 q 186 -288 188 -271 q 180 -308 184 -306 q 155 -307 171 -308 q 132 -307 140 -307 q -68 -319 33 -307 q -73 -300 -73 -317 q -67 -279 -73 -283 q -13 -258 -31 -279 q 9 -199 -1 -241 l 116 339 l 51 274 q 43 301 43 284 q 47 311 43 307 l 127 396 l 196 760 q 201 784 197 768 q 206 813 204 801 q 208 831 208 825 q 125 857 208 857 q 125 871 123 861 q 131 886 127 882 q 310 930 205 892 q 318 905 318 926 q 300 803 318 891 m 382 515 q 300 481 349 515 q 222 407 250 447 l 177 178 q 187 81 166 121 q 241 41 208 41 q 346 100 296 41 q 425 244 397 159 q 454 411 454 330 q 382 515 454 515 z "},"":{"ha":606,"x_min":-151,"x_max":549,"o":"m 179 590 q 218 569 200 590 q 247 512 235 549 q 269 432 259 475 q 283 336 278 389 q 292 237 289 282 q 297 144 296 193 q 299 69 299 95 q 300 20 300 43 q 346 83 322 47 q 395 169 369 119 q 439 277 422 219 q 456 387 456 334 q 450 455 456 425 q 438 498 444 486 q 422 532 433 511 q 448 574 430 559 q 490 590 466 590 q 549 483 549 590 q 516 314 549 406 q 430 134 483 221 q 309 -35 376 47 q 173 -180 241 -118 q 40 -279 104 -241 q -69 -316 -24 -316 q -128 -300 -105 -316 q -151 -260 -151 -283 q -142 -225 -151 -242 q -119 -201 -134 -209 q -69 -218 -104 -210 q -11 -227 -33 -227 q 174 -114 96 -227 q 188 -83 182 -101 q 196 -39 194 -65 q 198 1 198 -14 q 198 47 199 15 q 198 84 198 79 q 194 218 198 151 q 182 356 191 286 q 157 471 174 427 q 117 515 140 515 q 100 510 110 515 q 80 496 90 504 q 60 477 71 488 q 42 459 50 467 q 28 444 35 450 l 22 437 q 13 447 18 437 q 8 463 8 456 q 82 541 26 492 q 179 590 138 590 m 481 818 q 518 799 505 818 q 526 754 532 780 q 500 711 522 729 q 456 693 479 693 q 418 712 432 693 q 408 755 404 730 q 435 799 413 781 q 481 818 458 818 m 204 799 q 215 809 204 799 q 250 818 226 818 q 287 799 273 818 q 296 754 300 779 q 270 711 291 729 q 225 693 249 693 q 187 712 201 693 q 178 755 173 730 q 204 799 182 781 z "},"":{"ha":795,"x_min":-77,"x_max":750,"o":"m 463 35 q 519 46 499 35 q 540 77 540 57 q 536 144 540 118 l 505 347 l 236 347 q 139 170 168 223 q 100 68 100 94 q 112 51 100 58 q 139 41 123 43 q 166 37 155 38 q 184 35 178 35 q 184 17 186 33 q 178 -4 182 2 q 139 -1 160 -3 q 100 2 119 1 q 58 3 82 3 q 13 2 32 3 q -30 -1 -7 1 q -75 -4 -54 -3 q -74 13 -77 -1 q -67 35 -71 28 q -26 42 -52 35 q 10 61 -1 50 q 94 189 43 96 l 469 860 q 495 887 477 875 q 523 899 513 899 q 530 895 528 899 l 646 171 q 662 79 660 88 q 677 56 665 65 q 705 42 689 46 q 731 37 720 38 q 747 35 741 35 q 748 14 750 27 q 743 -4 746 0 q 595 3 618 3 q 548 2 569 3 q 501 -1 527 1 q 454 -4 475 -3 q 453 16 450 1 q 463 35 456 30 m 260 392 l 498 392 l 446 726 l 260 392 m 694 1000 l 374 1000 q 370 1012 370 1004 q 375 1036 370 1020 q 387 1053 381 1053 l 701 1053 q 707 1043 707 1053 q 694 1000 707 1015 z "},"":{"ha":609,"x_min":26,"x_max":553,"o":"m 414 590 q 519 572 471 590 l 437 144 q 433 125 435 136 q 431 99 431 113 q 434 76 430 85 q 445 66 437 66 q 461 72 452 66 q 481 86 471 78 q 502 104 491 94 q 519 123 512 115 q 533 138 526 132 l 540 145 q 548 135 543 145 q 553 119 553 125 q 477 41 536 91 q 376 -8 418 -8 q 342 12 355 -8 q 330 62 330 31 q 339 134 330 84 q 346 176 345 167 q 314 126 334 154 q 266 67 294 99 q 207 14 239 35 q 146 -7 174 -7 q 59 37 92 -7 q 26 153 26 81 q 63 320 26 238 q 158 461 100 403 q 283 554 215 519 q 414 590 352 590 m 351 536 q 248 486 300 536 q 160 358 195 436 q 126 205 126 281 q 195 72 126 72 q 268 120 228 72 q 340 237 309 168 q 385 372 372 307 l 414 515 q 386 530 406 525 q 351 536 367 536 m 509 682 l 224 682 q 220 694 220 686 q 225 719 220 703 q 237 735 231 735 l 516 735 q 522 726 522 735 q 509 682 522 697 z "},"":{"ha":795,"x_min":-77,"x_max":750,"o":"m 463 35 q 519 46 499 35 q 540 77 540 57 q 536 144 540 118 l 505 347 l 236 347 q 139 170 168 223 q 100 68 100 94 q 112 51 100 58 q 139 41 123 43 q 166 37 155 38 q 184 35 178 35 q 184 17 186 33 q 178 -4 182 2 q 139 -1 160 -3 q 100 2 119 1 q 58 3 82 3 q 13 2 32 3 q -30 -1 -7 1 q -75 -4 -54 -3 q -74 13 -77 -1 q -67 35 -71 28 q -26 42 -52 35 q 10 61 -1 50 q 94 189 43 96 l 469 860 q 495 887 477 875 q 523 899 513 899 q 530 895 528 899 l 646 171 q 662 79 660 88 q 677 56 665 65 q 705 42 689 46 q 731 37 720 38 q 747 35 741 35 q 748 14 750 27 q 743 -4 746 0 q 595 3 618 3 q 548 2 569 3 q 501 -1 527 1 q 454 -4 475 -3 q 453 16 450 1 q 463 35 456 30 m 260 392 l 498 392 l 446 726 l 260 392 m 690 1137 q 687 1123 690 1134 q 621 1027 667 1067 q 524 987 574 987 q 442 1027 473 987 q 414 1124 411 1066 q 415 1130 414 1126 q 416 1135 416 1135 q 430 1147 420 1141 q 446 1147 439 1152 q 471 1077 446 1104 q 536 1050 496 1050 q 611 1077 576 1050 q 665 1147 647 1103 q 679 1147 669 1152 q 690 1137 688 1143 z "},"":{"ha":609,"x_min":26,"x_max":553,"o":"m 414 590 q 519 572 471 590 l 437 144 q 433 125 435 136 q 431 99 431 113 q 434 76 430 85 q 445 66 437 66 q 461 72 452 66 q 481 86 471 78 q 502 104 491 94 q 519 123 512 115 q 533 138 526 132 l 540 145 q 548 135 543 145 q 553 119 553 125 q 477 41 536 91 q 376 -8 418 -8 q 342 12 355 -8 q 330 62 330 31 q 339 134 330 84 q 346 176 345 167 q 314 126 334 154 q 266 67 294 99 q 207 14 239 35 q 146 -7 174 -7 q 59 37 92 -7 q 26 153 26 81 q 63 320 26 238 q 158 461 100 403 q 283 554 215 519 q 414 590 352 590 m 351 536 q 248 486 300 536 q 160 358 195 436 q 126 205 126 281 q 195 72 126 72 q 268 120 228 72 q 340 237 309 168 q 385 372 372 307 l 414 515 q 386 530 406 525 q 351 536 367 536 m 541 822 q 538 808 541 819 q 472 713 519 753 q 376 673 425 673 q 294 712 325 673 q 266 810 262 751 q 267 815 266 811 q 267 821 267 820 q 281 832 271 827 q 297 833 291 838 q 323 762 298 789 q 388 735 348 735 q 463 762 427 735 q 517 833 498 789 q 530 832 521 837 q 541 822 539 828 z "},"":{"ha":795,"x_min":-77,"x_max":740,"o":"m 661 81 q 694 48 665 60 q 737 35 723 35 q 738 14 740 27 q 733 -4 736 0 q 712 -3 720 -3 q 702 -2 704 -2 q 698 -1 701 -1 q 689 0 695 0 q 668 0 682 0 q 567 -23 616 0 q 486 -77 517 -45 q 435 -139 454 -108 q 416 -189 416 -170 q 458 -232 416 -232 q 512 -219 486 -232 q 553 -193 538 -206 q 570 -180 568 -180 q 572 -199 577 -182 q 562 -221 567 -216 q 412 -312 481 -312 q 362 -291 382 -312 q 342 -241 342 -270 q 369 -162 342 -207 q 422 -86 395 -117 q 489 -15 449 -55 q 508 2 493 -11 q 526 21 522 16 q 534 40 530 26 q 539 72 539 54 q 536 144 539 123 l 505 347 l 236 347 q 139 170 168 223 q 100 68 100 94 q 112 51 100 58 q 139 41 123 43 q 166 37 155 38 q 184 35 178 35 q 184 17 186 33 q 178 -4 182 2 q 139 -1 160 -3 q 100 2 119 1 q 58 3 82 3 q 13 2 32 3 q -30 -1 -7 1 q -75 -4 -54 -3 q -74 13 -77 -1 q -67 35 -71 28 q -26 42 -52 35 q 10 61 -1 50 q 94 189 43 96 l 469 860 q 495 887 477 875 q 523 899 513 899 q 530 895 528 899 l 646 171 q 661 81 652 124 m 260 392 l 498 392 l 446 726 l 260 392 z "},"":{"ha":609,"x_min":26,"x_max":553,"o":"m 351 536 q 248 486 300 536 q 160 358 195 436 q 126 205 126 281 q 195 72 126 72 q 268 120 228 72 q 340 237 309 168 q 385 372 372 307 l 414 515 q 386 530 406 525 q 351 536 367 536 m 553 119 q 521 82 547 109 q 468 34 495 56 q 418 -9 443 14 q 360 -65 393 -33 q 308 -131 328 -98 q 288 -189 288 -164 q 330 -232 288 -232 q 384 -219 357 -232 q 425 -193 410 -206 q 442 -180 440 -180 q 444 -199 449 -182 q 434 -221 439 -216 q 283 -312 353 -312 q 234 -292 254 -312 q 214 -244 214 -272 q 259 -130 214 -197 q 361 -5 304 -62 q 330 62 330 7 q 339 134 330 84 q 346 176 345 167 q 314 126 334 154 q 266 67 294 99 q 207 14 239 35 q 146 -7 174 -7 q 59 37 92 -7 q 26 153 26 81 q 63 320 26 238 q 158 461 100 403 q 283 554 215 519 q 414 590 352 590 q 519 572 471 590 l 437 144 q 431 100 431 122 q 445 66 431 66 q 461 72 452 66 q 481 86 471 78 q 502 104 491 94 q 519 123 512 115 q 533 138 526 132 l 540 145 q 548 135 543 145 q 553 119 553 125 z "},"":{"ha":875,"x_min":80,"x_max":849,"o":"m 560 964 q 555 970 559 964 q 552 978 552 975 q 611 1036 552 985 q 696 1104 669 1087 q 712 1108 699 1106 q 732 1111 725 1111 q 779 1102 761 1111 q 798 1081 798 1093 q 690 1011 798 1059 q 560 964 583 964 m 772 235 q 789 232 780 235 q 804 227 799 229 l 810 224 q 766 126 806 202 q 712 38 726 50 q 598 0 659 10 q 448 -11 538 -11 q 256 40 340 -11 q 125 175 171 91 q 80 359 80 259 q 110 547 80 459 q 193 701 140 635 q 315 812 245 766 q 466 882 385 859 q 631 903 547 905 q 849 868 711 902 q 836 670 841 720 q 825 663 834 663 q 793 670 807 663 q 738 806 798 750 q 591 861 678 861 q 442 827 512 861 q 320 733 372 793 q 239 581 269 672 q 209 382 209 490 q 218 283 209 332 q 248 189 227 235 q 300 106 269 142 q 379 50 331 71 q 486 28 427 28 q 772 235 664 28 z "},"":{"ha":487,"x_min":33,"x_max":541,"o":"m 373 590 q 457 556 417 590 q 469 519 469 540 q 457 476 469 494 q 423 458 446 458 q 395 466 409 458 q 374 486 381 473 q 358 509 365 500 q 337 526 352 517 q 304 534 322 534 q 247 510 276 534 q 193 446 217 486 q 154 345 169 405 q 138 220 138 286 q 141 176 138 197 q 153 129 144 155 q 182 87 161 103 q 232 72 202 72 q 255 76 243 72 q 279 86 268 80 q 302 101 290 92 q 323 117 314 109 q 342 134 332 125 q 357 149 351 143 q 367 160 362 155 l 372 165 q 381 155 375 165 q 388 138 388 144 q 361 104 381 127 q 313 56 341 82 q 249 11 284 30 q 183 -8 213 -8 q 72 43 111 -8 q 33 190 33 95 q 66 343 33 268 q 150 472 100 419 q 261 557 201 525 q 373 590 321 590 m 320 681 q 313 686 317 681 q 309 694 309 691 q 367 769 309 703 q 438 845 424 835 q 488 859 458 859 q 524 849 506 859 q 541 818 541 839 q 440 741 541 800 q 320 681 338 681 z "},"":{"ha":875,"x_min":80,"x_max":849,"o":"m 659 1134 q 673 1124 667 1134 q 779 978 719 1050 q 771 968 778 972 q 758 964 765 964 l 637 1044 q 475 964 540 997 q 465 968 469 964 q 461 978 460 972 q 640 1124 557 1049 q 659 1134 651 1134 m 772 235 q 789 232 780 235 q 804 227 799 229 l 810 224 q 766 126 806 202 q 712 38 726 50 q 598 0 659 10 q 448 -11 538 -11 q 256 40 340 -11 q 125 175 171 91 q 80 359 80 259 q 110 547 80 459 q 193 701 140 635 q 315 812 245 766 q 466 882 385 859 q 631 903 547 905 q 849 868 711 902 q 836 670 841 720 q 825 663 834 663 q 793 670 807 663 q 738 806 798 750 q 591 861 678 861 q 442 827 512 861 q 320 733 372 793 q 239 581 269 672 q 209 382 209 490 q 218 283 209 332 q 248 189 227 235 q 300 106 269 142 q 379 50 331 71 q 486 28 427 28 q 772 235 664 28 z "},"":{"ha":487,"x_min":33,"x_max":481,"o":"m 377 853 q 389 842 384 853 q 481 685 433 761 q 475 674 481 679 q 464 670 469 670 l 358 757 q 216 670 269 704 q 207 674 210 670 q 203 685 203 679 q 361 842 300 778 q 377 853 372 853 m 373 590 q 457 556 417 590 q 469 519 469 540 q 457 476 469 494 q 423 458 446 458 q 395 466 409 458 q 374 486 381 473 q 358 509 365 500 q 337 526 352 517 q 304 534 322 534 q 247 510 276 534 q 193 446 217 486 q 154 345 169 405 q 138 220 138 286 q 141 176 138 197 q 153 129 144 155 q 182 87 161 103 q 232 72 202 72 q 255 76 243 72 q 279 86 268 80 q 302 101 290 92 q 323 117 314 109 q 342 134 332 125 q 357 149 351 143 q 367 160 362 155 l 372 165 q 381 155 375 165 q 388 138 388 144 q 361 104 381 127 q 313 56 341 82 q 249 11 284 30 q 183 -8 213 -8 q 72 43 111 -8 q 33 190 33 95 q 66 343 33 268 q 150 472 100 419 q 261 557 201 525 q 373 590 321 590 z "},"":{"ha":875,"x_min":80,"x_max":849,"o":"m 574 1055 q 602 1103 578 1084 q 651 1123 625 1123 q 691 1103 677 1123 q 700 1055 705 1084 q 673 1007 695 1027 q 624 987 650 987 q 583 1007 597 987 q 574 1055 568 1027 m 772 235 q 789 232 780 235 q 804 227 799 229 l 810 224 q 766 126 806 202 q 712 38 726 50 q 598 0 659 10 q 448 -11 538 -11 q 256 40 340 -11 q 125 175 171 91 q 80 359 80 259 q 110 547 80 459 q 193 701 140 635 q 315 812 245 766 q 466 882 385 859 q 631 903 547 905 q 849 868 711 902 q 836 670 841 720 q 825 663 834 663 q 793 670 807 663 q 738 806 798 750 q 591 861 678 861 q 442 827 512 861 q 320 733 372 793 q 239 581 269 672 q 209 382 209 490 q 218 283 209 332 q 248 189 227 235 q 300 106 269 142 q 379 50 331 71 q 486 28 427 28 q 772 235 664 28 z "},"":{"ha":487,"x_min":33,"x_max":469,"o":"m 373 590 q 457 556 417 590 q 469 519 469 540 q 457 476 469 494 q 423 458 446 458 q 395 466 409 458 q 374 486 381 473 q 358 509 365 500 q 337 526 352 517 q 304 534 322 534 q 247 510 276 534 q 193 446 217 486 q 154 345 169 405 q 138 220 138 286 q 141 176 138 197 q 153 129 144 155 q 182 87 161 103 q 232 72 202 72 q 255 76 243 72 q 279 86 268 80 q 302 101 290 92 q 323 117 314 109 q 342 134 332 125 q 357 149 351 143 q 367 160 362 155 l 372 165 q 381 155 375 165 q 388 138 388 144 q 361 104 381 127 q 313 56 341 82 q 249 11 284 30 q 183 -8 213 -8 q 72 43 111 -8 q 33 190 33 95 q 66 343 33 268 q 150 472 100 419 q 261 557 201 525 q 373 590 321 590 m 308 808 q 336 857 313 837 q 385 876 359 876 q 426 857 412 876 q 434 808 439 837 q 407 760 429 780 q 358 741 385 741 q 317 760 332 741 q 308 808 302 780 z "},"":{"ha":875,"x_min":80,"x_max":849,"o":"m 625 964 q 612 974 616 964 q 592 1006 602 991 q 571 1036 583 1021 q 553 1061 560 1052 q 530 1090 546 1070 q 506 1120 514 1110 q 513 1130 507 1126 q 526 1134 519 1134 l 647 1054 q 810 1134 749 1103 q 820 1130 816 1134 q 823 1120 824 1126 q 784 1090 812 1112 q 746 1060 756 1068 q 716 1036 736 1053 q 680 1006 696 1020 q 644 974 663 991 q 625 964 632 964 m 772 235 q 789 232 780 235 q 804 227 799 229 l 810 224 q 766 126 806 202 q 712 38 726 50 q 598 0 659 10 q 448 -11 538 -11 q 256 40 340 -11 q 125 175 171 91 q 80 359 80 259 q 110 547 80 459 q 193 701 140 635 q 315 812 245 766 q 466 882 385 859 q 631 903 547 905 q 849 868 711 902 q 836 670 841 720 q 825 663 834 663 q 793 670 807 663 q 738 806 798 750 q 591 861 678 861 q 442 827 512 861 q 320 733 372 793 q 239 581 269 672 q 209 382 209 490 q 218 283 209 332 q 248 189 227 235 q 300 106 269 142 q 379 50 331 71 q 486 28 427 28 q 772 235 664 28 z "},"":{"ha":487,"x_min":33,"x_max":523,"o":"m 349 673 q 336 684 342 673 q 244 841 293 765 q 251 851 245 847 q 262 856 256 856 l 368 769 q 510 856 457 822 q 519 851 515 856 q 522 841 523 847 q 365 684 425 748 q 349 673 354 673 m 373 590 q 457 556 417 590 q 469 519 469 540 q 457 476 469 494 q 423 458 446 458 q 395 466 409 458 q 374 486 381 473 q 358 509 365 500 q 337 526 352 517 q 304 534 322 534 q 247 510 276 534 q 193 446 217 486 q 154 345 169 405 q 138 220 138 286 q 141 176 138 197 q 153 129 144 155 q 182 87 161 103 q 232 72 202 72 q 255 76 243 72 q 279 86 268 80 q 302 101 290 92 q 323 117 314 109 q 342 134 332 125 q 357 149 351 143 q 367 160 362 155 l 372 165 q 381 155 375 165 q 388 138 388 144 q 361 104 381 127 q 313 56 341 82 q 249 11 284 30 q 183 -8 213 -8 q 72 43 111 -8 q 33 190 33 95 q 66 343 33 268 q 150 472 100 419 q 261 557 201 525 q 373 590 321 590 z "},"":{"ha":928,"x_min":-10,"x_max":888,"o":"m 342 741 l 227 152 q 218 96 222 132 q 216 54 213 60 q 315 35 224 35 q 457 59 389 35 q 583 130 525 83 q 684 253 641 177 q 745 425 726 328 q 755 622 766 540 q 702 755 744 703 q 599 831 660 807 q 458 856 538 856 q 368 841 375 856 q 342 741 357 819 m 500 892 q 656 871 586 892 q 772 810 726 849 q 848 716 819 771 q 883 595 878 661 q 876 453 888 529 q 835 317 861 380 q 763 193 809 253 q 655 91 717 134 q 505 22 594 48 q 310 -4 416 -3 l -6 -4 q -7 16 -10 1 q 2 35 -3 30 q 55 41 21 35 q 93 57 89 47 q 119 157 102 76 l 231 736 q 245 837 248 817 q 213 852 244 846 q 162 859 181 859 q 161 878 159 863 q 169 898 163 893 q 317 891 298 891 q 406 892 340 891 q 500 892 471 892 m 500 964 q 486 974 491 964 q 467 1006 476 991 q 446 1036 457 1021 q 428 1061 435 1052 q 405 1090 420 1070 q 380 1120 389 1110 q 388 1130 381 1126 q 401 1134 394 1134 l 522 1054 q 684 1134 623 1103 q 694 1130 690 1134 q 698 1120 699 1126 q 659 1090 687 1112 q 621 1060 631 1068 q 591 1036 611 1053 q 554 1006 571 1020 q 519 974 538 991 q 500 964 507 964 z "},"":{"ha":632,"x_min":26,"x_max":830,"o":"m 401 463 q 393 512 406 488 q 354 536 380 536 q 247 486 300 536 q 160 358 193 435 q 126 203 126 280 q 143 107 126 143 q 195 72 159 72 q 269 120 229 72 q 341 238 309 168 q 385 374 372 309 l 401 463 m 460 758 q 465 783 461 766 q 470 811 468 800 q 472 830 472 823 q 389 856 472 856 q 389 870 387 860 q 395 884 391 880 q 574 929 469 891 q 582 903 582 924 q 564 802 582 890 l 437 144 q 431 99 431 122 q 445 66 431 66 q 461 72 452 66 q 481 86 471 78 q 502 104 491 94 q 519 123 512 115 q 533 138 526 132 l 540 145 q 548 135 543 145 q 553 119 553 125 q 477 41 536 91 q 376 -8 418 -8 q 342 12 355 -8 q 330 62 330 31 q 339 134 330 84 q 346 176 342 146 q 303 111 332 150 q 229 32 275 71 q 145 -7 182 -7 q 56 42 87 -7 q 26 157 26 91 q 85 362 26 260 q 234 527 144 464 q 411 590 324 590 l 414 590 l 418 590 l 422 590 l 429 590 l 460 758 m 723 863 q 752 922 723 900 q 823 944 781 944 q 830 906 830 932 q 826 860 830 886 q 773 763 818 818 q 699 692 728 709 q 689 690 697 690 q 680 696 684 690 q 675 707 675 701 q 682 713 675 708 q 697 726 688 718 q 716 745 707 734 q 731 773 725 756 q 738 807 738 789 q 730 831 738 813 q 723 863 723 849 z "},"":{"ha":928,"x_min":-10,"x_max":888,"o":"m 108 473 l 555 473 q 562 470 559 473 q 562 463 564 467 q 549 425 557 436 l 100 425 q 96 439 92 425 q 108 473 101 467 m 342 741 l 227 152 q 218 96 222 132 q 216 54 213 60 q 315 35 224 35 q 457 59 389 35 q 583 130 525 83 q 684 253 641 177 q 745 425 726 328 q 755 622 766 540 q 702 755 744 703 q 599 831 660 807 q 458 856 538 856 q 368 841 375 856 q 342 741 357 819 m 500 892 q 656 871 586 892 q 772 810 726 849 q 848 716 819 771 q 883 595 878 661 q 876 453 888 529 q 835 317 861 380 q 763 193 809 253 q 655 91 717 134 q 505 22 594 48 q 310 -4 416 -3 l -6 -4 q -7 16 -10 1 q 2 35 -3 30 q 55 41 21 35 q 93 57 89 47 q 119 157 102 76 l 231 736 q 245 837 248 817 q 213 852 244 846 q 162 859 181 859 q 161 878 159 863 q 169 898 163 893 q 317 891 298 891 q 406 892 340 891 q 500 892 471 892 z "},"":{"ha":605,"x_min":26,"x_max":665,"o":"m 401 463 q 393 512 406 488 q 354 536 380 536 q 247 486 300 536 q 160 358 193 435 q 126 203 126 280 q 143 107 126 143 q 195 72 159 72 q 269 120 229 72 q 341 238 309 168 q 385 374 372 309 l 401 463 m 460 758 q 465 783 461 766 q 470 811 468 800 q 472 830 472 823 q 389 856 472 856 q 389 870 387 860 q 395 884 391 880 q 574 929 469 891 q 582 903 582 924 q 564 802 582 890 l 437 144 q 431 99 431 122 q 445 66 431 66 q 461 72 452 66 q 481 86 471 78 q 502 104 491 94 q 519 123 512 115 q 533 138 526 132 l 540 145 q 548 135 543 145 q 553 119 553 125 q 477 41 536 91 q 376 -8 418 -8 q 342 12 355 -8 q 330 62 330 31 q 339 134 330 84 q 346 176 342 146 q 303 111 332 150 q 229 32 275 71 q 145 -7 182 -7 q 56 42 87 -7 q 26 157 26 91 q 85 362 26 260 q 234 527 144 464 q 411 590 324 590 l 414 590 l 418 590 l 422 590 l 429 590 l 460 758 m 347 766 l 658 766 q 662 755 665 766 q 647 720 659 739 l 335 720 q 332 726 332 720 q 332 735 331 731 q 347 766 336 753 z "},"":{"ha":751,"x_min":-11,"x_max":724,"o":"m 316 891 q 513 896 373 891 q 723 901 652 901 q 722 806 720 884 q 724 716 724 728 q 700 709 718 709 q 685 719 685 709 q 650 825 680 795 q 566 854 620 854 l 457 854 q 368 840 375 854 q 340 742 353 811 l 290 481 q 294 477 290 479 q 306 475 298 475 q 323 474 314 474 q 343 473 332 473 l 410 473 q 458 474 441 473 q 492 478 476 475 q 516 487 508 481 q 532 502 524 492 q 547 525 541 512 q 562 558 553 538 q 567 571 565 566 q 589 581 571 581 q 608 574 603 581 l 559 317 q 537 312 553 312 q 519 323 522 312 q 513 394 517 378 q 502 418 509 411 q 370 429 488 429 q 277 416 279 429 l 224 148 q 214 54 207 62 q 240 43 224 45 q 301 41 256 41 l 361 41 q 529 83 465 41 q 635 220 589 123 q 655 228 639 228 q 685 220 680 228 q 646 148 676 203 q 599 57 616 93 q 572 -5 581 22 q 370 -3 508 -5 q 144 0 232 0 q 64 -2 113 0 q -7 -4 16 -4 q -8 16 -11 1 q 0 35 -5 30 q 54 41 19 35 q 92 57 88 47 q 118 157 102 76 l 231 736 q 243 837 245 812 q 211 852 242 846 q 160 859 179 859 q 159 878 157 863 q 168 898 162 893 q 316 891 297 891 m 644 1000 l 323 1000 q 319 1012 319 1004 q 325 1036 319 1020 q 336 1053 331 1053 l 651 1053 q 657 1043 657 1053 q 644 1000 657 1015 z "},"":{"ha":492,"x_min":31,"x_max":473,"o":"m 372 590 q 440 566 419 590 q 461 506 461 541 q 423 413 461 460 q 332 335 385 367 q 225 282 279 302 q 140 262 172 262 q 137 218 137 254 q 160 112 137 152 q 231 72 182 72 q 254 76 241 72 q 278 86 267 80 q 301 101 289 92 q 322 117 313 109 q 340 134 331 125 q 355 149 350 143 q 366 160 361 155 l 370 165 q 380 155 374 165 q 387 138 387 144 q 358 102 378 125 q 309 54 338 80 q 245 10 281 28 q 180 -8 210 -8 q 70 43 109 -8 q 31 189 31 94 q 63 335 31 261 q 143 465 94 410 q 253 555 191 520 q 372 590 314 590 m 142 296 q 199 311 163 296 q 271 350 235 326 q 334 409 308 374 q 361 480 361 445 q 343 520 361 506 q 304 534 326 534 q 240 507 271 534 q 190 441 210 480 q 158 363 170 401 q 142 296 145 324 m 460 682 l 175 682 q 171 694 171 686 q 177 719 171 703 q 188 735 182 735 l 467 735 q 473 726 473 735 q 460 682 473 697 z "},"":{"ha":751,"x_min":-11,"x_max":724,"o":"m 316 891 q 513 896 373 891 q 723 901 652 901 q 722 806 720 884 q 724 716 724 728 q 700 709 718 709 q 685 719 685 709 q 650 825 680 795 q 566 854 620 854 l 457 854 q 368 840 375 854 q 340 742 353 811 l 290 481 q 294 477 290 479 q 306 475 298 475 q 323 474 314 474 q 343 473 332 473 l 410 473 q 458 474 441 473 q 492 478 476 475 q 516 487 508 481 q 532 502 524 492 q 547 525 541 512 q 562 558 553 538 q 567 571 565 566 q 589 581 571 581 q 608 574 603 581 l 559 317 q 537 312 553 312 q 519 323 522 312 q 513 394 517 378 q 502 418 509 411 q 370 429 488 429 q 277 416 279 429 l 224 148 q 214 54 207 62 q 240 43 224 45 q 301 41 256 41 l 361 41 q 529 83 465 41 q 635 220 589 123 q 655 228 639 228 q 685 220 680 228 q 646 148 676 203 q 599 57 616 93 q 572 -5 581 22 q 370 -3 508 -5 q 144 0 232 0 q 64 -2 113 0 q -7 -4 16 -4 q -8 16 -11 1 q 0 35 -5 30 q 54 41 19 35 q 92 57 88 47 q 118 157 102 76 l 231 736 q 243 837 245 812 q 211 852 242 846 q 160 859 179 859 q 159 878 157 863 q 168 898 162 893 q 316 891 297 891 m 409 1073 q 422 1063 409 1073 q 475 1053 435 1053 q 550 1074 516 1053 q 600 1131 584 1095 q 607 1134 600 1134 q 620 1128 613 1134 q 626 1119 627 1123 q 625 1115 626 1118 q 623 1109 623 1111 q 559 1024 606 1061 q 463 987 513 987 q 381 1023 413 987 q 351 1111 349 1059 l 351 1119 q 361 1128 352 1123 q 376 1134 370 1134 q 382 1131 382 1134 q 409 1073 384 1094 z "},"":{"ha":492,"x_min":31,"x_max":500,"o":"m 372 590 q 440 566 419 590 q 461 506 461 541 q 423 413 461 460 q 332 335 385 367 q 225 282 279 302 q 140 262 172 262 q 137 218 137 254 q 160 112 137 152 q 231 72 182 72 q 254 76 241 72 q 278 86 267 80 q 301 101 289 92 q 322 117 313 109 q 340 134 331 125 q 355 149 350 143 q 366 160 361 155 l 370 165 q 380 155 374 165 q 387 138 387 144 q 358 102 378 125 q 309 54 338 80 q 245 10 281 28 q 180 -8 210 -8 q 70 43 109 -8 q 31 189 31 94 q 63 335 31 261 q 143 465 94 410 q 253 555 191 520 q 372 590 314 590 m 142 296 q 199 311 163 296 q 271 350 235 326 q 334 409 308 374 q 361 480 361 445 q 343 520 361 506 q 304 534 326 534 q 240 507 271 534 q 190 441 210 480 q 158 363 170 401 q 142 296 145 324 m 500 822 q 498 808 500 819 q 431 713 478 753 q 335 673 385 673 q 253 712 284 673 q 225 810 222 751 q 226 815 225 811 q 227 821 227 820 q 240 832 231 827 q 256 833 250 838 q 282 762 257 789 q 347 735 307 735 q 422 762 387 735 q 476 833 458 789 q 489 832 480 837 q 500 822 498 828 z "},"":{"ha":751,"x_min":-11,"x_max":724,"o":"m 316 891 q 513 896 373 891 q 723 901 652 901 q 722 806 720 884 q 724 716 724 728 q 700 709 718 709 q 685 719 685 709 q 650 825 680 795 q 566 854 620 854 l 457 854 q 368 840 375 854 q 340 742 353 811 l 290 481 q 294 477 290 479 q 306 475 298 475 q 323 474 314 474 q 343 473 332 473 l 410 473 q 458 474 441 473 q 492 478 476 475 q 516 487 508 481 q 532 502 524 492 q 547 525 541 512 q 562 558 553 538 q 567 571 565 566 q 589 581 571 581 q 608 574 603 581 l 559 317 q 537 312 553 312 q 519 323 522 312 q 513 394 517 378 q 502 418 509 411 q 370 429 488 429 q 277 416 279 429 l 224 148 q 214 54 207 62 q 240 43 224 45 q 301 41 256 41 l 361 41 q 529 83 465 41 q 635 220 589 123 q 655 228 639 228 q 685 220 680 228 q 646 148 676 203 q 599 57 616 93 q 572 -5 581 22 q 370 -3 508 -5 q 144 0 232 0 q 64 -2 113 0 q -7 -4 16 -4 q -8 16 -11 1 q 0 35 -5 30 q 54 41 19 35 q 92 57 88 47 q 118 157 102 76 l 231 736 q 243 837 245 812 q 211 852 242 846 q 160 859 179 859 q 159 878 157 863 q 168 898 162 893 q 316 891 297 891 m 440 1055 q 468 1103 445 1084 q 517 1123 491 1123 q 558 1103 544 1123 q 566 1055 572 1084 q 539 1007 562 1027 q 490 987 517 987 q 449 1007 464 987 q 440 1055 435 1027 z "},"":{"ha":492,"x_min":31,"x_max":461,"o":"m 372 590 q 440 566 419 590 q 461 506 461 541 q 423 413 461 460 q 332 335 385 367 q 225 282 279 302 q 140 262 172 262 q 137 218 137 254 q 160 112 137 152 q 231 72 182 72 q 254 76 241 72 q 278 86 267 80 q 301 101 289 92 q 322 117 313 109 q 340 134 331 125 q 355 149 350 143 q 366 160 361 155 l 370 165 q 380 155 374 165 q 387 138 387 144 q 358 102 378 125 q 309 54 338 80 q 245 10 281 28 q 180 -8 210 -8 q 70 43 109 -8 q 31 189 31 94 q 63 335 31 261 q 143 465 94 410 q 253 555 191 520 q 372 590 314 590 m 142 296 q 199 311 163 296 q 271 350 235 326 q 334 409 308 374 q 361 480 361 445 q 343 520 361 506 q 304 534 326 534 q 240 507 271 534 q 190 441 210 480 q 158 363 170 401 q 142 296 145 324 m 317 808 q 345 857 322 837 q 395 876 368 876 q 435 857 421 876 q 444 808 449 837 q 416 760 439 780 q 368 741 394 741 q 327 760 341 741 q 317 808 312 780 z "},"":{"ha":751,"x_min":-12,"x_max":724,"o":"m 572 -5 q 481 -24 526 -5 q 406 -72 437 -43 q 357 -131 376 -100 q 338 -189 338 -163 q 380 -232 338 -232 q 434 -219 408 -232 q 476 -193 460 -206 q 493 -180 491 -180 q 495 -199 500 -182 q 485 -221 490 -216 q 334 -312 404 -312 q 285 -292 304 -312 q 265 -244 265 -272 q 319 -110 265 -189 q 429 -4 372 -31 q 143 0 177 0 q 64 -2 112 0 q -7 -4 16 -4 q -9 16 -12 1 q -1 35 -6 30 q 53 41 18 35 q 92 57 87 47 q 117 157 101 76 l 230 736 q 242 837 245 812 q 210 852 241 846 q 159 859 178 859 q 159 878 156 863 q 168 898 161 893 q 316 891 296 891 q 513 896 373 891 q 723 901 652 901 q 722 806 720 884 q 724 716 724 728 q 700 709 718 709 q 685 719 685 709 q 650 825 680 795 q 566 854 620 854 l 457 854 q 368 840 375 854 q 340 742 353 811 l 290 481 q 294 477 290 479 q 306 475 298 475 q 323 474 314 474 q 343 473 332 473 l 410 473 q 458 474 441 473 q 492 478 476 475 q 516 487 508 481 q 532 502 524 492 q 547 525 541 512 q 562 558 553 538 q 567 571 565 566 q 589 581 571 581 q 608 574 603 581 l 559 317 q 537 312 553 312 q 519 323 522 312 q 513 394 517 378 q 502 418 509 411 q 370 429 488 429 q 277 416 279 429 l 224 148 q 214 54 207 62 q 240 43 224 45 q 301 41 256 41 l 361 41 q 529 83 465 41 q 635 220 589 123 q 655 228 639 228 q 685 220 680 228 q 646 148 676 203 q 599 57 616 93 q 572 -5 581 22 z "},"":{"ha":492,"x_min":26,"x_max":461,"o":"m 142 296 q 199 311 163 296 q 271 350 235 326 q 334 409 308 374 q 361 480 361 445 q 343 520 361 506 q 304 534 326 534 q 240 507 271 534 q 190 441 210 480 q 158 363 170 401 q 142 296 145 324 m 27 -244 q 86 -124 26 -201 q 191 -8 146 -48 l 180 -8 q 70 43 109 -8 q 31 189 31 94 q 63 335 31 261 q 143 465 94 410 q 253 555 191 520 q 372 590 314 590 q 440 566 419 590 q 461 506 461 541 q 423 413 461 460 q 332 335 385 367 q 225 282 279 302 q 140 262 172 262 q 137 218 137 254 q 160 112 137 152 q 231 72 182 72 q 254 76 241 72 q 278 86 267 80 q 301 101 289 92 q 322 117 313 109 q 340 134 331 125 q 355 149 349 143 q 366 160 361 155 l 370 165 q 380 155 374 165 q 387 138 387 144 q 331 73 374 117 q 279 24 316 59 q 216 -36 242 -10 q 160 -93 190 -62 q 115 -149 131 -124 q 99 -189 99 -173 q 141 -232 99 -232 q 195 -219 169 -232 q 236 -193 221 -206 q 254 -180 252 -180 q 255 -199 260 -182 q 245 -221 250 -216 q 95 -312 164 -312 q 46 -292 65 -312 q 27 -244 27 -273 z "},"":{"ha":751,"x_min":-11,"x_max":724,"o":"m 492 964 q 478 974 483 964 q 458 1006 468 991 q 438 1036 449 1021 q 419 1061 427 1052 q 396 1090 412 1070 q 372 1120 380 1110 q 379 1130 373 1126 q 393 1134 386 1134 l 513 1054 q 676 1134 615 1103 q 686 1130 682 1134 q 690 1120 690 1126 q 651 1090 679 1112 q 613 1060 623 1068 q 583 1036 603 1053 q 546 1006 563 1020 q 511 974 530 991 q 492 964 498 964 m 316 891 q 513 896 373 891 q 723 901 652 901 q 722 806 720 884 q 724 716 724 728 q 700 709 718 709 q 685 719 685 709 q 650 825 680 795 q 566 854 620 854 l 457 854 q 368 840 375 854 q 340 742 353 811 l 290 481 q 294 477 290 479 q 306 475 298 475 q 323 474 314 474 q 343 473 332 473 l 410 473 q 458 474 441 473 q 492 478 476 475 q 516 487 508 481 q 532 502 524 492 q 547 525 541 512 q 562 558 553 538 q 567 571 565 566 q 589 581 571 581 q 608 574 603 581 l 559 317 q 537 312 553 312 q 519 323 522 312 q 513 394 517 378 q 502 418 509 411 q 370 429 488 429 q 277 416 279 429 l 224 148 q 214 54 207 62 q 240 43 224 45 q 301 41 256 41 l 361 41 q 529 83 465 41 q 635 220 589 123 q 655 228 639 228 q 685 220 680 228 q 646 148 676 203 q 599 57 616 93 q 572 -5 581 22 q 370 -3 508 -5 q 144 0 232 0 q 64 -2 113 0 q -7 -4 16 -4 q -8 16 -11 1 q 0 35 -5 30 q 54 41 19 35 q 92 57 88 47 q 118 157 102 76 l 231 736 q 243 837 245 812 q 211 852 242 846 q 160 859 179 859 q 159 878 157 863 q 168 898 162 893 q 316 891 297 891 z "},"":{"ha":492,"x_min":31,"x_max":515,"o":"m 340 673 q 328 684 334 673 q 236 841 285 765 q 242 851 237 847 q 254 856 248 856 l 359 769 q 502 856 449 822 q 511 851 507 856 q 514 841 515 847 q 357 684 417 748 q 340 673 346 673 m 372 590 q 440 566 419 590 q 461 506 461 541 q 423 413 461 460 q 332 335 385 367 q 225 282 279 302 q 140 262 172 262 q 137 218 137 254 q 160 112 137 152 q 231 72 182 72 q 254 76 241 72 q 278 86 267 80 q 301 101 289 92 q 322 117 313 109 q 340 134 331 125 q 355 149 350 143 q 366 160 361 155 l 370 165 q 380 155 374 165 q 387 138 387 144 q 358 102 378 125 q 309 54 338 80 q 245 10 281 28 q 180 -8 210 -8 q 70 43 109 -8 q 31 189 31 94 q 63 335 31 261 q 143 465 94 410 q 253 555 191 520 q 372 590 314 590 m 142 296 q 199 311 163 296 q 271 350 235 326 q 334 409 308 374 q 361 480 361 445 q 343 520 361 506 q 304 534 326 534 q 240 507 271 534 q 190 441 210 480 q 158 363 170 401 q 142 296 145 324 z "},"":{"ha":945,"x_min":80,"x_max":905,"o":"m 681 1134 q 694 1124 688 1134 q 800 978 741 1050 q 793 968 800 972 q 780 964 787 964 l 659 1044 q 496 964 562 997 q 486 968 490 964 q 483 978 482 972 q 662 1124 578 1049 q 681 1134 673 1134 m 793 670 q 738 806 798 750 q 591 861 678 861 q 442 827 512 861 q 320 733 372 793 q 239 581 269 672 q 209 382 209 490 q 218 283 209 332 q 249 188 228 235 q 300 106 270 142 q 378 50 331 71 q 481 28 425 28 q 566 43 526 28 q 633 75 607 57 q 647 98 645 82 l 674 237 q 688 338 690 317 q 652 353 687 347 q 598 359 618 359 q 597 379 595 364 q 605 399 599 394 q 751 392 734 392 q 901 399 768 392 q 903 379 905 393 q 895 359 901 365 q 845 353 877 359 q 808 338 813 347 q 783 237 799 319 l 764 141 q 763 111 760 128 q 766 92 766 94 q 736 62 766 78 q 629 14 667 26 q 439 -11 550 -11 q 255 40 338 -11 q 126 175 172 90 q 80 359 80 260 q 110 547 80 459 q 193 701 140 635 q 315 812 245 766 q 466 882 385 859 q 631 903 547 905 q 849 868 711 902 q 842 756 848 839 q 836 670 836 673 q 825 663 834 663 q 793 670 807 663 z "},"":{"ha":559,"x_min":-65,"x_max":567,"o":"m 354 854 q 366 844 361 854 q 458 686 410 762 q 452 676 458 680 q 441 671 446 671 l 335 758 q 193 671 245 705 q 183 676 187 671 q 180 686 180 680 q 338 844 277 779 q 354 854 349 854 m 377 -160 q 362 -114 377 -136 q 329 -77 348 -92 q 278 -47 309 -62 q 225 -25 246 -33 q 172 -8 203 -18 q 137 -24 153 -16 q 101 -46 121 -33 q 67 -73 81 -59 q 45 -107 54 -87 q 35 -149 35 -127 q 229 -269 35 -269 q 336 -237 295 -269 q 377 -160 377 -205 m 288 552 q 215 517 247 552 q 169 433 184 481 q 155 335 155 385 q 176 243 155 281 q 239 205 198 205 q 311 236 280 205 q 356 311 342 268 q 370 399 370 354 q 347 503 370 454 q 288 552 324 552 m 452 517 q 457 498 452 515 q 466 460 462 481 q 471 423 471 439 q 460 346 471 382 q 435 286 450 309 q 402 242 421 262 q 371 213 382 222 q 347 197 359 203 q 288 170 330 186 q 219 139 246 154 q 191 111 191 125 q 219 87 191 100 q 288 61 248 75 q 368 27 328 46 q 436 -27 408 7 q 464 -106 464 -62 q 378 -259 464 -202 q 146 -316 292 -316 q -6 -280 53 -316 q -65 -183 -65 -245 q -52 -131 -65 -156 q -20 -86 -39 -105 q 27 -48 -1 -67 q 78 -17 56 -29 q 130 8 101 -5 l 106 24 q 72 73 72 47 q 120 126 72 96 q 208 165 168 156 q 165 176 190 165 q 115 204 140 186 q 72 254 90 222 q 54 324 54 286 q 92 460 54 398 q 189 557 130 523 q 311 591 248 591 q 357 587 335 591 q 392 577 378 582 q 426 562 405 572 q 451 562 434 557 q 487 574 468 566 q 511 582 505 581 q 547 562 527 577 q 567 534 567 547 q 563 521 567 527 q 551 515 558 515 q 505 516 548 515 q 452 517 462 517 z "},"":{"ha":945,"x_min":80,"x_max":905,"o":"m 565 1073 q 577 1063 565 1073 q 631 1053 590 1053 q 705 1074 671 1053 q 755 1131 739 1095 q 762 1134 755 1134 q 775 1128 768 1134 q 781 1119 782 1123 q 780 1115 781 1118 q 779 1109 779 1111 q 714 1024 761 1061 q 618 987 668 987 q 536 1023 568 987 q 506 1111 505 1059 l 506 1119 q 516 1128 507 1123 q 532 1134 526 1134 q 537 1131 537 1134 q 565 1073 539 1094 m 793 670 q 738 806 798 750 q 591 861 678 861 q 442 827 512 861 q 320 733 372 793 q 239 581 269 672 q 209 382 209 490 q 218 283 209 332 q 249 188 228 235 q 300 106 270 142 q 378 50 331 71 q 481 28 425 28 q 566 43 526 28 q 633 75 607 57 q 647 98 645 82 l 674 237 q 688 338 690 317 q 652 353 687 347 q 598 359 618 359 q 597 379 595 364 q 605 399 599 394 q 751 392 734 392 q 901 399 768 392 q 903 379 905 393 q 895 359 901 365 q 845 353 877 359 q 808 338 813 347 q 783 237 799 319 l 764 141 q 763 111 760 128 q 766 92 766 94 q 736 62 766 78 q 629 14 667 26 q 439 -11 550 -11 q 255 40 338 -11 q 126 175 172 90 q 80 359 80 260 q 110 547 80 459 q 193 701 140 635 q 315 812 245 766 q 466 882 385 859 q 631 903 547 905 q 849 868 711 902 q 842 756 848 839 q 836 670 836 673 q 825 663 834 663 q 793 670 807 663 z "},"":{"ha":559,"x_min":-65,"x_max":567,"o":"m 377 -160 q 362 -114 377 -136 q 329 -77 348 -92 q 278 -47 309 -62 q 225 -25 246 -33 q 172 -8 203 -18 q 137 -24 153 -16 q 101 -46 121 -33 q 67 -73 81 -59 q 45 -107 54 -87 q 35 -149 35 -127 q 229 -269 35 -269 q 336 -237 295 -269 q 377 -160 377 -205 m 288 552 q 215 517 247 552 q 169 433 184 481 q 155 335 155 385 q 176 243 155 281 q 239 205 198 205 q 311 236 280 205 q 356 311 342 268 q 370 399 370 354 q 347 503 370 454 q 288 552 324 552 m 452 517 q 457 498 452 515 q 466 460 462 481 q 471 423 471 439 q 460 346 471 382 q 435 286 450 309 q 402 242 421 262 q 371 213 382 222 q 347 197 359 203 q 288 170 330 186 q 219 139 246 154 q 191 111 191 125 q 219 87 191 100 q 288 61 248 75 q 368 27 328 46 q 436 -27 408 7 q 464 -106 464 -62 q 378 -259 464 -202 q 146 -316 292 -316 q -6 -280 53 -316 q -65 -183 -65 -245 q -52 -131 -65 -156 q -20 -86 -39 -105 q 27 -48 -1 -67 q 78 -17 56 -29 q 130 8 101 -5 l 106 24 q 72 73 72 47 q 120 126 72 96 q 208 165 168 156 q 165 176 190 165 q 115 204 140 186 q 72 254 90 222 q 54 324 54 286 q 92 460 54 398 q 189 557 130 523 q 311 591 248 591 q 357 587 335 591 q 392 577 378 582 q 426 562 405 572 q 451 562 434 557 q 487 574 468 566 q 511 582 505 581 q 547 562 527 577 q 567 534 567 547 q 563 521 567 527 q 551 515 558 515 q 505 516 548 515 q 452 517 462 517 m 476 823 q 473 810 476 821 q 407 714 454 754 q 311 674 360 674 q 229 713 260 674 q 201 811 197 753 q 201 817 201 812 q 202 822 202 821 q 216 833 206 828 q 232 834 226 839 q 258 764 233 791 q 323 736 283 736 q 398 763 362 736 q 452 834 433 790 q 465 834 456 838 q 476 823 474 829 z "},"":{"ha":945,"x_min":80,"x_max":905,"o":"m 574 1055 q 602 1103 578 1084 q 651 1123 625 1123 q 691 1103 677 1123 q 700 1055 705 1084 q 673 1007 695 1027 q 624 987 650 987 q 583 1007 597 987 q 574 1055 568 1027 m 793 670 q 738 806 798 750 q 591 861 678 861 q 442 827 512 861 q 320 733 372 793 q 239 581 269 672 q 209 382 209 490 q 218 283 209 332 q 249 188 228 235 q 300 106 270 142 q 378 50 331 71 q 481 28 425 28 q 566 43 526 28 q 633 75 607 57 q 647 98 645 82 l 674 237 q 688 338 690 317 q 652 353 687 347 q 598 359 618 359 q 597 379 595 364 q 605 399 599 394 q 751 392 734 392 q 901 399 768 392 q 903 379 905 393 q 895 359 901 365 q 845 353 877 359 q 808 338 813 347 q 783 237 799 319 l 764 141 q 763 111 760 128 q 766 92 766 94 q 736 62 766 78 q 629 14 667 26 q 439 -11 550 -11 q 255 40 338 -11 q 126 175 172 90 q 80 359 80 260 q 110 547 80 459 q 193 701 140 635 q 315 812 245 766 q 466 882 385 859 q 631 903 547 905 q 849 868 711 902 q 842 756 848 839 q 836 670 836 673 q 825 663 834 663 q 793 670 807 663 z "},"":{"ha":559,"x_min":-65,"x_max":567,"o":"m 377 -160 q 362 -114 377 -136 q 329 -77 348 -92 q 278 -47 309 -62 q 225 -25 246 -33 q 172 -8 203 -18 q 137 -24 153 -16 q 101 -46 121 -33 q 67 -73 81 -59 q 45 -107 54 -87 q 35 -149 35 -127 q 229 -269 35 -269 q 336 -237 295 -269 q 377 -160 377 -205 m 288 552 q 215 517 247 552 q 169 433 184 481 q 155 335 155 385 q 176 243 155 281 q 239 205 198 205 q 311 236 280 205 q 356 311 342 268 q 370 399 370 354 q 347 503 370 454 q 288 552 324 552 m 452 517 q 457 498 452 515 q 466 460 462 481 q 471 423 471 439 q 460 346 471 382 q 435 286 450 309 q 402 242 421 262 q 371 213 382 222 q 347 197 359 203 q 288 170 330 186 q 219 139 246 154 q 191 111 191 125 q 219 87 191 100 q 288 61 248 75 q 368 27 328 46 q 436 -27 408 7 q 464 -106 464 -62 q 378 -259 464 -202 q 146 -316 292 -316 q -6 -280 53 -316 q -65 -183 -65 -245 q -52 -131 -65 -156 q -20 -86 -39 -105 q 27 -48 -1 -67 q 78 -17 56 -29 q 130 8 101 -5 l 106 24 q 72 73 72 47 q 120 126 72 96 q 208 165 168 156 q 165 176 190 165 q 115 204 140 186 q 72 254 90 222 q 54 324 54 286 q 92 460 54 398 q 189 557 130 523 q 311 591 248 591 q 357 587 335 591 q 392 577 378 582 q 426 562 405 572 q 451 562 434 557 q 487 574 468 566 q 511 582 505 581 q 547 562 527 577 q 567 534 567 547 q 563 521 567 527 q 551 515 558 515 q 505 516 548 515 q 452 517 462 517 m 278 808 q 306 857 283 837 q 355 876 329 876 q 396 857 382 876 q 404 808 410 837 q 377 760 399 780 q 328 741 355 741 q 287 760 302 741 q 278 808 273 780 z "},"":{"ha":945,"x_min":80,"x_max":905,"o":"m 370 -146 q 408 -94 370 -115 q 487 -72 445 -72 q 505 -127 505 -85 q 461 -235 505 -178 q 377 -313 418 -292 q 366 -316 374 -316 q 342 -307 342 -316 q 357 -295 342 -304 q 389 -267 372 -286 q 411 -224 406 -248 q 408 -200 414 -210 q 394 -183 402 -189 q 378 -168 385 -177 q 370 -146 370 -158 m 793 670 q 738 806 798 750 q 591 861 678 861 q 442 827 512 861 q 320 733 372 793 q 239 581 269 672 q 209 382 209 490 q 218 283 209 332 q 249 188 228 235 q 300 106 270 142 q 378 50 331 71 q 481 28 425 28 q 566 43 526 28 q 633 75 607 57 q 647 98 645 82 l 674 237 q 688 338 690 317 q 652 353 687 347 q 598 359 618 359 q 597 379 595 364 q 605 399 599 394 q 751 392 734 392 q 901 399 768 392 q 903 379 905 393 q 895 359 901 365 q 845 353 877 359 q 808 338 813 347 q 783 237 799 319 l 764 141 q 763 111 760 128 q 766 92 766 94 q 736 62 766 78 q 629 14 667 26 q 439 -11 550 -11 q 255 40 338 -11 q 126 175 172 90 q 80 359 80 260 q 110 547 80 459 q 193 701 140 635 q 315 812 245 766 q 466 882 385 859 q 631 903 547 905 q 849 868 711 902 q 842 756 848 839 q 836 670 836 673 q 825 663 834 663 q 793 670 807 663 z "},"":{"ha":559,"x_min":-65,"x_max":567,"o":"m 377 -160 q 362 -114 377 -136 q 329 -77 348 -92 q 278 -47 309 -62 q 225 -25 246 -33 q 172 -8 203 -18 q 137 -24 153 -16 q 101 -46 121 -33 q 67 -73 81 -59 q 45 -107 54 -87 q 35 -149 35 -127 q 229 -269 35 -269 q 336 -237 295 -269 q 377 -160 377 -205 m 288 552 q 215 517 247 552 q 169 433 184 481 q 155 335 155 385 q 176 243 155 281 q 239 205 198 205 q 311 236 280 205 q 356 311 342 268 q 370 399 370 354 q 347 503 370 454 q 288 552 324 552 m 452 517 q 457 498 452 515 q 466 460 462 481 q 471 423 471 439 q 460 346 471 382 q 435 286 450 309 q 402 242 421 262 q 371 213 382 222 q 347 197 359 203 q 288 170 330 186 q 219 139 246 154 q 191 111 191 125 q 219 87 191 100 q 288 61 248 75 q 368 27 328 46 q 436 -27 408 7 q 464 -106 464 -62 q 378 -259 464 -202 q 146 -316 292 -316 q -6 -280 53 -316 q -65 -183 -65 -245 q -52 -131 -65 -156 q -20 -86 -39 -105 q 27 -48 -1 -67 q 78 -17 56 -29 q 130 8 101 -5 l 106 24 q 72 73 72 47 q 120 126 72 96 q 208 165 168 156 q 165 176 190 165 q 115 204 140 186 q 72 254 90 222 q 54 324 54 286 q 92 460 54 398 q 189 557 130 523 q 311 591 248 591 q 357 587 335 591 q 392 577 378 582 q 426 562 405 572 q 451 562 434 557 q 487 574 468 566 q 511 582 505 581 q 547 562 527 577 q 567 534 567 547 q 563 521 567 527 q 551 515 558 515 q 505 516 548 515 q 452 517 462 517 m 407 739 q 370 686 407 708 q 290 665 332 665 q 273 720 273 678 q 316 828 273 771 q 400 906 359 884 q 411 909 403 909 q 435 899 435 909 q 420 888 435 897 q 388 860 406 878 q 366 817 371 841 q 369 792 363 803 q 384 776 375 782 q 399 760 392 770 q 407 739 407 751 z "},"":{"ha":930,"x_min":-12,"x_max":975,"o":"m 227 157 q 214 57 212 73 q 246 41 214 47 q 296 35 277 35 q 297 16 300 31 q 288 -4 294 1 q 143 3 159 3 q -7 -4 125 3 q -9 16 -12 1 q -1 35 -6 30 q 53 41 18 35 q 92 57 87 47 q 117 157 101 76 l 230 736 q 242 837 245 812 q 210 852 241 846 q 159 859 178 859 q 159 878 156 863 q 168 898 161 893 q 315 891 296 891 q 465 898 332 891 q 465 878 469 892 q 456 859 462 864 q 404 852 437 859 q 366 837 370 846 q 340 736 354 814 l 291 483 l 687 483 l 736 736 q 748 837 751 817 q 716 852 747 846 q 665 859 684 859 q 665 878 662 863 q 673 898 667 893 q 821 891 802 891 q 970 898 838 891 q 971 878 975 892 q 962 859 968 864 q 909 852 943 859 q 871 837 876 846 q 846 736 862 818 l 733 157 q 720 57 717 77 q 752 41 720 47 q 802 35 783 35 q 803 16 806 31 q 794 -4 800 1 q 648 3 665 3 q 498 -4 631 3 q 497 16 494 1 q 505 35 500 30 q 559 41 524 35 q 597 57 593 47 q 623 157 607 76 l 676 429 l 280 429 l 227 157 m 649 1134 q 663 1124 656 1134 q 768 978 709 1050 q 761 968 768 972 q 748 964 755 964 l 627 1044 q 465 964 530 997 q 454 968 458 964 q 451 978 450 972 q 630 1124 547 1049 q 649 1134 641 1134 z "},"":{"ha":637,"x_min":30,"x_max":585,"o":"m 281 802 l 212 448 l 187 323 q 213 364 193 335 q 264 432 233 393 q 329 506 296 471 q 397 566 361 541 q 457 590 432 590 q 513 566 495 590 q 532 500 532 541 q 513 353 532 443 l 468 144 q 463 100 463 122 q 476 66 463 66 q 493 72 483 66 q 512 86 503 78 q 533 104 522 94 q 551 123 543 115 q 564 138 557 132 l 571 145 q 579 135 574 145 q 585 119 585 125 q 508 41 568 91 q 407 -8 449 -8 q 373 12 385 -8 q 361 62 361 31 q 370 134 361 94 l 418 358 q 427 431 427 401 q 422 475 427 460 q 401 490 417 490 q 347 460 383 490 q 274 386 311 431 q 203 279 236 340 q 159 161 170 218 q 125 0 149 112 q 76 -5 106 -5 q 30 0 52 -5 l 176 758 q 181 783 178 766 q 186 811 184 800 q 189 830 189 823 q 106 856 189 856 q 105 870 103 860 q 111 884 107 880 q 290 929 186 891 q 298 903 298 924 q 281 802 298 890 m 311 1134 q 324 1124 318 1134 q 430 978 370 1050 q 423 968 429 972 q 410 964 416 964 l 289 1044 q 126 964 191 997 q 116 968 120 964 q 113 978 112 972 q 292 1124 208 1049 q 311 1134 302 1134 z "},"":{"ha":930,"x_min":-10,"x_max":976,"o":"m 229 157 q 215 57 213 73 q 247 41 216 47 q 298 35 279 35 q 298 16 301 31 q 290 -4 296 1 q 144 3 161 3 q -6 -4 126 3 q -7 16 -10 1 q 1 35 -5 30 q 54 41 20 35 q 93 57 89 47 q 119 157 102 76 l 231 736 q 243 837 246 812 q 211 852 243 846 q 161 859 180 859 q 160 878 157 863 q 169 898 163 893 q 317 891 298 891 q 466 898 334 891 q 467 878 470 892 q 458 859 463 864 q 405 852 439 859 q 367 837 371 846 q 341 736 355 814 l 292 483 l 688 483 l 737 736 q 749 837 752 817 q 717 852 749 846 q 667 859 686 859 q 666 878 663 863 q 675 898 669 893 q 823 891 804 891 q 972 898 840 891 q 972 878 976 892 q 964 859 969 864 q 911 852 945 859 q 873 837 877 846 q 847 736 863 818 l 734 157 q 721 57 718 77 q 753 41 722 47 q 804 35 785 35 q 804 16 807 31 q 795 -4 802 1 q 649 3 667 3 q 500 -4 632 3 q 498 16 496 1 q 507 35 501 30 q 560 41 526 35 q 599 57 595 47 q 625 157 608 76 l 677 429 l 281 429 l 229 157 m 157 686 l 906 686 q 910 675 913 686 q 895 640 907 659 l 145 640 q 142 646 142 640 q 142 655 141 651 q 157 686 146 673 z "},"":{"ha":637,"x_min":30,"x_max":585,"o":"m 281 802 l 212 448 l 187 323 q 213 364 193 335 q 264 432 233 393 q 329 506 296 471 q 397 566 361 541 q 457 590 432 590 q 513 566 495 590 q 532 500 532 541 q 513 353 532 443 l 468 144 q 463 100 463 122 q 476 66 463 66 q 493 72 483 66 q 512 86 503 78 q 533 104 522 94 q 551 123 543 115 q 564 138 557 132 l 571 145 q 579 135 574 145 q 585 119 585 125 q 508 41 568 91 q 407 -8 449 -8 q 373 12 385 -8 q 361 62 361 31 q 370 134 361 94 l 418 358 q 427 431 427 401 q 422 475 427 460 q 401 490 417 490 q 347 460 383 490 q 274 386 311 431 q 203 279 236 340 q 159 161 170 218 q 125 0 149 112 q 76 -5 106 -5 q 30 0 52 -5 l 176 758 q 181 783 178 766 q 186 811 184 800 q 189 830 189 823 q 106 856 189 856 q 105 870 103 860 q 111 884 107 880 q 290 929 186 891 q 298 903 298 924 q 281 802 298 890 m 121 766 l 431 766 q 435 755 438 766 q 420 720 432 739 l 109 720 q 105 726 106 720 q 106 735 104 731 q 121 766 109 753 z "},"":{"ha":425,"x_min":-12,"x_max":531,"o":"m 315 891 q 465 898 332 891 q 465 878 469 892 q 456 859 462 864 q 404 852 437 859 q 366 837 370 846 q 340 736 356 818 l 227 157 q 214 57 211 77 q 246 41 214 47 q 296 35 277 35 q 297 16 300 31 q 288 -4 294 1 q 143 3 159 3 q -7 -4 125 3 q -9 16 -12 1 q -1 35 -6 30 q 53 41 18 35 q 92 57 87 47 q 117 157 101 76 l 230 736 q 242 837 245 812 q 210 852 241 846 q 159 859 178 859 q 159 878 156 863 q 168 898 161 893 q 315 891 296 891 m 254 1111 q 337 1092 304 1111 q 367 1075 357 1080 q 396 1065 376 1070 q 435 1059 415 1059 q 523 1111 479 1059 q 531 1097 531 1108 q 507 1047 531 1072 q 401 1002 460 1002 q 318 1021 351 1002 q 289 1038 298 1033 q 259 1048 279 1043 q 220 1054 240 1054 q 132 1002 176 1054 q 123 1016 123 1006 q 149 1066 123 1040 q 254 1111 195 1111 z "},"":{"ha":355,"x_min":31,"x_max":429,"o":"m 167 792 q 243 774 208 792 q 266 762 248 772 q 299 748 285 752 q 331 743 313 743 q 419 792 370 743 q 427 780 429 789 q 399 730 423 751 q 293 686 352 686 q 218 705 259 686 q 200 715 216 707 q 177 726 184 723 q 156 732 170 728 q 127 735 141 735 q 39 686 88 735 q 33 700 31 689 q 60 749 37 728 q 167 792 106 792 m 159 438 q 164 481 164 471 q 151 515 164 515 q 134 510 144 515 q 114 496 124 504 q 94 477 104 488 q 76 459 83 467 q 62 444 69 450 l 56 437 q 47 447 52 437 q 42 463 42 456 q 116 541 60 492 q 213 590 172 590 q 250 570 235 590 q 266 519 266 549 q 256 448 266 498 l 187 144 q 182 100 182 117 q 195 66 182 66 q 212 72 202 66 q 232 86 222 78 q 252 104 241 94 q 270 123 262 115 q 283 138 277 132 l 290 145 q 299 135 294 145 q 304 119 304 125 q 228 41 287 91 q 126 -8 168 -8 q 93 12 105 -8 q 80 62 80 31 q 90 134 80 84 l 159 438 z "},"":{"ha":425,"x_min":-12,"x_max":493,"o":"m 315 891 q 465 898 332 891 q 465 878 469 892 q 456 859 462 864 q 404 852 437 859 q 366 837 370 846 q 340 736 356 818 l 227 157 q 214 57 211 77 q 246 41 214 47 q 296 35 277 35 q 297 16 300 31 q 288 -4 294 1 q 143 3 159 3 q -7 -4 125 3 q -9 16 -12 1 q -1 35 -6 30 q 53 41 18 35 q 92 57 87 47 q 117 157 101 76 l 230 736 q 242 837 245 812 q 210 852 241 846 q 159 859 178 859 q 159 878 156 863 q 168 898 161 893 q 315 891 296 891 m 479 1000 l 159 1000 q 155 1012 155 1004 q 161 1036 155 1020 q 172 1053 167 1053 l 487 1053 q 493 1043 493 1053 q 479 1000 493 1015 z "},"":{"ha":355,"x_min":38,"x_max":369,"o":"m 155 438 q 160 481 160 471 q 146 515 160 515 q 130 510 140 515 q 110 496 120 504 q 90 477 100 488 q 72 459 79 467 q 58 444 65 450 l 52 437 q 43 447 48 437 q 38 463 38 456 q 112 541 56 492 q 209 590 168 590 q 246 570 231 590 q 262 519 262 549 q 252 448 262 498 l 183 144 q 178 100 178 117 q 191 66 178 66 q 208 72 198 66 q 228 86 218 78 q 248 104 237 94 q 266 123 258 115 q 279 138 273 132 l 286 145 q 295 135 290 145 q 300 119 300 125 q 223 41 283 91 q 122 -8 164 -8 q 89 12 101 -8 q 76 62 76 31 q 85 134 76 84 l 155 438 m 355 682 l 71 682 q 66 694 66 686 q 72 719 66 703 q 83 735 78 735 l 363 735 q 369 726 369 735 q 355 682 369 697 z "},"":{"ha":425,"x_min":-12,"x_max":494,"o":"m 315 891 q 465 898 332 891 q 465 878 469 892 q 456 859 462 864 q 404 852 437 859 q 366 837 370 846 q 340 736 356 818 l 227 157 q 214 57 211 77 q 246 41 214 47 q 296 35 277 35 q 297 16 300 31 q 288 -4 294 1 q 143 3 159 3 q -7 -4 125 3 q -9 16 -12 1 q -1 35 -6 30 q 53 41 18 35 q 92 57 87 47 q 117 157 101 76 l 230 736 q 242 837 245 812 q 210 852 241 846 q 159 859 178 859 q 159 878 156 863 q 168 898 161 893 q 315 891 296 891 m 276 1073 q 289 1063 276 1073 q 342 1053 302 1053 q 417 1074 383 1053 q 467 1131 451 1095 q 474 1134 467 1134 q 487 1128 480 1134 q 493 1119 494 1123 q 492 1115 493 1118 q 490 1109 490 1111 q 426 1024 473 1061 q 330 987 380 987 q 248 1023 280 987 q 218 1111 216 1059 l 218 1119 q 228 1128 219 1123 q 243 1134 237 1134 q 249 1131 249 1134 q 276 1073 251 1094 z "},"":{"ha":355,"x_min":38,"x_max":385,"o":"m 155 438 q 160 481 160 471 q 146 515 160 515 q 130 510 140 515 q 110 496 120 504 q 90 477 100 488 q 72 459 79 467 q 58 444 65 450 l 52 437 q 43 447 48 437 q 38 463 38 456 q 112 541 56 492 q 209 590 168 590 q 246 570 231 590 q 262 519 262 549 q 252 448 262 498 l 183 144 q 178 100 178 117 q 191 66 178 66 q 208 72 198 66 q 228 86 218 78 q 248 104 237 94 q 266 123 258 115 q 279 138 273 132 l 286 145 q 295 135 290 145 q 300 119 300 125 q 223 41 283 91 q 122 -8 164 -8 q 89 12 101 -8 q 76 62 76 31 q 85 134 76 84 l 155 438 m 385 822 q 382 808 385 819 q 316 713 363 753 q 220 673 269 673 q 138 712 169 673 q 110 810 106 751 q 111 815 110 811 q 111 821 111 820 q 125 832 115 827 q 141 833 135 838 q 167 762 142 789 q 232 735 192 735 q 307 762 271 735 q 361 833 342 789 q 374 832 365 837 q 385 822 383 828 z "},"":{"ha":425,"x_min":-19,"x_max":468,"o":"m 296 35 q 294 17 298 32 q 288 -4 290 1 q 224 -14 259 -4 q 103 -89 154 -34 q 53 -189 53 -143 q 95 -232 53 -232 q 149 -219 123 -232 q 190 -193 175 -206 q 208 -180 205 -180 q 209 -199 214 -182 q 199 -221 204 -216 q 49 -312 118 -312 q 0 -292 19 -312 q -19 -244 -19 -273 q 34 -103 -19 -182 q 146 3 87 -25 q -8 -4 124 3 q -9 16 -12 1 q -1 35 -7 30 q 52 41 18 35 q 91 57 87 47 q 117 157 100 76 l 229 736 q 241 837 244 812 q 209 852 241 846 q 159 859 178 859 q 158 878 155 863 q 167 898 161 893 q 315 891 296 891 q 464 898 332 891 q 465 878 468 892 q 456 859 461 864 q 403 852 437 859 q 365 837 369 846 q 339 736 355 818 l 227 157 q 213 57 210 77 q 245 41 214 47 q 296 35 277 35 z "},"":{"ha":357,"x_min":5,"x_max":296,"o":"m 228 876 q 263 860 249 876 q 277 822 277 844 q 255 765 277 789 q 203 741 234 741 q 170 758 182 741 q 157 799 157 775 q 178 853 157 830 q 228 876 198 876 m 296 119 q 229 49 284 98 q 124 -73 170 -5 q 79 -189 79 -140 q 121 -232 79 -232 q 175 -219 149 -232 q 216 -193 201 -206 q 233 -180 231 -180 q 235 -199 240 -182 q 225 -221 230 -216 q 75 -312 144 -312 q 25 -292 45 -312 q 5 -244 5 -272 q 45 -126 5 -198 q 126 -8 85 -55 l 118 -8 q 84 12 97 -8 q 72 62 72 31 q 81 134 72 84 l 151 438 q 156 481 156 471 q 142 515 156 515 q 126 510 136 515 q 106 496 116 504 q 86 477 96 488 q 68 459 75 467 q 54 444 61 450 l 47 437 q 39 447 44 437 q 34 463 34 456 q 107 541 52 492 q 205 590 163 590 q 242 570 227 590 q 258 519 258 549 q 248 448 258 498 l 179 144 q 174 100 174 117 q 187 66 174 66 q 204 72 194 66 q 223 86 214 78 q 244 104 233 94 q 261 123 254 115 q 275 138 269 132 l 282 145 q 291 135 286 145 q 296 119 296 125 z "},"":{"ha":425,"x_min":-12,"x_max":469,"o":"m 315 891 q 465 898 332 891 q 465 878 469 892 q 456 859 462 864 q 404 852 437 859 q 366 837 370 846 q 340 736 356 818 l 227 157 q 214 57 211 77 q 246 41 214 47 q 296 35 277 35 q 297 16 300 31 q 288 -4 294 1 q 143 3 159 3 q -7 -4 125 3 q -9 16 -12 1 q -1 35 -6 30 q 53 41 18 35 q 92 57 87 47 q 117 157 101 76 l 230 736 q 242 837 245 812 q 210 852 241 846 q 159 859 178 859 q 159 878 156 863 q 168 898 161 893 q 315 891 296 891 m 288 1055 q 316 1103 293 1084 q 366 1123 339 1123 q 406 1103 392 1123 q 414 1055 420 1084 q 387 1007 410 1027 q 338 987 365 987 q 297 1007 312 987 q 288 1055 283 1027 z "},"":{"ha":355,"x_min":34,"x_max":296,"o":"m 151 438 q 156 481 156 471 q 142 515 156 515 q 126 510 136 515 q 106 496 116 504 q 86 477 96 488 q 68 459 75 467 q 54 444 61 450 l 47 437 q 39 447 44 437 q 34 463 34 456 q 107 541 52 492 q 205 590 163 590 q 242 570 227 590 q 258 519 258 549 q 248 448 258 498 l 179 144 q 174 100 174 117 q 187 66 174 66 q 204 72 194 66 q 223 86 214 78 q 244 104 233 94 q 262 123 254 115 q 275 138 269 132 l 282 145 q 291 135 286 145 q 296 119 296 125 q 219 41 279 91 q 118 -8 160 -8 q 84 12 97 -8 q 72 62 72 31 q 81 134 72 84 l 151 438 z "},"":{"ha":762,"x_min":-12,"x_max":817,"o":"m 315 891 q 465 898 332 891 q 465 878 469 892 q 456 859 462 864 q 404 852 437 859 q 366 837 370 846 q 340 736 356 818 l 227 157 q 214 57 211 77 q 246 41 214 47 q 296 35 277 35 q 297 16 300 31 q 288 -4 294 1 q 143 3 159 3 q -7 -4 125 3 q -9 16 -12 1 q -1 35 -6 30 q 53 41 18 35 q 92 57 87 47 q 117 157 101 76 l 230 736 q 242 837 245 812 q 210 852 241 846 q 159 859 178 859 q 159 878 156 863 q 168 898 161 893 q 315 891 296 891 m 578 736 q 591 837 593 817 q 558 852 590 846 q 508 859 527 859 q 507 878 505 863 q 516 898 510 893 q 664 891 645 891 q 813 898 681 891 q 814 878 817 892 q 805 859 810 864 q 752 852 786 859 q 714 837 718 846 q 688 736 703 814 l 579 157 q 526 -29 559 54 q 453 -164 492 -113 q 370 -252 414 -216 q 288 -302 326 -288 q 214 -316 249 -316 q 210 -298 210 -310 l 212 -290 q 377 -156 321 -256 q 471 148 433 -56 l 578 736 z "},"":{"ha":617,"x_min":34,"x_max":579,"o":"m 438 438 q 444 481 444 471 q 430 515 444 515 q 413 510 423 515 q 394 496 404 504 q 373 477 384 488 q 355 459 363 467 q 342 444 349 450 l 335 437 q 327 447 332 437 q 321 463 321 456 q 395 541 339 492 q 492 590 451 590 q 530 570 514 590 q 545 519 545 549 q 536 448 545 498 l 461 61 q 427 -53 451 10 q 365 -168 404 -117 q 271 -261 326 -220 q 176 -319 217 -302 q 168 -307 172 -315 q 164 -292 164 -298 q 283 -168 233 -253 q 357 30 334 -83 l 438 438 m 530 876 q 565 860 551 876 q 579 822 579 844 q 558 765 579 789 q 506 741 536 741 q 472 758 485 741 q 460 799 460 775 q 480 853 460 830 q 530 876 500 876 m 151 438 q 156 481 156 471 q 142 515 156 515 q 126 510 136 515 q 106 496 116 504 q 86 477 96 488 q 68 459 75 467 q 54 444 61 450 l 47 437 q 39 447 44 437 q 34 463 34 456 q 107 541 52 492 q 205 590 163 590 q 242 570 227 590 q 258 519 258 549 q 248 448 258 498 l 179 144 q 174 100 174 117 q 187 66 174 66 q 204 72 194 66 q 223 86 214 78 q 244 104 233 94 q 262 123 254 115 q 275 138 269 132 l 282 145 q 291 135 286 145 q 296 119 296 125 q 219 41 279 91 q 118 -8 160 -8 q 84 12 97 -8 q 72 62 72 31 q 81 134 72 84 l 151 438 m 228 876 q 263 860 249 876 q 277 822 277 844 q 255 765 277 789 q 203 741 234 741 q 170 758 182 741 q 157 799 157 775 q 178 853 157 830 q 228 876 198 876 z "},"":{"ha":425,"x_min":-146,"x_max":483,"o":"m 222 736 q 234 837 237 817 q 202 852 233 846 q 151 859 170 859 q 151 878 148 863 q 159 898 153 893 q 307 891 288 891 q 456 898 324 891 q 457 878 460 892 q 448 859 454 864 q 395 852 429 859 q 357 837 361 846 q 332 736 346 814 l 222 157 q 169 -29 203 54 q 96 -164 135 -113 q 14 -252 58 -216 q -69 -302 -31 -288 q -142 -316 -108 -316 q -146 -298 -146 -310 l -145 -290 q 21 -156 -35 -256 q 114 148 77 -56 l 222 736 m 363 1134 q 377 1124 371 1134 q 483 978 423 1050 q 476 968 482 972 q 463 964 469 964 l 342 1044 q 179 964 244 997 q 169 968 173 964 q 165 978 165 972 q 345 1124 261 1049 q 363 1134 355 1134 z "},"":{"ha":338,"x_min":-111,"x_max":385,"o":"m 281 853 q 293 842 288 853 q 385 685 336 761 q 379 674 385 679 q 368 670 373 670 l 262 757 q 119 670 172 704 q 110 674 114 670 q 107 685 106 679 q 264 842 204 778 q 281 853 275 853 m 163 438 q 168 481 168 471 q 155 515 168 515 q 138 510 148 515 q 118 496 128 504 q 98 477 109 488 q 80 459 87 467 q 66 444 73 450 l 60 437 q 51 447 56 437 q 46 463 46 456 q 120 541 64 492 q 217 590 176 590 q 254 570 239 590 q 270 519 270 549 q 260 448 270 498 l 186 61 q 152 -53 176 10 q 90 -168 128 -117 q -4 -261 50 -220 q -99 -319 -58 -302 q -107 -307 -103 -315 q -111 -292 -111 -298 q 8 -168 -43 -253 q 81 30 59 -83 l 163 438 z "},"":{"ha":833,"x_min":-10,"x_max":904,"o":"m 283 -146 q 320 -94 283 -115 q 399 -72 357 -72 q 417 -127 417 -85 q 374 -235 417 -178 q 290 -313 330 -292 q 279 -316 287 -316 q 254 -307 254 -316 q 269 -295 254 -304 q 301 -267 284 -286 q 323 -224 319 -248 q 320 -200 326 -210 q 306 -183 315 -189 q 290 -168 298 -177 q 283 -146 283 -158 m 652 98 q 702 55 674 71 q 777 35 730 39 q 776 17 780 31 q 768 -4 772 2 q 592 11 628 -4 q 517 69 547 30 q 300 412 486 114 q 290 416 299 416 q 277 414 283 416 l 227 157 q 215 57 212 81 q 247 41 216 47 q 298 35 279 35 q 298 16 301 31 q 290 -4 296 1 q 143 3 161 3 q -6 -4 126 3 q -7 16 -10 1 q 1 35 -5 30 q 54 41 20 35 q 92 57 87 47 q 117 157 101 76 l 230 736 q 243 837 246 817 q 211 852 243 846 q 161 859 180 859 q 160 878 157 863 q 169 898 163 893 q 317 891 298 891 q 465 898 332 891 q 466 878 469 892 q 458 859 463 864 q 404 852 439 859 q 366 837 370 846 q 340 736 356 818 l 287 461 q 455 595 330 486 q 499 634 471 609 q 534 664 527 659 q 558 686 541 670 q 581 707 576 702 q 600 726 586 712 q 624 751 614 740 q 652 781 634 762 q 677 823 674 807 q 672 843 680 835 q 651 853 665 850 q 630 857 637 856 q 614 857 623 857 q 614 876 612 863 q 622 898 617 888 q 666 895 637 897 q 720 891 696 892 q 764 890 744 890 q 844 893 797 890 q 903 898 890 897 q 900 874 904 890 q 892 857 897 857 q 884 857 891 857 q 869 856 876 857 q 851 853 862 854 q 828 847 840 851 q 805 839 817 844 q 781 825 793 833 q 758 807 768 817 q 661 717 710 762 q 587 651 612 672 q 495 571 563 629 q 409 496 428 513 q 406 475 399 488 q 497 325 469 370 q 571 212 526 280 q 652 98 616 144 z "}}}
